<svg xmlns="http://www.w3.org/2000/svg" xmlns:xlink="http://www.w3.org/1999/xlink" xmlns:lucid="lucid" width="1104.09" height="640"><g transform="translate(1840 -100)" lucid:page-tab-id="ChagNmmRX86R"><path d="M-2000 0h1500v1000h-1500z" fill="#fff"/><path d="M-1520 406a6 6 0 0 1 6-6h308a6 6 0 0 1 6 6v308a6 6 0 0 1-6 6h-308a6 6 0 0 1-6-6z" stroke="#3a414a" fill="#fff"/><use xlink:href="#a" transform="matrix(1,0,0,1,-1515,405) translate(126.96913580246914 33.77777777777778)"/><path d="M-1480 479.36a6 6 0 0 1 6-6h228a6 6 0 0 1 6 6v165.76a6 6 0 0 1-6 6h-228a6 6 0 0 1-6-6z" stroke="#3a414a" fill="#fff"/><use xlink:href="#b" transform="matrix(1,0,0,1,-1475,478.36070768996876) translate(21.814814814814824 58.08333333333333)"/><use xlink:href="#c" transform="matrix(1,0,0,1,-1475,478.36070768996876) translate(92.85185185185185 58.08333333333333)"/><use xlink:href="#d" transform="matrix(1,0,0,1,-1475,478.36070768996876) translate(125.29629629629629 58.08333333333333)"/><use xlink:href="#e" transform="matrix(1,0,0,1,-1475,478.36070768996876) translate(177.14814814814815 58.08333333333333)"/><use xlink:href="#f" transform="matrix(1,0,0,1,-1475,478.36070768996876) translate(52.92592592592594 90.08333333333333)"/><use xlink:href="#g" transform="matrix(1,0,0,1,-1475,478.36070768996876) translate(24.148148148148152 122.08333333333333)"/><use xlink:href="#h" transform="matrix(1,0,0,1,-1475,478.36070768996876) translate(93.55555555555556 122.08333333333333)"/><path d="M-1797.56 564.02h-20.73c-.94 0-1.7-.76-1.7-1.7v-2.54c0-9.48 6.23-17.44 15.5-19.67.4-.08.8-.03 1.2.18 2.73 1.46 5.68 1.46 8.4 0 .4-.2.8-.26 1.22-.17 2.42.6 4.43 1.48 6.5 2.87l-1.9 2.82c-1.55-1-3-1.68-4.8-2.16-3.45 1.58-7 1.58-10.43 0h-.02c-7.38 2.06-12.27 8.5-12.27 16.14v.84h19.04z" stroke="#fff" stroke-opacity="0" fill="#232f3e"/><path d="M-1799.12 544.7c-6.17 0-11.17-5-11.17-11.14 0-6.16 5-11.15 11.18-11.15 6.16-.06 11.2 4.9 11.26 11.02.04 4.26-2.1 7.9-5.86 9.9-1.72.96-3.4 1.38-5.4 1.38zm0-18.9c-4.3 0-7.83 3.45-7.85 7.76 0 2.92 1.48 5.42 4.06 6.8 2.43 1.3 5.12 1.3 7.57 0 2.6-1.4 4.1-3.95 4.06-6.9-.05-4.27-3.57-7.68-7.85-7.64zM-1741.68 564.02h-20.75v-3.4h19.04v-.83c0-7.67-4.9-14.12-12.25-16.17-3.45 1.6-7 1.6-10.46 0-1.82.5-3.3 1.2-4.84 2.27l-1.94-2.8c2.07-1.44 4.08-2.35 6.5-2.97.44-.1.86-.05 1.26.17 2.7 1.46 5.7 1.46 8.42 0 .4-.22.8-.27 1.2-.17 9.25 2.23 15.5 10.17 15.5 19.66v2.53c0 .93-.76 1.67-1.68 1.7z" stroke="#fff" stroke-opacity="0" fill="#232f3e"/><path d="M-1760.92 544.7c-6.2 0-11.23-5.05-11.23-11.25s5.06-11.2 11.28-11.2c6.2 0 11.23 5.04 11.23 11.25 0 4.22-2.14 7.8-5.85 9.83-1.75.95-3.44 1.37-5.42 1.37zm0-18.9c-4.3 0-7.8 3.45-7.83 7.76-.02 2.92 1.46 5.42 4.05 6.8 2.43 1.3 5.13 1.3 7.6 0 2.62-1.4 4.13-3.97 4.08-6.96-.1-4.26-3.62-7.68-7.9-7.6zM-1752.8 602.24h-54.46c-.92 0-1.67-.75-1.67-1.7v-3.6c-.06-13.1 8.6-24.1 21.33-27.18.46-.13.86-.06 1.27.13 4.04 2.17 8.5 2.17 12.6 0 .34-.2.75-.27 1.2-.14 12.78 3.06 21.45 14.06 21.4 27.18v3.6c0 .95-.76 1.7-1.68 1.7zm-52.72-3.38h50.97v-1.92c0-11.27-7.28-20.74-18.2-23.66-4.8 2.3-9.83 2.3-14.62 0-10.93 2.93-18.15 12.4-18.15 23.66z" stroke="#fff" stroke-opacity="0" fill="#232f3e"/><path d="M-1779.98 574.88c-2.7 0-5-.58-7.4-1.86-7.4-4.07-10.13-13.34-6.1-20.77 4.1-7.4 13.38-10.13 20.83-6.1 7.42 4.08 10.15 13.35 6.1 20.78-1.47 2.7-3.4 4.62-6.1 6.1-2.36 1.27-4.66 1.85-7.33 1.85zm0-26.76c-4.44-.06-8.28 2.17-10.42 6.1-3.07 5.64-.98 12.74 4.7 15.83 3.67 1.96 7.72 1.96 11.4 0 3.95-2.14 6.22-5.96 6.16-10.43-.1-6.42-5.4-11.6-11.84-11.5z" stroke="#fff" stroke-opacity="0" fill="#232f3e"/><path d="M-1741.22 564.02h-39.72c-.68 0-1.23-.54-1.23-1.23v-2.65c-.04-9.54 6.3-17.57 15.56-19.82.33-.1.63-.05.92.1 2.95 1.58 6.2 1.58 9.2 0 .25-.15.54-.2.88-.1 9.32 2.23 15.64 10.25 15.6 19.82v2.64c0 .68-.55 1.23-1.22 1.23zm-38.46-2.47h37.2v-1.4c0-8.2-5.32-15.12-13.3-17.26-3.5 1.68-7.16 1.68-10.66 0-7.97 2.13-13.24 9.04-13.24 17.25z" stroke="#fff" stroke-opacity="0" stroke-width=".73" fill="#fff" fill-opacity="0"/><path d="M-1779.06 564.02h-39.72c-.67 0-1.22-.54-1.22-1.23v-2.65c-.04-9.54 6.28-17.57 15.56-19.82.34-.1.63-.05.93.1 2.94 1.58 6.18 1.58 9.18 0 .25-.15.55-.2.88-.1 9.32 2.23 15.65 10.25 15.6 19.82v2.64c0 .68-.54 1.23-1.22 1.23zm-38.45-2.47h37.18v-1.4c0-8.2-5.3-15.12-13.28-17.26-3.5 1.68-7.17 1.68-10.67 0-7.97 2.13-13.24 9.04-13.24 17.25z" stroke="#fff" stroke-opacity="0" stroke-width=".73" fill="#fff" fill-opacity="0"/><path d="M-1715.1 562.74h-24.4v-1h24.4zm218.22 0h-89.55v-1h89.55z" stroke="#3a414a" stroke-width=".05" fill="#3a414a"/><path d="M-1739.48 562.74h-.52v-1h.52z" fill="#3a414a"/><path d="M-1739.46 562.76h-.57v-1.04h.57zm-.5-1v.96h.45v-.96z" stroke="#3a414a" stroke-width=".05" fill="#3a414a"/><path d="M-1482.12 562.24l-14.26 4.64v-9.27z" fill="#3a414a"/><path d="M-1480.5 562.24l-16.38 5.32v-10.64zm-15.38 3.95l12.14-3.96-12.14-3.95z" stroke="#3a414a" stroke-width=".05" fill="#3a414a"/><use xlink:href="#i" transform="matrix(1,0,0,1,-1715.096168786735,530.2404717933125) translate(0.0049999999999954525 21.333333333333336)"/><use xlink:href="#j" transform="matrix(1,0,0,1,-1715.096168786735,530.2404717933125) translate(27.301296296296286 53.333333333333336)"/><path d="M-871.74 564.02h-20.74c-.95 0-1.7-.76-1.7-1.7v-2.54c0-9.48 6.23-17.44 15.48-19.67.43-.08.82-.03 1.22.18 2.72 1.46 5.67 1.46 8.4 0 .4-.2.78-.26 1.2-.17 2.44.6 4.44 1.48 6.5 2.87l-1.9 2.82c-1.54-1-2.98-1.68-4.8-2.16-3.43 1.58-6.97 1.58-10.42 0-7.38 2.06-12.27 8.5-12.27 16.14v.84h19.03z" stroke="#fff" stroke-opacity="0" fill="#232f3e"/><path d="M-873.3 544.7c-6.18 0-11.18-5-11.18-11.14 0-6.16 5-11.15 11.17-11.15 6.16-.06 11.18 4.9 11.25 11.02.05 4.26-2.1 7.9-5.85 9.9-1.73.96-3.4 1.38-5.4 1.38zm0-18.9c-4.32 0-7.84 3.45-7.86 7.76 0 2.92 1.48 5.42 4.06 6.8 2.45 1.3 5.14 1.3 7.58 0 2.6-1.4 4.1-3.95 4.06-6.9-.04-4.27-3.56-7.68-7.85-7.64zM-815.86 564.02h-20.75v-3.4h19.03v-.83c0-7.67-4.9-14.12-12.27-16.17-3.45 1.6-7 1.6-10.45 0-1.8.5-3.28 1.2-4.83 2.27l-1.94-2.8c2.07-1.44 4.08-2.35 6.5-2.97.44-.1.87-.05 1.26.17 2.7 1.46 5.68 1.46 8.4 0 .4-.22.8-.27 1.23-.17 9.24 2.23 15.48 10.17 15.48 19.66v2.53c0 .93-.74 1.67-1.66 1.7z" stroke="#fff" stroke-opacity="0" fill="#232f3e"/><path d="M-835.1 544.7c-6.22 0-11.24-5.05-11.24-11.25s5.07-11.2 11.28-11.2c6.2 0 11.23 5.04 11.23 11.25 0 4.22-2.13 7.8-5.85 9.83-1.75.95-3.44 1.37-5.42 1.37zm0-18.9c-4.3 0-7.8 3.45-7.84 7.76-.02 2.92 1.47 5.42 4.06 6.8 2.43 1.3 5.13 1.3 7.58 0 2.63-1.4 4.14-3.97 4.1-6.96-.1-4.26-3.63-7.68-7.9-7.6zM-827 602.24h-54.44c-.93 0-1.68-.75-1.68-1.7v-3.6c-.05-13.1 8.6-24.1 21.33-27.18.47-.13.88-.06 1.28.13 4.05 2.17 8.5 2.17 12.6 0 .35-.2.75-.27 1.2-.14 12.8 3.06 21.46 14.06 21.4 27.18v3.6c0 .95-.75 1.7-1.68 1.7zm-52.7-3.38h50.97v-1.92c0-11.27-7.28-20.74-18.2-23.66-4.8 2.3-9.83 2.3-14.63 0-10.92 2.93-18.15 12.4-18.15 23.66z" stroke="#fff" stroke-opacity="0" fill="#232f3e"/><path d="M-854.16 574.88c-2.7 0-5-.58-7.4-1.86-7.4-4.07-10.14-13.34-6.1-20.77 4.08-7.4 13.37-10.13 20.82-6.1 7.42 4.08 10.15 13.35 6.1 20.78-1.47 2.7-3.4 4.62-6.1 6.1-2.36 1.27-4.66 1.85-7.32 1.85zm0-26.76c-4.45-.06-8.28 2.17-10.43 6.1-3.05 5.64-.97 12.74 4.7 15.83 3.68 1.96 7.73 1.96 11.4 0 3.96-2.14 6.23-5.96 6.17-10.43-.1-6.42-5.4-11.6-11.83-11.5z" stroke="#fff" stroke-opacity="0" fill="#232f3e"/><path d="M-815.4 564.02h-39.73c-.67 0-1.22-.54-1.22-1.23v-2.65c-.04-9.54 6.28-17.57 15.56-19.82.34-.1.64-.05.93.1 2.96 1.58 6.2 1.58 9.2 0 .25-.15.54-.2.88-.1 9.33 2.23 15.66 10.25 15.6 19.82v2.64c0 .68-.53 1.23-1.2 1.23zm-38.46-2.47h37.2v-1.4c0-8.2-5.33-15.12-13.3-17.26-3.5 1.68-7.16 1.68-10.66 0-7.97 2.13-13.24 9.04-13.24 17.25z" stroke="#fff" stroke-opacity="0" stroke-width=".73" fill="#fff" fill-opacity="0"/><path d="M-853.24 564.02h-39.72c-.68 0-1.23-.54-1.23-1.23v-2.65c-.03-9.54 6.3-17.57 15.57-19.82.34-.1.64-.05.93.1 2.95 1.58 6.2 1.58 9.2 0 .25-.15.54-.2.88-.1 9.32 2.23 15.64 10.25 15.6 19.82v2.64c0 .68-.55 1.23-1.22 1.23zm-38.46-2.47h37.2v-1.4c0-8.2-5.32-15.12-13.3-17.26-3.5 1.68-7.16 1.68-10.66 0-7.97 2.13-13.24 9.04-13.24 17.25z" stroke="#fff" stroke-opacity="0" stroke-width=".73" fill="#fff" fill-opacity="0"/><path d="M-1118.4 562.74H-1239v-1h120.6zm207.83 0h-49.33v-1h49.33z" stroke="#3a414a" stroke-width=".05" fill="#3a414a"/><path d="M-1238.98 562.74h-.52v-1h.52z" fill="#3a414a"/><path d="M-1238.96 562.76h-.57v-1.04h.57zm-.5-1v.96h.45v-.96z" stroke="#3a414a" stroke-width=".05" fill="#3a414a"/><path d="M-895.8 562.24l-14.27 4.64v-9.27z" fill="#3a414a"/><path d="M-894.2 562.24l-16.37 5.32v-10.64zm-15.37 3.95l12.15-3.96-12.15-3.95z" stroke="#3a414a" stroke-width=".05" fill="#3a414a"/><use xlink:href="#k" transform="matrix(1,0,0,1,-1118.4144983962497,530.2404717933125) translate(44.449444444444445 21.333333333333336)"/><use xlink:href="#l" transform="matrix(1,0,0,1,-1118.4144983962497,530.2404717933125) translate(0.0049999999999954525 53.333333333333336)"/><use xlink:href="#m" transform="matrix(1,0,0,1,-1118.4144983962497,530.2404717933125) translate(114.07907407407409 53.333333333333336)"/><path d="M-934.2 126a6 6 0 0 1 6-6h148a6 6 0 0 1 6 6v148a6 6 0 0 1-6 6h-148a6 6 0 0 1-6-6z" stroke="#3a414a" fill="#fff"/><use xlink:href="#n" transform="matrix(1,0,0,1,-929.1857230800417,125) translate(47.26234567901235 80.49305555555556)"/><path d="M-1114.15 444.34l-11.44 23.12-8.7 15.9-7.3 12.06-6.4 9.64-5.75 7.93-5.28 6.65-4.9 5.7-4.6 4.9-4.36 4.27-4.15 3.75-4 3.3-3.87 2.95-3.76 2.6-3.67 2.35-3.6 2.08-3.56 1.86-3.53 1.66-3.5 1.47-3.5 1.3-3.5 1.14-3.5.98-3.57.84-3.6.68-3.7.54-3.75.4-3.86.24-3.48.07-.03-1 3.44-.07 3.83-.24 3.7-.4 3.65-.53 3.57-.7 3.5-.82 3.5-.97 3.45-1.1 3.45-1.3 3.46-1.45 3.48-1.64 3.52-1.83 3.57-2.06 3.63-2.3 3.73-2.6 3.82-2.9 3.97-3.3 4.12-3.7 4.34-4.25 4.57-4.88 4.87-5.65 5.25-6.63 5.73-7.9 6.38-9.62 7.28-12.03 8.7-15.85 11.4-23.08 37.64-84.47h1.1zm163.26-242.38l-2.48.47-3.5.83-3.5.97-3.46 1.12-3.45 1.3-3.45 1.44-3.48 1.63-3.52 1.84-3.56 2.06-3.65 2.3-3.72 2.6-3.84 2.9-3.98 3.3-4.13 3.72-4.34 4.25-4.58 4.87-4.87 5.65-5.24 6.63-5.73 7.9-6.37 9.6-7.28 12.04-5.88 10.72h-1.14l6.15-11.23 7.3-12.08 6.4-9.64 5.76-7.93 5.28-6.66 4.9-5.7 4.6-4.9 4.37-4.28 4.17-3.75 4-3.3 3.87-2.95 3.76-2.6 3.67-2.34 3.6-2.1 3.56-1.84 3.5-1.66 3.5-1.47 3.5-1.3 3.5-1.13 3.53-.98 3.56-.85 2.5-.48z" stroke="#3a414a" stroke-width=".05" fill="#3a414a"/><path d="M-1238.97 562.73h-.53v-1h.5z" fill="#3a414a"/><path d="M-1238.95 562.75l-.58.02v-1.05l.56-.02zm-.52-1v.97h.47l-.02-.97z" stroke="#3a414a" stroke-width=".05" fill="#3a414a"/><path d="M-936.3 200.15l-13.8 5.9-.82-9.24z" fill="#3a414a"/><path d="M-934.7 200l-15.83 6.77-.95-10.6zm-14.95 5.3l11.74-5-12.46-2.85z" stroke="#3a414a" stroke-width=".05" fill="#3a414a"/><g><use xlink:href="#o" transform="matrix(1,0,0,1,-1210.280208895604,290.11496125554294) translate(0.0049999999999954525 23.11111111111111)"/><use xlink:href="#p" transform="matrix(1,0,0,1,-1210.280208895604,290.11496125554294) translate(115.15932098765431 23.11111111111111)"/><use xlink:href="#q" transform="matrix(1,0,0,1,-1210.280208895604,290.11496125554294) translate(212.90006172839506 23.11111111111111)"/><use xlink:href="#r" transform="matrix(1,0,0,1,-1210.280208895604,290.11496125554294) translate(27.93092592592592 57.77777777777777)"/><use xlink:href="#s" transform="matrix(1,0,0,1,-1210.280208895604,290.11496125554294) translate(93.57290123456791 57.77777777777777)"/><use xlink:href="#t" transform="matrix(1,0,0,1,-1210.280208895604,290.11496125554294) translate(135.22104938271605 57.77777777777777)"/><use xlink:href="#u" transform="matrix(1,0,0,1,-1210.280208895604,290.11496125554294) translate(210.5729012345679 57.77777777777777)"/></g><path d="M-853.7 543.9h-1v-72.22h1zm0-106.9h-1V296.9h1z" stroke="#3a414a" stroke-width=".05" fill="#3a414a"/><path d="M-853.7 544.4h-1v-.5h1z" fill="#3a414a"/><path d="M-853.66 544.44l-1.05-.02v-.56h1.04zm-1-.53v.47h.95v-.46z" stroke="#3a414a" stroke-width=".05" fill="#3a414a"/><path d="M-849.55 296.38h-9.27l4.63-14.26z" fill="#3a414a"/><path d="M-848.86 296.88h-10.65l5.3-16.38zm-9.27-1h7.9l-3.96-12.14z" stroke="#3a414a" stroke-width=".05" fill="#3a414a"/><g><use xlink:href="#v" transform="matrix(1,0,0,1,-970.4634799964049,437.01312995369153) translate(0.0049999999999954525 23.11111111111111)"/><use xlink:href="#w" transform="matrix(1,0,0,1,-970.4634799964049,437.01312995369153) translate(83.4617901234568 23.11111111111111)"/><use xlink:href="#x" transform="matrix(1,0,0,1,-970.4634799964049,437.01312995369153) translate(174.86302469135802 23.11111111111111)"/></g><defs><path fill="#3a414a" d="M199 0l-22-63H83L61 0H9l90-248h61L250 0h-51zm-33-102l-36-108c-10 38-24 72-36 108h72" id="y"/><path fill="#3a414a" d="M88-194c31-1 46 15 58 34l-1-101h50l1 261h-48c-2-10 0-23-3-31C134-8 116 4 84 4 32 4 16-41 15-95c0-56 19-97 73-99zm17 164c33 0 40-30 41-66 1-37-9-64-41-64s-38 30-39 65c0 43 13 65 39 65" id="z"/><g id="a"><use transform="matrix(0.11728395061728394,0,0,0.11728395061728394,0,0)" xlink:href="#y"/><use transform="matrix(0.11728395061728394,0,0,0.11728395061728394,30.37654320987654,0)" xlink:href="#z"/></g><path fill="#3a414a" d="M67-125c0 53 21 87 73 88 37 1 54-22 65-47l45 17C233-25 199 4 140 4 58 4 20-42 15-125 8-235 124-281 211-232c18 10 29 29 36 50l-46 12c-8-25-30-41-62-41-52 0-71 34-72 86" id="A"/><path fill="#3a414a" d="M25 0v-261h50V0H25" id="B"/><path fill="#3a414a" d="M25-224v-37h50v37H25zM25 0v-190h50V0H25" id="C"/><path fill="#3a414a" d="M190-63c-7 42-38 67-86 67-59 0-84-38-90-98-12-110 154-137 174-36l-49 2c-2-19-15-32-35-32-30 0-35 28-38 64-6 74 65 87 74 30" id="D"/><path fill="#3a414a" d="M147 0L96-86 75-71V0H25v-261h50v150l67-79h53l-66 74L201 0h-54" id="E"/><g id="b"><use transform="matrix(0.07407407407407407,0,0,0.07407407407407407,0,0)" xlink:href="#A"/><use transform="matrix(0.07407407407407407,0,0,0.07407407407407407,19.185185185185183,0)" xlink:href="#B"/><use transform="matrix(0.07407407407407407,0,0,0.07407407407407407,26.592592592592588,0)" xlink:href="#C"/><use transform="matrix(0.07407407407407407,0,0,0.07407407407407407,33.99999999999999,0)" xlink:href="#D"/><use transform="matrix(0.07407407407407407,0,0,0.07407407407407407,48.81481481481481,0)" xlink:href="#E"/></g><path fill="#3a414a" d="M115-3C79 11 28 4 28-45v-112H4v-33h27l15-45h31v45h36v33H77v99c-1 23 16 31 38 25v30" id="F"/><path fill="#3a414a" d="M110-194c64 0 96 36 96 99 0 64-35 99-97 99-61 0-95-36-95-99 0-62 34-99 96-99zm-1 164c35 0 45-28 45-65 0-40-10-65-43-65-34 0-45 26-45 65 0 36 10 65 43 65" id="G"/><g id="c"><use transform="matrix(0.07407407407407407,0,0,0.07407407407407407,0,0)" xlink:href="#F"/><use transform="matrix(0.07407407407407407,0,0,0.07407407407407407,8.814814814814815,0)" xlink:href="#G"/></g><path fill="#3a414a" d="M133-34C117-15 103 5 69 4 32 3 11-16 11-54c-1-60 55-63 116-61 1-26-3-47-28-47-18 1-26 9-28 27l-52-2c7-38 36-58 82-57s74 22 75 68l1 82c-1 14 12 18 25 15v27c-30 8-71 5-69-32zm-48 3c29 0 43-24 42-57-32 0-66-3-65 30 0 17 8 27 23 27" id="H"/><g id="d"><use transform="matrix(0.07407407407407407,0,0,0.07407407407407407,0,0)" xlink:href="#D"/><use transform="matrix(0.07407407407407407,0,0,0.07407407407407407,14.814814814814813,0)" xlink:href="#H"/><use transform="matrix(0.07407407407407407,0,0,0.07407407407407407,29.629629629629626,0)" xlink:href="#B"/><use transform="matrix(0.07407407407407407,0,0,0.07407407407407407,37.03703703703703,0)" xlink:href="#B"/></g><g id="e"><use transform="matrix(0.07407407407407407,0,0,0.07407407407407407,0,0)" xlink:href="#H"/><use transform="matrix(0.07407407407407407,0,0,0.07407407407407407,14.814814814814813,0)" xlink:href="#z"/></g><path fill="#3a414a" d="M185-48c-13 30-37 53-82 52C43 2 14-33 14-96s30-98 90-98c62 0 83 45 84 108H66c0 31 8 55 39 56 18 0 30-7 34-22zm-45-69c5-46-57-63-70-21-2 6-4 13-4 21h74" id="I"/><path fill="#3a414a" d="M144 0l-44-69L55 0H2l70-98-66-92h53l41 62 40-62h54l-67 91 71 99h-54" id="J"/><path fill="#3a414a" d="M135-194c87-1 58 113 63 194h-50c-7-57 23-157-34-157-59 0-34 97-39 157H25l-1-190h47c2 12-1 28 3 38 12-26 28-41 61-42" id="K"/><path fill="#3a414a" d="M137-138c1-29-70-34-71-4 15 46 118 7 119 86 1 83-164 76-172 9l43-7c4 19 20 25 44 25 33 8 57-30 24-41C81-84 22-81 20-136c-2-80 154-74 161-7" id="L"/><g id="f"><use transform="matrix(0.07407407407407407,0,0,0.07407407407407407,0,0)" xlink:href="#I"/><use transform="matrix(0.07407407407407407,0,0,0.07407407407407407,14.814814814814813,0)" xlink:href="#J"/><use transform="matrix(0.07407407407407407,0,0,0.07407407407407407,29.629629629629626,0)" xlink:href="#F"/><use transform="matrix(0.07407407407407407,0,0,0.07407407407407407,38.44444444444444,0)" xlink:href="#I"/><use transform="matrix(0.07407407407407407,0,0,0.07407407407407407,53.25925925925926,0)" xlink:href="#K"/><use transform="matrix(0.07407407407407407,0,0,0.07407407407407407,69.48148148148147,0)" xlink:href="#L"/><use transform="matrix(0.07407407407407407,0,0,0.07407407407407407,84.29629629629628,0)" xlink:href="#C"/><use transform="matrix(0.07407407407407407,0,0,0.07407407407407407,91.70370370370368,0)" xlink:href="#G"/><use transform="matrix(0.07407407407407407,0,0,0.07407407407407407,107.92592592592591,0)" xlink:href="#K"/></g><path fill="#3a414a" d="M67-93c0 74 22 123 53 168H70C40 30 18-18 18-93s22-123 52-168h50c-32 44-53 94-53 168" id="M"/><path fill="#3a414a" d="M231 0h-52l-39-155L100 0H48L-1-190h46L77-45c9-52 24-97 36-145h53l37 145 32-145h46" id="N"/><path fill="#3a414a" d="M114-157C55-157 80-60 75 0H25v-261h50l-1 109c12-26 28-41 61-42 86-1 58 113 63 194h-50c-7-57 23-157-34-157" id="O"/><g id="g"><use transform="matrix(0.07407407407407407,0,0,0.07407407407407407,0,0)" xlink:href="#M"/><use transform="matrix(0.07407407407407407,0,0,0.07407407407407407,8.814814814814815,0)" xlink:href="#N"/><use transform="matrix(0.07407407407407407,0,0,0.07407407407407407,29.555555555555557,0)" xlink:href="#C"/><use transform="matrix(0.07407407407407407,0,0,0.07407407407407407,36.96296296296296,0)" xlink:href="#F"/><use transform="matrix(0.07407407407407407,0,0,0.07407407407407407,45.77777777777778,0)" xlink:href="#O"/></g><path fill="#3a414a" d="M135-150c-39-12-60 13-60 57V0H25l-1-190h47c2 13-1 29 3 40 6-28 27-53 61-41v41" id="P"/><path fill="#3a414a" d="M195-6C206 82 75 100 31 46c-4-6-6-13-8-21l49-6c3 16 16 24 34 25 40 0 42-37 40-79-11 22-30 35-61 35-53 0-70-43-70-97 0-56 18-96 73-97 30 0 46 14 59 34l2-30h47zm-90-29c32 0 41-27 41-63 0-35-9-62-40-62-32 0-39 29-40 63 0 36 9 62 39 62" id="Q"/><path fill="#3a414a" d="M102-93c0 74-22 123-52 168H0C30 29 54-18 53-93c0-74-22-123-53-168h50c30 45 52 94 52 168" id="R"/><g id="h"><use transform="matrix(0.07407407407407407,0,0,0.07407407407407407,0,0)" xlink:href="#F"/><use transform="matrix(0.07407407407407407,0,0,0.07407407407407407,8.814814814814815,0)" xlink:href="#P"/><use transform="matrix(0.07407407407407407,0,0,0.07407407407407407,19.185185185185183,0)" xlink:href="#H"/><use transform="matrix(0.07407407407407407,0,0,0.07407407407407407,34,0)" xlink:href="#D"/><use transform="matrix(0.07407407407407407,0,0,0.07407407407407407,48.81481481481481,0)" xlink:href="#E"/><use transform="matrix(0.07407407407407407,0,0,0.07407407407407407,63.62962962962962,0)" xlink:href="#C"/><use transform="matrix(0.07407407407407407,0,0,0.07407407407407407,71.03703703703702,0)" xlink:href="#K"/><use transform="matrix(0.07407407407407407,0,0,0.07407407407407407,87.25925925925924,0)" xlink:href="#Q"/><use transform="matrix(0.07407407407407407,0,0,0.07407407407407407,103.48148148148145,0)" xlink:href="#R"/></g><path fill="#333" d="M24-248c93 1 206-16 204 79-1 75-69 88-152 82V0H24v-248zm52 121c47 0 100 7 100-41 0-47-54-39-100-39v80" id="S"/><path fill="#333" d="M135-150c-39-12-60 13-60 57V0H25l-1-190h47c2 13-1 29 3 40 6-28 27-53 61-41v41" id="T"/><path fill="#333" d="M110-194c64 0 96 36 96 99 0 64-35 99-97 99-61 0-95-36-95-99 0-62 34-99 96-99zm-1 164c35 0 45-28 45-65 0-40-10-65-43-65-34 0-45 26-45 65 0 36 10 65 43 65" id="U"/><path fill="#333" d="M137-138c1-29-70-34-71-4 15 46 118 7 119 86 1 83-164 76-172 9l43-7c4 19 20 25 44 25 33 8 57-30 24-41C81-84 22-81 20-136c-2-80 154-74 161-7" id="V"/><path fill="#333" d="M135-194c53 0 70 44 70 98 0 56-19 98-73 100-31 1-45-17-59-34 3 33 2 69 2 105H25l-1-265h48c2 10 0 23 3 31 11-24 29-35 60-35zM114-30c33 0 39-31 40-66 0-38-9-64-40-64-56 0-55 130 0 130" id="W"/><path fill="#333" d="M185-48c-13 30-37 53-82 52C43 2 14-33 14-96s30-98 90-98c62 0 83 45 84 108H66c0 31 8 55 39 56 18 0 30-7 34-22zm-45-69c5-46-57-63-70-21-2 6-4 13-4 21h74" id="X"/><path fill="#333" d="M190-63c-7 42-38 67-86 67-59 0-84-38-90-98-12-110 154-137 174-36l-49 2c-2-19-15-32-35-32-30 0-35 28-38 64-6 74 65 87 74 30" id="Y"/><path fill="#333" d="M115-3C79 11 28 4 28-45v-112H4v-33h27l15-45h31v45h36v33H77v99c-1 23 16 31 38 25v30" id="Z"/><g id="i"><use transform="matrix(0.07407407407407408,0,0,0.07407407407407408,0,0)" xlink:href="#S"/><use transform="matrix(0.07407407407407408,0,0,0.07407407407407408,17.77777777777778,0)" xlink:href="#T"/><use transform="matrix(0.07407407407407408,0,0,0.07407407407407408,28.148148148148152,0)" xlink:href="#U"/><use transform="matrix(0.07407407407407408,0,0,0.07407407407407408,44.37037037037039,0)" xlink:href="#V"/><use transform="matrix(0.07407407407407408,0,0,0.07407407407407408,59.185185185185205,0)" xlink:href="#W"/><use transform="matrix(0.07407407407407408,0,0,0.07407407407407408,75.40740740740742,0)" xlink:href="#X"/><use transform="matrix(0.07407407407407408,0,0,0.07407407407407408,90.22222222222223,0)" xlink:href="#Y"/><use transform="matrix(0.07407407407407408,0,0,0.07407407407407408,105.03703703703704,0)" xlink:href="#Z"/><use transform="matrix(0.07407407407407408,0,0,0.07407407407407408,113.85185185185185,0)" xlink:href="#V"/></g><path fill="#333" d="M25 0v-261h50V0H25" id="aa"/><path fill="#333" d="M25-224v-37h50v37H25zM25 0v-190h50V0H25" id="ab"/><path fill="#333" d="M147 0L96-86 75-71V0H25v-261h50v150l67-79h53l-66 74L201 0h-54" id="ac"/><g id="j"><use transform="matrix(0.07407407407407408,0,0,0.07407407407407408,0,0)" xlink:href="#Y"/><use transform="matrix(0.07407407407407408,0,0,0.07407407407407408,14.814814814814817,0)" xlink:href="#aa"/><use transform="matrix(0.07407407407407408,0,0,0.07407407407407408,22.222222222222225,0)" xlink:href="#ab"/><use transform="matrix(0.07407407407407408,0,0,0.07407407407407408,29.629629629629633,0)" xlink:href="#Y"/><use transform="matrix(0.07407407407407408,0,0,0.07407407407407408,44.44444444444445,0)" xlink:href="#ac"/><use transform="matrix(0.07407407407407408,0,0,0.07407407407407408,59.25925925925927,0)" xlink:href="#V"/></g><path fill="#333" d="M169-182c-1-43-94-46-97-3 18 66 151 10 154 114 3 95-165 93-204 36-6-8-10-19-12-30l50-8c3 46 112 56 116 5-17-69-150-10-154-114-4-87 153-88 188-35 5 8 8 18 10 28" id="ad"/><path fill="#333" d="M133-34C117-15 103 5 69 4 32 3 11-16 11-54c-1-60 55-63 116-61 1-26-3-47-28-47-18 1-26 9-28 27l-52-2c7-38 36-58 82-57s74 22 75 68l1 82c-1 14 12 18 25 15v27c-30 8-71 5-69-32zm-48 3c29 0 43-24 42-57-32 0-66-3-65 30 0 17 8 27 23 27" id="ae"/><g id="k"><use transform="matrix(0.07407407407407408,0,0,0.07407407407407408,0,0)" xlink:href="#ad"/><use transform="matrix(0.07407407407407408,0,0,0.07407407407407408,17.77777777777778,0)" xlink:href="#ae"/><use transform="matrix(0.07407407407407408,0,0,0.07407407407407408,32.592592592592595,0)" xlink:href="#aa"/><use transform="matrix(0.07407407407407408,0,0,0.07407407407407408,40,0)" xlink:href="#X"/><use transform="matrix(0.07407407407407408,0,0,0.07407407407407408,54.81481481481482,0)" xlink:href="#V"/></g><path fill="#333" d="M128 0H69L1-190h53L99-40l48-150h52" id="af"/><g id="l"><use transform="matrix(0.07407407407407408,0,0,0.07407407407407408,0,0)" xlink:href="#T"/><use transform="matrix(0.07407407407407408,0,0,0.07407407407407408,10.370370370370372,0)" xlink:href="#X"/><use transform="matrix(0.07407407407407408,0,0,0.07407407407407408,25.185185185185187,0)" xlink:href="#Y"/><use transform="matrix(0.07407407407407408,0,0,0.07407407407407408,40.00000000000001,0)" xlink:href="#ab"/><use transform="matrix(0.07407407407407408,0,0,0.07407407407407408,47.40740740740742,0)" xlink:href="#X"/><use transform="matrix(0.07407407407407408,0,0,0.07407407407407408,62.222222222222236,0)" xlink:href="#af"/><use transform="matrix(0.07407407407407408,0,0,0.07407407407407408,77.03703703703705,0)" xlink:href="#X"/><use transform="matrix(0.07407407407407408,0,0,0.07407407407407408,91.85185185185188,0)" xlink:href="#V"/></g><g id="m"><use transform="matrix(0.07407407407407408,0,0,0.07407407407407408,0,0)" xlink:href="#Y"/><use transform="matrix(0.07407407407407408,0,0,0.07407407407407408,14.814814814814817,0)" xlink:href="#ae"/><use transform="matrix(0.07407407407407408,0,0,0.07407407407407408,29.629629629629633,0)" xlink:href="#aa"/><use transform="matrix(0.07407407407407408,0,0,0.07407407407407408,37.03703703703704,0)" xlink:href="#aa"/></g><path fill="#3a414a" d="M212-179c-10-28-35-45-73-45-59 0-87 40-87 99 0 60 29 101 89 101 43 0 62-24 78-52l27 14C228-24 195 4 139 4 59 4 22-46 18-125c-6-104 99-153 187-111 19 9 31 26 39 46" id="ag"/><path fill="#3a414a" d="M233-177c-1 41-23 64-60 70L243 0h-38l-65-103H63V0H30v-248c88 3 205-21 203 71zM63-129c60-2 137 13 137-47 0-61-80-42-137-45v92" id="ah"/><path fill="#3a414a" d="M240 0l2-218c-23 76-54 145-80 218h-23L58-218 59 0H30v-248h44l77 211c21-75 51-140 76-211h43V0h-30" id="ai"/><g id="n"><use transform="matrix(0.06790123456790123,0,0,0.06790123456790123,0,0)" xlink:href="#ag"/><use transform="matrix(0.06790123456790123,0,0,0.06790123456790123,17.586419753086417,0)" xlink:href="#ah"/><use transform="matrix(0.06790123456790123,0,0,0.06790123456790123,35.172839506172835,0)" xlink:href="#ai"/></g><path fill="#333" d="M67-125c0 53 21 87 73 88 37 1 54-22 65-47l45 17C233-25 199 4 140 4 58 4 20-42 15-125 8-235 124-281 211-232c18 10 29 29 36 50l-46 12c-8-25-30-41-62-41-52 0-71 34-72 86" id="aj"/><path fill="#333" d="M135-194c87-1 58 113 63 194h-50c-7-57 23-157-34-157-59 0-34 97-39 157H25l-1-190h47c2 12-1 28 3 38 12-26 28-41 61-42" id="ak"/><g id="o"><use transform="matrix(0.08024691358024691,0,0,0.08024691358024691,0,0)" xlink:href="#aj"/><use transform="matrix(0.08024691358024691,0,0,0.08024691358024691,20.78395061728395,0)" xlink:href="#U"/><use transform="matrix(0.08024691358024691,0,0,0.08024691358024691,38.358024691358025,0)" xlink:href="#ak"/><use transform="matrix(0.08024691358024691,0,0,0.08024691358024691,55.9320987654321,0)" xlink:href="#Z"/><use transform="matrix(0.08024691358024691,0,0,0.08024691358024691,65.48148148148148,0)" xlink:href="#ae"/><use transform="matrix(0.08024691358024691,0,0,0.08024691358024691,81.53086419753086,0)" xlink:href="#Y"/><use transform="matrix(0.08024691358024691,0,0,0.08024691358024691,97.58024691358024,0)" xlink:href="#Z"/></g><path fill="#333" d="M88-194c31-1 46 15 58 34l-1-101h50l1 261h-48c-2-10 0-23-3-31C134-8 116 4 84 4 32 4 16-41 15-95c0-56 19-97 73-99zm17 164c33 0 40-30 41-66 1-37-9-64-41-64s-38 30-39 65c0 43 13 65 39 65" id="al"/><g id="p"><use transform="matrix(0.08024691358024691,0,0,0.08024691358024691,0,0)" xlink:href="#T"/><use transform="matrix(0.08024691358024691,0,0,0.08024691358024691,11.234567901234568,0)" xlink:href="#X"/><use transform="matrix(0.08024691358024691,0,0,0.08024691358024691,27.28395061728395,0)" xlink:href="#Y"/><use transform="matrix(0.08024691358024691,0,0,0.08024691358024691,43.33333333333333,0)" xlink:href="#U"/><use transform="matrix(0.08024691358024691,0,0,0.08024691358024691,60.907407407407405,0)" xlink:href="#T"/><use transform="matrix(0.08024691358024691,0,0,0.08024691358024691,72.14197530864197,0)" xlink:href="#al"/></g><g id="q"><use transform="matrix(0.08024691358024691,0,0,0.08024691358024691,0,0)" xlink:href="#ae"/><use transform="matrix(0.08024691358024691,0,0,0.08024691358024691,16.049382716049383,0)" xlink:href="#al"/><use transform="matrix(0.08024691358024691,0,0,0.08024691358024691,33.623456790123456,0)" xlink:href="#al"/><use transform="matrix(0.08024691358024691,0,0,0.08024691358024691,51.197530864197525,0)" xlink:href="#X"/><use transform="matrix(0.08024691358024691,0,0,0.08024691358024691,67.24691358024691,0)" xlink:href="#al"/></g><path fill="#333" d="M231 0h-52l-39-155L100 0H48L-1-190h46L77-45c9-52 24-97 36-145h53l37 145 32-145h46" id="am"/><path fill="#333" d="M114-157C55-157 80-60 75 0H25v-261h50l-1 109c12-26 28-41 61-42 86-1 58 113 63 194h-50c-7-57 23-157-34-157" id="an"/><g id="r"><use transform="matrix(0.08024691358024691,0,0,0.08024691358024691,0,0)" xlink:href="#am"/><use transform="matrix(0.08024691358024691,0,0,0.08024691358024691,22.469135802469136,0)" xlink:href="#ab"/><use transform="matrix(0.08024691358024691,0,0,0.08024691358024691,30.49382716049383,0)" xlink:href="#Z"/><use transform="matrix(0.08024691358024691,0,0,0.08024691358024691,40.043209876543216,0)" xlink:href="#an"/></g><g id="s"><use transform="matrix(0.08024691358024691,0,0,0.08024691358024691,0,0)" xlink:href="#ae"/><use transform="matrix(0.08024691358024691,0,0,0.08024691358024691,16.049382716049383,0)" xlink:href="#al"/></g><path fill="#333" d="M220-157c-53 9-28 100-34 157h-49v-107c1-27-5-49-29-50C55-147 81-57 75 0H25l-1-190h47c2 12-1 28 3 38 10-53 101-56 108 0 13-22 24-43 59-42 82 1 51 116 57 194h-49v-107c-1-25-5-48-29-50" id="ao"/><g id="t"><use transform="matrix(0.08024691358024691,0,0,0.08024691358024691,0,0)" xlink:href="#ao"/><use transform="matrix(0.08024691358024691,0,0,0.08024691358024691,25.679012345679013,0)" xlink:href="#X"/><use transform="matrix(0.08024691358024691,0,0,0.08024691358024691,41.72839506172839,0)" xlink:href="#Z"/><use transform="matrix(0.08024691358024691,0,0,0.08024691358024691,51.27777777777777,0)" xlink:href="#ae"/></g><g id="u"><use transform="matrix(0.08024691358024691,0,0,0.08024691358024691,0,0)" xlink:href="#al"/><use transform="matrix(0.08024691358024691,0,0,0.08024691358024691,17.574074074074073,0)" xlink:href="#ae"/><use transform="matrix(0.08024691358024691,0,0,0.08024691358024691,33.623456790123456,0)" xlink:href="#Z"/><use transform="matrix(0.08024691358024691,0,0,0.08024691358024691,43.172839506172835,0)" xlink:href="#ae"/></g><g id="v"><use transform="matrix(0.08024691358024691,0,0,0.08024691358024691,0,0)" xlink:href="#ad"/><use transform="matrix(0.08024691358024691,0,0,0.08024691358024691,19.25925925925926,0)" xlink:href="#ae"/><use transform="matrix(0.08024691358024691,0,0,0.08024691358024691,35.308641975308646,0)" xlink:href="#aa"/><use transform="matrix(0.08024691358024691,0,0,0.08024691358024691,43.33333333333334,0)" xlink:href="#X"/><use transform="matrix(0.08024691358024691,0,0,0.08024691358024691,59.38271604938272,0)" xlink:href="#V"/></g><g id="w"><use transform="matrix(0.08024691358024691,0,0,0.08024691358024691,0,0)" xlink:href="#am"/><use transform="matrix(0.08024691358024691,0,0,0.08024691358024691,22.469135802469136,0)" xlink:href="#U"/><use transform="matrix(0.08024691358024691,0,0,0.08024691358024691,40.04320987654321,0)" xlink:href="#T"/><use transform="matrix(0.08024691358024691,0,0,0.08024691358024691,51.27777777777777,0)" xlink:href="#ac"/><use transform="matrix(0.08024691358024691,0,0,0.08024691358024691,67.32716049382717,0)" xlink:href="#V"/></g><g id="x"><use transform="matrix(0.08024691358024691,0,0,0.08024691358024691,0,0)" xlink:href="#al"/><use transform="matrix(0.08024691358024691,0,0,0.08024691358024691,17.574074074074073,0)" xlink:href="#X"/><use transform="matrix(0.08024691358024691,0,0,0.08024691358024691,33.623456790123456,0)" xlink:href="#ae"/><use transform="matrix(0.08024691358024691,0,0,0.08024691358024691,49.672839506172835,0)" xlink:href="#aa"/></g></defs></g></svg>