<svg width="375" height="142" viewBox="0 0 375 142" fill="none" xmlns="http://www.w3.org/2000/svg">
<g filter="url(#filter0_dd_43_4170)">
<rect x="8.5" width="358" height="124" rx="24" fill="url(#paint0_linear_43_4170)" shape-rendering="crispEdges"/>
<g clip-path="url(#clip0_43_4170)">
<path d="M78.5335 62.0229C78.5335 61.9607 78.5335 61.8928 78.5335 61.8306C78.5335 58.5377 81.2155 55.8219 84.5027 55.7767C87.8068 55.8163 90.5 58.5434 90.5 61.8476C90.5 61.9042 90.5 61.9664 90.5 62.0229C90.5 62.0795 90.5 62.1361 90.5 62.1927C90.5 65.4912 87.8012 68.2069 84.5027 68.2239C81.2211 68.2013 78.5335 65.4968 78.5335 62.2153C78.5335 62.1474 78.5335 62.0852 78.5335 62.0229ZM81.5776 62.0456C81.5776 64.0541 82.8902 65.4346 84.5027 65.4346C86.1151 65.4346 87.4332 64.0541 87.4332 62.0456C87.4332 59.9975 86.1151 58.566 84.5027 58.566C82.8902 58.566 81.5776 59.9975 81.5776 62.0456ZM52.8075 63.0131V56.0766L48.5075 61.8362L46.782 59.5221L49.3507 56.0766H55.8514V63.0131C55.8514 63.6863 56.0834 65.3441 58.0637 65.3441C58.0863 65.3441 58.1032 65.3441 58.1258 65.3441C59.3592 65.3441 60.3721 64.3313 60.3721 63.0979C60.3721 63.0696 60.3721 63.0413 60.3721 63.0131V56.0766H63.4101V57.0723C64.1513 56.235 65.2207 55.7597 66.341 55.7767C67.7215 55.7484 69.0398 56.3765 69.8884 57.4628C70.7767 56.3765 72.1119 55.754 73.5094 55.7767C76.6891 55.7767 78.5335 57.8984 78.5335 61.0102V67.9467H75.4954V61.0102C75.4954 60.3199 75.2632 58.6566 73.2773 58.6566C73.2604 58.6566 73.2435 58.6566 73.2265 58.6566C71.9874 58.6566 70.9747 59.675 70.9747 60.9084C70.9747 60.9423 70.9747 60.9762 70.9747 61.0102V67.9467H67.9082V61.0102C67.9082 60.3199 67.7044 58.6566 65.6959 58.6566C65.6846 58.6566 65.6733 58.6566 65.6619 58.6566C64.4285 58.6566 63.4101 59.6749 63.4101 60.9027C63.4101 60.9423 63.4159 60.9762 63.4159 61.0102V67.9467H60.5135V66.8661C59.7554 67.743 58.6463 68.2409 57.4921 68.2239C54.6745 68.2239 52.8075 66.1249 52.8075 63.0131ZM49.6278 67.9523L46.782 64.1446L48.5075 61.8362L53.062 67.9523H49.6278Z" fill="black"/>
<path d="M44.2113 56.0771H40.7533L45.0572 61.8368H48.5039L44.2113 56.0771Z" fill="#BB2E76"/>
<path d="M48.5069 61.8361H45.0557L40.5 67.9499H43.9349L48.503 61.8361H48.5069Z" fill="#05B2B6"/>
</g>
<line x1="99" y1="32" x2="99" y2="92" stroke="#27272A"/>
<path d="M111.67 38.4545L114.057 42.6875H114.17L116.585 38.4545H120.989L116.642 45.7273L121.159 53H116.642L114.17 48.6818H114.057L111.585 53H107.097L111.557 45.7273L107.239 38.4545H111.67ZM129.822 48.2273V42.0909H133.743V53H130.021V50.9261H129.907C129.671 51.6222 129.256 52.1667 128.664 52.5597C128.073 52.9479 127.369 53.142 126.555 53.142C125.793 53.142 125.125 52.9669 124.552 52.6165C123.984 52.2661 123.541 51.7831 123.224 51.1676C122.912 50.5521 122.753 49.8466 122.748 49.0511V42.0909H126.669V48.2273C126.673 48.767 126.811 49.1908 127.081 49.4986C127.355 49.8063 127.739 49.9602 128.231 49.9602C128.558 49.9602 128.84 49.8916 129.076 49.7543C129.318 49.6122 129.503 49.4134 129.63 49.1577C129.763 48.8973 129.827 48.5871 129.822 48.2273ZM135.737 53V42.0909H139.458V44.1648H139.572C139.799 43.483 140.187 42.9432 140.737 42.5455C141.286 42.1477 141.939 41.9489 142.697 41.9489C143.464 41.9489 144.124 42.1525 144.678 42.5597C145.232 42.9621 145.566 43.4972 145.68 44.1648H145.793C145.978 43.4972 146.371 42.9621 146.972 42.5597C147.574 42.1525 148.279 41.9489 149.089 41.9489C150.135 41.9489 150.983 42.285 151.631 42.9574C152.285 43.6297 152.612 44.5246 152.612 45.642V53H148.691V46.6364C148.691 46.1581 148.57 45.7841 148.329 45.5142C148.087 45.2396 147.763 45.1023 147.356 45.1023C146.953 45.1023 146.634 45.2396 146.397 45.5142C146.165 45.7841 146.049 46.1581 146.049 46.6364V53H142.299V46.6364C142.299 46.1581 142.178 45.7841 141.937 45.5142C141.695 45.2396 141.371 45.1023 140.964 45.1023C140.694 45.1023 140.462 45.1638 140.268 45.2869C140.074 45.41 139.922 45.5876 139.813 45.8196C139.709 46.0469 139.657 46.3191 139.657 46.6364V53H135.737ZM159.801 53.1989C158.617 53.1989 157.604 52.9645 156.761 52.4957C155.918 52.0223 155.272 51.3641 154.822 50.5213C154.372 49.6738 154.147 48.6913 154.147 47.5739C154.147 46.4564 154.372 45.4763 154.822 44.6335C155.272 43.786 155.918 43.1278 156.761 42.6591C157.604 42.1856 158.617 41.9489 159.801 41.9489C160.985 41.9489 161.998 42.1856 162.841 42.6591C163.683 43.1278 164.33 43.786 164.779 44.6335C165.229 45.4763 165.454 46.4564 165.454 47.5739C165.454 48.6913 165.229 49.6738 164.779 50.5213C164.33 51.3641 163.683 52.0223 162.841 52.4957C161.998 52.9645 160.985 53.1989 159.801 53.1989ZM159.829 50.3011C160.161 50.3011 160.447 50.1899 160.689 49.9673C160.93 49.7448 161.117 49.4276 161.25 49.0156C161.382 48.6037 161.449 48.1136 161.449 47.5455C161.449 46.9725 161.382 46.4825 161.25 46.0753C161.117 45.6634 160.93 45.3461 160.689 45.1236C160.447 44.901 160.161 44.7898 159.829 44.7898C159.479 44.7898 159.178 44.901 158.927 45.1236C158.676 45.3461 158.485 45.6634 158.352 46.0753C158.219 46.4825 158.153 46.9725 158.153 47.5455C158.153 48.1136 158.219 48.6037 158.352 49.0156C158.485 49.4276 158.676 49.7448 158.927 49.9673C159.178 50.1899 159.479 50.3011 159.829 50.3011Z" fill="#27272A"/>
<path d="M107.267 83.9545V82.017L112.125 74.3636H113.795V77.0455H112.807L109.744 81.892V81.983H116.648V83.9545H107.267ZM112.852 86V83.3636L112.898 82.5057V74.3636H115.205V86H112.852ZM120.332 77.2727L121.935 80.3239L123.577 77.2727H126.06L123.531 81.6364L126.128 86H123.656L121.935 82.983L120.241 86H117.741L120.332 81.6364L117.832 77.2727H120.332ZM131.997 86V77.2727H134.418V86H131.997ZM133.213 76.1477C132.853 76.1477 132.545 76.0284 132.287 75.7898C132.033 75.5473 131.906 75.2576 131.906 74.9205C131.906 74.5871 132.033 74.3011 132.287 74.0625C132.545 73.8201 132.853 73.6989 133.213 73.6989C133.573 73.6989 133.88 73.8201 134.134 74.0625C134.391 74.3011 134.52 74.5871 134.52 74.9205C134.52 75.2576 134.391 75.5473 134.134 75.7898C133.88 76.0284 133.573 76.1477 133.213 76.1477ZM138.777 80.9545V86H136.357V77.2727H138.663V78.8125H138.766C138.959 78.3049 139.283 77.9034 139.737 77.608C140.192 77.3087 140.743 77.1591 141.391 77.1591C141.997 77.1591 142.525 77.2917 142.976 77.5568C143.427 77.822 143.777 78.2008 144.027 78.6932C144.277 79.1818 144.402 79.7652 144.402 80.4432V86H141.982V80.875C141.985 80.3409 141.849 79.9242 141.572 79.625C141.296 79.322 140.915 79.1705 140.43 79.1705C140.105 79.1705 139.817 79.2405 139.567 79.3807C139.321 79.5208 139.127 79.7254 138.987 79.9943C138.851 80.2595 138.781 80.5795 138.777 80.9545ZM150.253 86.1705C149.359 86.1705 148.59 85.9811 147.946 85.6023C147.306 85.2197 146.813 84.6894 146.469 84.0114C146.128 83.3333 145.957 82.553 145.957 81.6705C145.957 80.7765 146.13 79.9924 146.474 79.3182C146.823 78.6402 147.317 78.1117 147.957 77.733C148.598 77.3504 149.359 77.1591 150.241 77.1591C151.003 77.1591 151.67 77.2973 152.241 77.5739C152.813 77.8504 153.266 78.2386 153.599 78.7386C153.933 79.2386 154.116 79.8258 154.151 80.5H151.866C151.802 80.0644 151.632 79.714 151.355 79.4489C151.082 79.1799 150.724 79.0455 150.281 79.0455C149.906 79.0455 149.579 79.1477 149.298 79.3523C149.022 79.553 148.806 79.8466 148.651 80.233C148.495 80.6193 148.418 81.0871 148.418 81.6364C148.418 82.1932 148.493 82.6667 148.645 83.0568C148.8 83.447 149.018 83.7443 149.298 83.9489C149.579 84.1534 149.906 84.2557 150.281 84.2557C150.558 84.2557 150.806 84.1989 151.026 84.0852C151.249 83.9716 151.433 83.8068 151.577 83.5909C151.724 83.3712 151.821 83.108 151.866 82.8011H154.151C154.113 83.4678 153.931 84.0549 153.605 84.5625C153.283 85.0663 152.838 85.4602 152.27 85.7443C151.702 86.0284 151.029 86.1705 150.253 86.1705ZM155.7 86V77.2727H158.047V78.7955H158.138C158.297 78.2538 158.564 77.8447 158.939 77.5682C159.314 77.2879 159.746 77.1477 160.234 77.1477C160.356 77.1477 160.486 77.1553 160.626 77.1705C160.767 77.1856 160.89 77.2064 160.996 77.233V79.3807C160.882 79.3466 160.725 79.3163 160.524 79.2898C160.323 79.2633 160.14 79.25 159.973 79.25C159.617 79.25 159.299 79.3277 159.018 79.483C158.742 79.6345 158.522 79.8466 158.359 80.1193C158.2 80.392 158.121 80.7064 158.121 81.0625V86H155.7ZM165.818 86.1705C164.92 86.1705 164.148 85.9886 163.5 85.625C162.856 85.2576 162.36 84.7386 162.011 84.0682C161.663 83.3939 161.489 82.5966 161.489 81.6761C161.489 80.7784 161.663 79.9905 162.011 79.3125C162.36 78.6345 162.85 78.1061 163.483 77.7273C164.119 77.3485 164.866 77.1591 165.722 77.1591C166.297 77.1591 166.833 77.2519 167.33 77.4375C167.83 77.6193 168.265 77.8939 168.636 78.2614C169.011 78.6288 169.303 79.0909 169.511 79.6477C169.72 80.2008 169.824 80.8485 169.824 81.5909V82.2557H162.455V80.7557H167.545C167.545 80.4072 167.47 80.0985 167.318 79.8295C167.167 79.5606 166.956 79.3504 166.688 79.1989C166.422 79.0436 166.114 78.9659 165.761 78.9659C165.394 78.9659 165.068 79.0511 164.784 79.2216C164.504 79.3883 164.284 79.6136 164.125 79.8977C163.966 80.178 163.884 80.4905 163.881 80.8352V82.2614C163.881 82.6932 163.96 83.0663 164.119 83.3807C164.282 83.6951 164.511 83.9375 164.807 84.108C165.102 84.2784 165.453 84.3636 165.858 84.3636C166.127 84.3636 166.373 84.3258 166.597 84.25C166.82 84.1742 167.011 84.0606 167.17 83.9091C167.33 83.7576 167.451 83.572 167.534 83.3523L169.773 83.5C169.659 84.0379 169.426 84.5076 169.074 84.9091C168.725 85.3068 168.275 85.6174 167.722 85.8409C167.172 86.0606 166.538 86.1705 165.818 86.1705ZM173.892 86.1648C173.335 86.1648 172.839 86.0682 172.403 85.875C171.968 85.678 171.623 85.3883 171.369 85.0057C171.119 84.6193 170.994 84.1383 170.994 83.5625C170.994 83.0777 171.083 82.6705 171.261 82.3409C171.439 82.0114 171.682 81.7462 171.989 81.5455C172.295 81.3447 172.644 81.1932 173.034 81.0909C173.428 80.9886 173.841 80.9167 174.273 80.875C174.78 80.822 175.189 80.7727 175.5 80.7273C175.811 80.678 176.036 80.6061 176.176 80.5114C176.316 80.4167 176.386 80.2765 176.386 80.0909V80.0568C176.386 79.697 176.273 79.4186 176.045 79.2216C175.822 79.0246 175.504 78.9261 175.091 78.9261C174.655 78.9261 174.309 79.0227 174.051 79.2159C173.794 79.4053 173.623 79.6439 173.54 79.9318L171.301 79.75C171.415 79.2197 171.638 78.7614 171.972 78.375C172.305 77.9848 172.735 77.6856 173.261 77.4773C173.792 77.2652 174.405 77.1591 175.102 77.1591C175.587 77.1591 176.051 77.2159 176.494 77.3295C176.941 77.4432 177.337 77.6193 177.682 77.858C178.03 78.0966 178.305 78.4034 178.506 78.7784C178.706 79.1496 178.807 79.5947 178.807 80.1136V86H176.511V84.7898H176.443C176.303 85.0625 176.116 85.303 175.881 85.5114C175.646 85.7159 175.364 85.8769 175.034 85.9943C174.705 86.108 174.324 86.1648 173.892 86.1648ZM174.585 84.4943C174.941 84.4943 175.256 84.4242 175.528 84.2841C175.801 84.1402 176.015 83.947 176.17 83.7045C176.326 83.4621 176.403 83.1875 176.403 82.8807V81.9545C176.328 82.0038 176.224 82.0492 176.091 82.0909C175.962 82.1288 175.816 82.1648 175.653 82.1989C175.491 82.2292 175.328 82.2576 175.165 82.2841C175.002 82.3068 174.854 82.3277 174.722 82.3466C174.438 82.3883 174.189 82.4545 173.977 82.5455C173.765 82.6364 173.6 82.7595 173.483 82.9148C173.366 83.0663 173.307 83.2557 173.307 83.483C173.307 83.8125 173.426 84.0644 173.665 84.2386C173.907 84.4091 174.214 84.4943 174.585 84.4943ZM187.946 79.7614L185.73 79.8977C185.692 79.7083 185.611 79.5379 185.486 79.3864C185.361 79.2311 185.196 79.108 184.991 79.017C184.791 78.9223 184.55 78.875 184.27 78.875C183.895 78.875 183.579 78.9545 183.321 79.1136C183.063 79.2689 182.935 79.4773 182.935 79.7386C182.935 79.947 183.018 80.1231 183.185 80.267C183.351 80.411 183.637 80.5265 184.043 80.6136L185.622 80.9318C186.471 81.1061 187.103 81.3864 187.52 81.7727C187.937 82.1591 188.145 82.6667 188.145 83.2955C188.145 83.8674 187.976 84.3693 187.639 84.8011C187.306 85.233 186.848 85.5701 186.264 85.8125C185.685 86.0511 185.016 86.1705 184.259 86.1705C183.103 86.1705 182.183 85.9299 181.497 85.4489C180.815 84.964 180.416 84.3049 180.298 83.4716L182.679 83.3466C182.751 83.6989 182.925 83.9678 183.202 84.1534C183.478 84.3352 183.832 84.4261 184.264 84.4261C184.688 84.4261 185.029 84.3447 185.287 84.1818C185.548 84.0152 185.681 83.8011 185.685 83.5398C185.681 83.3201 185.588 83.1402 185.406 83C185.224 82.8561 184.944 82.7462 184.565 82.6705L183.054 82.3693C182.202 82.1989 181.567 81.9034 181.151 81.483C180.738 81.0625 180.531 80.5265 180.531 79.875C180.531 79.3144 180.683 78.8314 180.986 78.4261C181.293 78.0208 181.723 77.7083 182.276 77.4886C182.832 77.2689 183.484 77.1591 184.23 77.1591C185.332 77.1591 186.2 77.392 186.832 77.858C187.469 78.3239 187.84 78.9583 187.946 79.7614ZM193.646 86.1705C192.749 86.1705 191.976 85.9886 191.328 85.625C190.684 85.2576 190.188 84.7386 189.84 84.0682C189.491 83.3939 189.317 82.5966 189.317 81.6761C189.317 80.7784 189.491 79.9905 189.84 79.3125C190.188 78.6345 190.679 78.1061 191.311 77.7273C191.947 77.3485 192.694 77.1591 193.55 77.1591C194.125 77.1591 194.661 77.2519 195.158 77.4375C195.658 77.6193 196.093 77.8939 196.465 78.2614C196.84 78.6288 197.131 79.0909 197.34 79.6477C197.548 80.2008 197.652 80.8485 197.652 81.5909V82.2557H190.283V80.7557H195.374C195.374 80.4072 195.298 80.0985 195.146 79.8295C194.995 79.5606 194.785 79.3504 194.516 79.1989C194.25 79.0436 193.942 78.9659 193.59 78.9659C193.222 78.9659 192.896 79.0511 192.612 79.2216C192.332 79.3883 192.112 79.6136 191.953 79.8977C191.794 80.178 191.713 80.4905 191.709 80.8352V82.2614C191.709 82.6932 191.788 83.0663 191.947 83.3807C192.11 83.6951 192.34 83.9375 192.635 84.108C192.93 84.2784 193.281 84.3636 193.686 84.3636C193.955 84.3636 194.201 84.3258 194.425 84.25C194.648 84.1742 194.84 84.0606 194.999 83.9091C195.158 83.7576 195.279 83.572 195.362 83.3523L197.601 83.5C197.487 84.0379 197.254 84.5076 196.902 84.9091C196.554 85.3068 196.103 85.6174 195.55 85.8409C195 86.0606 194.366 86.1705 193.646 86.1705Z" fill="#059669"/>
<path d="M203.993 86V77.2727H205.334V86H203.993ZM204.675 75.8182C204.413 75.8182 204.188 75.7292 203.999 75.5511C203.813 75.3731 203.72 75.1591 203.72 74.9091C203.72 74.6591 203.813 74.4451 203.999 74.267C204.188 74.089 204.413 74 204.675 74C204.936 74 205.16 74.089 205.345 74.267C205.535 74.4451 205.629 74.6591 205.629 74.9091C205.629 75.1591 205.535 75.3731 205.345 75.5511C205.16 75.7292 204.936 75.8182 204.675 75.8182ZM209.131 80.75V86H207.79V77.2727H209.085V78.6364H209.199C209.403 78.1932 209.714 77.8371 210.131 77.5682C210.547 77.2955 211.085 77.1591 211.744 77.1591C212.335 77.1591 212.852 77.2803 213.295 77.5227C213.739 77.7614 214.083 78.125 214.33 78.6136C214.576 79.0985 214.699 79.7121 214.699 80.4545V86H213.358V80.5455C213.358 79.8598 213.18 79.3258 212.824 78.9432C212.468 78.5568 211.979 78.3636 211.358 78.3636C210.93 78.3636 210.547 78.4564 210.21 78.642C209.877 78.8277 209.614 79.0985 209.42 79.4545C209.227 79.8106 209.131 80.2424 209.131 80.75ZM221.649 86V77.2727H222.99V86H221.649ZM222.331 75.8182C222.07 75.8182 221.844 75.7292 221.655 75.5511C221.469 75.3731 221.376 75.1591 221.376 74.9091C221.376 74.6591 221.469 74.4451 221.655 74.267C221.844 74.089 222.07 74 222.331 74C222.592 74 222.816 74.089 223.001 74.267C223.191 74.4451 223.286 74.6591 223.286 74.9091C223.286 75.1591 223.191 75.3731 223.001 75.5511C222.816 75.7292 222.592 75.8182 222.331 75.8182ZM225.446 86V77.2727H226.741V78.6364H226.855C227.037 78.1705 227.331 77.8087 227.736 77.5511C228.141 77.2898 228.628 77.1591 229.196 77.1591C229.772 77.1591 230.251 77.2898 230.634 77.5511C231.02 77.8087 231.321 78.1705 231.537 78.6364H231.628C231.851 78.1856 232.187 77.8277 232.634 77.5625C233.081 77.2936 233.616 77.1591 234.241 77.1591C235.022 77.1591 235.66 77.4034 236.156 77.892C236.652 78.3769 236.901 79.1326 236.901 80.1591V86H235.56V80.1591C235.56 79.5152 235.384 79.0549 235.031 78.7784C234.679 78.5019 234.264 78.3636 233.787 78.3636C233.173 78.3636 232.698 78.5492 232.361 78.9205C232.024 79.2879 231.855 79.7538 231.855 80.3182V86H230.491V80.0227C230.491 79.5265 230.331 79.1269 230.009 78.8239C229.687 78.517 229.272 78.3636 228.764 78.3636C228.416 78.3636 228.09 78.4564 227.787 78.642C227.488 78.8277 227.245 79.0852 227.06 79.4148C226.878 79.7405 226.787 80.1174 226.787 80.5455V86H225.446ZM239.352 89.2727V77.2727H240.648V78.6591H240.807C240.905 78.5076 241.042 78.3144 241.216 78.0795C241.394 77.8409 241.648 77.6288 241.977 77.4432C242.311 77.2538 242.761 77.1591 243.33 77.1591C244.064 77.1591 244.712 77.3428 245.273 77.7102C245.833 78.0777 246.271 78.5985 246.585 79.2727C246.9 79.947 247.057 80.7424 247.057 81.6591C247.057 82.5833 246.9 83.3845 246.585 84.0625C246.271 84.7367 245.835 85.2595 245.278 85.6307C244.722 85.9981 244.08 86.1818 243.352 86.1818C242.792 86.1818 242.343 86.089 242.006 85.9034C241.669 85.714 241.409 85.5 241.227 85.2614C241.045 85.0189 240.905 84.8182 240.807 84.6591H240.693V89.2727H239.352ZM240.67 81.6364C240.67 82.2955 240.767 82.8769 240.96 83.3807C241.153 83.8807 241.436 84.2727 241.807 84.5568C242.178 84.8371 242.633 84.9773 243.17 84.9773C243.731 84.9773 244.199 84.8295 244.574 84.5341C244.953 84.2348 245.237 83.8333 245.426 83.3295C245.619 82.822 245.716 82.2576 245.716 81.6364C245.716 81.0227 245.621 80.4697 245.432 79.9773C245.246 79.4811 244.964 79.089 244.585 78.8011C244.21 78.5095 243.739 78.3636 243.17 78.3636C242.625 78.3636 242.167 78.5019 241.795 78.7784C241.424 79.0511 241.144 79.4337 240.955 79.9261C240.765 80.4148 240.67 80.9848 240.67 81.6364ZM249.102 86V77.2727H250.398V78.5909H250.489C250.648 78.1591 250.936 77.8087 251.352 77.5398C251.769 77.2708 252.239 77.1364 252.761 77.1364C252.86 77.1364 252.983 77.1383 253.131 77.142C253.278 77.1458 253.39 77.1515 253.466 77.1591V78.5227C253.42 78.5114 253.316 78.4943 253.153 78.4716C252.994 78.4451 252.826 78.4318 252.648 78.4318C252.224 78.4318 251.845 78.5208 251.511 78.6989C251.182 78.8731 250.92 79.1155 250.727 79.4261C250.538 79.733 250.443 80.0833 250.443 80.4773V86H249.102ZM258.449 86.1818C257.608 86.1818 256.883 85.9962 256.273 85.625C255.667 85.25 255.199 84.7273 254.869 84.0568C254.544 83.3826 254.381 82.5985 254.381 81.7045C254.381 80.8106 254.544 80.0227 254.869 79.3409C255.199 78.6553 255.657 78.1212 256.244 77.7386C256.835 77.3523 257.525 77.1591 258.313 77.1591C258.767 77.1591 259.216 77.2348 259.659 77.3864C260.102 77.5379 260.506 77.7841 260.869 78.125C261.233 78.4621 261.523 78.9091 261.739 79.4659C261.955 80.0227 262.063 80.7083 262.063 81.5227V82.0909H255.335V80.9318H260.699C260.699 80.4394 260.6 80 260.403 79.6136C260.21 79.2273 259.934 78.9223 259.574 78.6989C259.218 78.4754 258.797 78.3636 258.313 78.3636C257.778 78.3636 257.316 78.4962 256.926 78.7614C256.54 79.0227 256.242 79.3636 256.034 79.7841C255.826 80.2045 255.722 80.6553 255.722 81.1364V81.9091C255.722 82.5682 255.835 83.1269 256.063 83.5852C256.294 84.0398 256.614 84.3864 257.023 84.625C257.432 84.8598 257.907 84.9773 258.449 84.9773C258.801 84.9773 259.119 84.928 259.403 84.8295C259.691 84.7273 259.939 84.5758 260.148 84.375C260.356 84.1705 260.517 83.9167 260.631 83.6136L261.926 83.9773C261.79 84.4167 261.561 84.803 261.239 85.1364C260.917 85.4659 260.519 85.7235 260.045 85.9091C259.572 86.0909 259.04 86.1818 258.449 86.1818ZM270.284 79.2273L269.08 79.5682C269.004 79.3674 268.892 79.1723 268.744 78.983C268.6 78.7898 268.403 78.6307 268.153 78.5057C267.903 78.3807 267.583 78.3182 267.193 78.3182C266.659 78.3182 266.214 78.4413 265.858 78.6875C265.506 78.9299 265.33 79.2386 265.33 79.6136C265.33 79.947 265.451 80.2102 265.693 80.4034C265.936 80.5966 266.314 80.7576 266.83 80.8864L268.125 81.2045C268.905 81.3939 269.487 81.6837 269.869 82.0739C270.252 82.4602 270.443 82.9583 270.443 83.5682C270.443 84.0682 270.299 84.5152 270.011 84.9091C269.727 85.303 269.33 85.6136 268.818 85.8409C268.307 86.0682 267.712 86.1818 267.034 86.1818C266.144 86.1818 265.407 85.9886 264.824 85.6023C264.241 85.2159 263.871 84.6515 263.716 83.9091L264.989 83.5909C265.11 84.0606 265.339 84.4129 265.676 84.6477C266.017 84.8826 266.462 85 267.011 85C267.636 85 268.133 84.8674 268.5 84.6023C268.871 84.3333 269.057 84.0114 269.057 83.6364C269.057 83.3333 268.951 83.0795 268.739 82.875C268.527 82.6667 268.201 82.5114 267.761 82.4091L266.307 82.0682C265.508 81.8788 264.92 81.5852 264.545 81.1875C264.174 80.786 263.989 80.2841 263.989 79.6818C263.989 79.1894 264.127 78.7538 264.403 78.375C264.684 77.9962 265.064 77.6989 265.545 77.483C266.03 77.267 266.58 77.1591 267.193 77.1591C268.057 77.1591 268.735 77.3485 269.227 77.7273C269.724 78.1061 270.076 78.6061 270.284 79.2273ZM278.643 79.2273L277.439 79.5682C277.363 79.3674 277.251 79.1723 277.104 78.983C276.96 78.7898 276.763 78.6307 276.513 78.5057C276.263 78.3807 275.943 78.3182 275.553 78.3182C275.018 78.3182 274.573 78.4413 274.217 78.6875C273.865 78.9299 273.689 79.2386 273.689 79.6136C273.689 79.947 273.81 80.2102 274.053 80.4034C274.295 80.5966 274.674 80.7576 275.189 80.8864L276.484 81.2045C277.265 81.3939 277.846 81.6837 278.229 82.0739C278.611 82.4602 278.803 82.9583 278.803 83.5682C278.803 84.0682 278.659 84.5152 278.371 84.9091C278.087 85.303 277.689 85.6136 277.178 85.8409C276.666 86.0682 276.072 86.1818 275.393 86.1818C274.503 86.1818 273.767 85.9886 273.183 85.6023C272.6 85.2159 272.231 84.6515 272.075 83.9091L273.348 83.5909C273.469 84.0606 273.698 84.4129 274.036 84.6477C274.376 84.8826 274.822 85 275.371 85C275.996 85 276.492 84.8674 276.859 84.6023C277.231 84.3333 277.416 84.0114 277.416 83.6364C277.416 83.3333 277.31 83.0795 277.098 82.875C276.886 82.6667 276.56 82.5114 276.121 82.4091L274.666 82.0682C273.867 81.8788 273.28 81.5852 272.905 81.1875C272.534 80.786 272.348 80.2841 272.348 79.6818C272.348 79.1894 272.486 78.7538 272.763 78.375C273.043 77.9962 273.424 77.6989 273.905 77.483C274.39 77.267 274.939 77.1591 275.553 77.1591C276.416 77.1591 277.094 77.3485 277.587 77.7273C278.083 78.1061 278.435 78.6061 278.643 79.2273ZM280.821 86V77.2727H282.162V86H280.821ZM281.503 75.8182C281.241 75.8182 281.016 75.7292 280.827 75.5511C280.641 75.3731 280.548 75.1591 280.548 74.9091C280.548 74.6591 280.641 74.4451 280.827 74.267C281.016 74.089 281.241 74 281.503 74C281.764 74 281.988 74.089 282.173 74.267C282.363 74.4451 282.457 74.6591 282.457 74.9091C282.457 75.1591 282.363 75.3731 282.173 75.5511C281.988 75.7292 281.764 75.8182 281.503 75.8182ZM288.163 86.1818C287.375 86.1818 286.684 85.9943 286.09 85.6193C285.499 85.2443 285.036 84.7197 284.703 84.0455C284.374 83.3712 284.209 82.5833 284.209 81.6818C284.209 80.7727 284.374 79.9792 284.703 79.3011C285.036 78.6231 285.499 78.0966 286.09 77.7216C286.684 77.3466 287.375 77.1591 288.163 77.1591C288.951 77.1591 289.641 77.3466 290.232 77.7216C290.826 78.0966 291.288 78.6231 291.618 79.3011C291.951 79.9792 292.118 80.7727 292.118 81.6818C292.118 82.5833 291.951 83.3712 291.618 84.0455C291.288 84.7197 290.826 85.2443 290.232 85.6193C289.641 85.9943 288.951 86.1818 288.163 86.1818ZM288.163 84.9773C288.762 84.9773 289.254 84.8239 289.641 84.517C290.027 84.2102 290.313 83.8068 290.499 83.3068C290.684 82.8068 290.777 82.2652 290.777 81.6818C290.777 81.0985 290.684 80.5549 290.499 80.0511C290.313 79.5473 290.027 79.1402 289.641 78.8295C289.254 78.5189 288.762 78.3636 288.163 78.3636C287.565 78.3636 287.072 78.5189 286.686 78.8295C286.3 79.1402 286.014 79.5473 285.828 80.0511C285.643 80.5549 285.55 81.0985 285.55 81.6818C285.55 82.2652 285.643 82.8068 285.828 83.3068C286.014 83.8068 286.3 84.2102 286.686 84.517C287.072 84.8239 287.565 84.9773 288.163 84.9773ZM295.506 80.75V86H294.165V77.2727H295.46V78.6364H295.574C295.778 78.1932 296.089 77.8371 296.506 77.5682C296.922 77.2955 297.46 77.1591 298.119 77.1591C298.71 77.1591 299.227 77.2803 299.67 77.5227C300.114 77.7614 300.458 78.125 300.705 78.6136C300.951 79.0985 301.074 79.7121 301.074 80.4545V86H299.733V80.5455C299.733 79.8598 299.555 79.3258 299.199 78.9432C298.843 78.5568 298.354 78.3636 297.733 78.3636C297.305 78.3636 296.922 78.4564 296.585 78.642C296.252 78.8277 295.989 79.0985 295.795 79.4545C295.602 79.8106 295.506 80.2424 295.506 80.75ZM309.706 79.2273L308.501 79.5682C308.426 79.3674 308.314 79.1723 308.166 78.983C308.022 78.7898 307.825 78.6307 307.575 78.5057C307.325 78.3807 307.005 78.3182 306.615 78.3182C306.081 78.3182 305.636 78.4413 305.28 78.6875C304.928 78.9299 304.751 79.2386 304.751 79.6136C304.751 79.947 304.873 80.2102 305.115 80.4034C305.357 80.5966 305.736 80.7576 306.251 80.8864L307.547 81.2045C308.327 81.3939 308.909 81.6837 309.291 82.0739C309.674 82.4602 309.865 82.9583 309.865 83.5682C309.865 84.0682 309.721 84.5152 309.433 84.9091C309.149 85.303 308.751 85.6136 308.24 85.8409C307.729 86.0682 307.134 86.1818 306.456 86.1818C305.566 86.1818 304.829 85.9886 304.246 85.6023C303.662 85.2159 303.293 84.6515 303.138 83.9091L304.411 83.5909C304.532 84.0606 304.761 84.4129 305.098 84.6477C305.439 84.8826 305.884 85 306.433 85C307.058 85 307.554 84.8674 307.922 84.6023C308.293 84.3333 308.479 84.0114 308.479 83.6364C308.479 83.3333 308.373 83.0795 308.161 82.875C307.948 82.6667 307.623 82.5114 307.183 82.4091L305.729 82.0682C304.929 81.8788 304.342 81.5852 303.967 81.1875C303.596 80.786 303.411 80.2841 303.411 79.6818C303.411 79.1894 303.549 78.7538 303.825 78.375C304.106 77.9962 304.486 77.6989 304.967 77.483C305.452 77.267 306.001 77.1591 306.615 77.1591C307.479 77.1591 308.157 77.3485 308.649 77.7273C309.145 78.1061 309.498 78.6061 309.706 79.2273ZM312.861 86.0909C312.581 86.0909 312.34 85.9905 312.139 85.7898C311.938 85.589 311.838 85.3485 311.838 85.0682C311.838 84.7879 311.938 84.5473 312.139 84.3466C312.34 84.1458 312.581 84.0455 312.861 84.0455C313.141 84.0455 313.382 84.1458 313.582 84.3466C313.783 84.5473 313.884 84.7879 313.884 85.0682C313.884 85.2538 313.836 85.4242 313.741 85.5795C313.651 85.7348 313.527 85.8598 313.372 85.9545C313.221 86.0455 313.05 86.0909 312.861 86.0909Z" fill="#27272A"/>
</g>
<defs>
<filter id="filter0_dd_43_4170" x="0.5" y="0" width="374" height="142" filterUnits="userSpaceOnUse" color-interpolation-filters="sRGB">
<feFlood flood-opacity="0" result="BackgroundImageFix"/>
<feColorMatrix in="SourceAlpha" type="matrix" values="0 0 0 0 0 0 0 0 0 0 0 0 0 0 0 0 0 0 127 0" result="hardAlpha"/>
<feOffset dy="4"/>
<feGaussianBlur stdDeviation="1.5"/>
<feComposite in2="hardAlpha" operator="out"/>
<feColorMatrix type="matrix" values="0 0 0 0 0 0 0 0 0 0 0 0 0 0 0 0 0 0 0.1 0"/>
<feBlend mode="normal" in2="BackgroundImageFix" result="effect1_dropShadow_43_4170"/>
<feColorMatrix in="SourceAlpha" type="matrix" values="0 0 0 0 0 0 0 0 0 0 0 0 0 0 0 0 0 0 127 0" result="hardAlpha"/>
<feOffset dy="10"/>
<feGaussianBlur stdDeviation="4"/>
<feComposite in2="hardAlpha" operator="out"/>
<feColorMatrix type="matrix" values="0 0 0 0 0 0 0 0 0 0 0 0 0 0 0 0 0 0 0.04 0"/>
<feBlend mode="normal" in2="effect1_dropShadow_43_4170" result="effect2_dropShadow_43_4170"/>
<feBlend mode="normal" in="SourceGraphic" in2="effect2_dropShadow_43_4170" result="shape"/>
</filter>
<linearGradient id="paint0_linear_43_4170" x1="187.5" y1="3.51049" x2="187.5" y2="124" gradientUnits="userSpaceOnUse">
<stop stop-color="white"/>
<stop offset="1" stop-color="#F4F4F5"/>
</linearGradient>
<clipPath id="clip0_43_4170">
<rect width="50" height="50" fill="white" transform="translate(40.5 37)"/>
</clipPath>
</defs>
</svg>
