<svg width="374" height="326" viewBox="0 0 374 326" fill="none" xmlns="http://www.w3.org/2000/svg">
<g filter="url(#filter0_dd_43_4340)">
<rect x="8" width="358" height="308" rx="24" fill="url(#paint0_linear_43_4340)" shape-rendering="crispEdges"/>
<g clip-path="url(#clip0_43_4340)">
<path d="M215.243 45.3665C215.111 42.9667 213.538 41.8001 211.735 41.8001H211.473C209.702 41.8001 208.03 42.9333 207.735 45.3665H215.243ZM203.965 47.333C203.965 42 207.211 38.6668 211.669 38.6668C216.324 38.6668 218.947 42.0334 218.947 46.6331C218.947 47.1998 218.914 47.7664 218.881 48.333H207.637C207.834 51.2662 209.866 52.8661 211.735 52.8661H211.997C213.603 52.8661 214.816 51.9328 215.144 50.5329H218.881C218.193 53.866 215.505 55.9993 211.735 55.9993C207.637 55.9993 203.965 52.9661 203.965 47.333ZM199.498 39.0001H203.366L197.531 55.6659H192.384L186.549 39.0001H190.516L195.007 52.4995L199.498 39.0001ZM180.353 55.6659V39.0001H184.123V55.6659H180.353ZM180.189 36.4669V32.3339H184.287V36.4669H180.189ZM161.855 55.6659V32.3339H165.625V41.4001C166.608 39.8001 168.379 38.6668 170.706 38.6668C174.574 38.6668 176.509 41.2 176.509 44.7998V55.6659H172.739V45.3665C172.739 43.1333 171.755 41.8001 169.821 41.8001H169.559C167.461 41.8001 165.625 43.6666 165.625 46.3664V55.6659H161.855ZM149.88 52.8661C152.011 52.8661 153.978 50.8662 153.978 47.333C153.978 43.7999 152.011 41.8001 149.88 41.8001H149.618C147.323 41.8001 145.553 43.7999 145.553 47.2997C145.553 50.8329 147.323 52.8661 149.618 52.8661H149.88ZM141.783 47.333C141.783 42.4 144.635 38.6668 149.126 38.6668C151.421 38.6668 153.257 39.9334 153.978 41.2333V32.3339H157.748V55.6659H153.978V53.4327C153.257 54.7326 151.257 55.9993 148.963 55.9993C144.504 55.9993 141.783 52.2662 141.783 47.333ZM131.424 52.8661C133.587 52.8661 135.522 50.8995 135.522 47.333C135.522 43.7666 133.587 41.8001 131.424 41.8001H131.129C128.932 41.8001 127.129 43.8999 127.129 47.2997C127.129 50.7329 128.932 52.8661 131.129 52.8661H131.424ZM123.359 47.333C123.359 41.6334 126.67 38.6668 130.473 38.6668C133.161 38.6668 134.735 39.9334 135.522 41.3334V39.0001H139.292V55.6659H135.522V53.3328C134.702 54.7326 133.161 55.9993 130.473 55.9993C126.834 55.9993 123.359 53.0328 123.359 47.333ZM114.269 32.3339H120.498V55.6659H116.63V36.3337L110.467 55.6659H105.877L99.5828 36.4337V55.6659H95.6818V32.3339H101.976L108.205 51.4661L114.269 32.3339ZM75.715 55.9999C82.203 55.9999 87.4625 50.6251 87.4625 43.9949C87.4625 37.3749 82.203 32 75.715 32C69.2271 32 63.9674 37.3749 63.9674 43.9949C63.9674 50.6251 69.2271 55.9999 75.715 55.9999ZM51.7622 52.0562C54.686 52.0562 57.6851 53.3667 61.1319 55.8917C61.3615 56.0543 61.6777 56.0353 61.8789 55.8247L63.3427 54.3327C63.5412 54.1317 63.5685 53.8065 63.4021 53.5674C60.4086 49.3588 59.6437 46.6423 59.6437 44.0024C59.6437 41.0181 60.9269 37.9573 63.3935 34.4373C63.5583 34.1983 63.5357 33.873 63.3343 33.6723L61.8686 32.1705C61.6672 31.9695 61.3522 31.9409 61.1217 32.1131C57.003 35.1739 54.3417 35.9486 51.7556 35.9486C49.1695 35.9486 46.5082 35.1739 42.3895 32.1131C42.159 31.9409 41.8439 31.9695 41.6426 32.1705L40.1769 33.6723C39.9756 33.873 39.953 34.1983 40.1177 34.4373C42.5843 37.9573 43.8675 41.0181 43.8675 44.0024C43.8675 46.6423 43.1026 49.3588 40.1092 53.5674C39.9426 53.8065 39.9699 54.1317 40.1684 54.3327L41.6322 55.8247C41.8335 56.0352 42.1496 56.0543 42.3792 55.8917C45.8261 53.3667 48.8252 52.0562 51.749 52.0562H51.7622Z" fill="black"/>
</g>
<path d="M40.9375 78.4545H45.8523L49.233 86.6932H49.4034L52.7841 78.4545H57.6989V93H53.8352V84.5909H53.7216L50.483 92.8864H48.1534L44.9148 84.5341H44.8011V93H40.9375V78.4545ZM62.6669 93.1705C61.9709 93.1705 61.3554 93.0568 60.8203 92.8295C60.29 92.5975 59.8733 92.2472 59.5703 91.7784C59.2673 91.3097 59.1158 90.7131 59.1158 89.9886C59.1158 89.392 59.2176 88.883 59.4212 88.4616C59.6248 88.0355 59.9089 87.6875 60.2734 87.4176C60.638 87.1477 61.0618 86.9418 61.5447 86.7997C62.0324 86.6577 62.558 86.5653 63.1214 86.5227C63.7322 86.4754 64.2223 86.4186 64.5916 86.3523C64.9657 86.2812 65.2356 86.1842 65.4013 86.0611C65.567 85.9332 65.6499 85.7652 65.6499 85.5568V85.5284C65.6499 85.2443 65.541 85.0265 65.3232 84.875C65.1054 84.7235 64.826 84.6477 64.4851 84.6477C64.111 84.6477 63.8056 84.7306 63.5689 84.8963C63.3369 85.0573 63.1972 85.3059 63.1499 85.642H59.5419C59.5893 84.9792 59.8 84.3684 60.174 83.8097C60.5528 83.2462 61.1044 82.7964 61.8288 82.4602C62.5533 82.1193 63.4576 81.9489 64.5419 81.9489C65.3232 81.9489 66.0239 82.0412 66.6442 82.2259C67.2644 82.4058 67.7924 82.6591 68.228 82.9858C68.6636 83.3078 68.995 83.6866 69.2223 84.1222C69.4543 84.553 69.5703 85.0218 69.5703 85.5284V93H65.9055V91.4659H65.8203C65.6025 91.8731 65.3374 92.2022 65.0249 92.4531C64.7171 92.7041 64.3643 92.8864 63.9666 93C63.5736 93.1136 63.1404 93.1705 62.6669 93.1705ZM63.9453 90.6989C64.2436 90.6989 64.523 90.6373 64.7834 90.5142C65.0485 90.3911 65.264 90.2135 65.4297 89.9815C65.5954 89.7495 65.6783 89.4678 65.6783 89.1364V88.2273C65.5741 88.2699 65.4628 88.3101 65.3445 88.348C65.2308 88.3859 65.1077 88.4214 64.9751 88.4545C64.8473 88.4877 64.71 88.5185 64.5632 88.5469C64.4212 88.5753 64.272 88.6013 64.1158 88.625C63.8127 88.6723 63.5642 88.7505 63.37 88.8594C63.1806 88.9635 63.0386 89.0938 62.9439 89.25C62.8539 89.4015 62.8089 89.572 62.8089 89.7614C62.8089 90.0644 62.9155 90.2964 63.1286 90.4574C63.3416 90.6184 63.6139 90.6989 63.9453 90.6989ZM75.3924 93.142C74.6159 93.142 73.9009 92.9384 73.2475 92.5312C72.5988 92.1241 72.078 91.5062 71.685 90.6776C71.2968 89.849 71.1026 88.8049 71.1026 87.5455C71.1026 86.2292 71.3062 85.1591 71.7134 84.3352C72.1254 83.5114 72.6557 82.9077 73.3043 82.5241C73.9577 82.1406 74.6443 81.9489 75.364 81.9489C75.9038 81.9489 76.3772 82.0436 76.7844 82.233C77.1916 82.4176 77.5326 82.6662 77.8072 82.9787C78.0818 83.2865 78.2901 83.625 78.4322 83.9943H78.489V78.4545H82.4094V93H78.5174V91.2102H78.4322C78.2807 91.5795 78.0629 91.911 77.7788 92.2045C77.4994 92.4934 77.1585 92.723 76.756 92.8935C76.3583 93.0592 75.9038 93.142 75.3924 93.142ZM76.8413 90.1307C77.2011 90.1307 77.5089 90.0265 77.7646 89.8182C78.025 89.6051 78.2238 89.3068 78.3612 88.9233C78.5032 88.535 78.5742 88.0758 78.5742 87.5455C78.5742 87.0057 78.5032 86.544 78.3612 86.1605C78.2238 85.7723 78.025 85.4763 77.7646 85.2727C77.5089 85.0644 77.2011 84.9602 76.8413 84.9602C76.4814 84.9602 76.1737 85.0644 75.918 85.2727C75.667 85.4763 75.4729 85.7723 75.3356 86.1605C75.203 86.544 75.1367 87.0057 75.1367 87.5455C75.1367 88.0852 75.203 88.5492 75.3356 88.9375C75.4729 89.321 75.667 89.617 75.918 89.8253C76.1737 90.0289 76.4814 90.1307 76.8413 90.1307ZM88.2546 86.8636V93H84.3342V78.4545H88.1126V84.1648H88.2262C88.4724 83.4687 88.882 82.9266 89.4549 82.5384C90.0278 82.1454 90.7167 81.9489 91.5217 81.9489C92.2934 81.9489 92.9634 82.1241 93.5316 82.4744C94.1045 82.8248 94.5472 83.3078 94.8597 83.9233C95.177 84.5388 95.3332 85.2443 95.3285 86.0398V93H91.408V86.8636C91.4128 86.3239 91.2778 85.9001 91.0032 85.5923C90.7333 85.2846 90.3474 85.1307 89.8455 85.1307C89.5283 85.1307 89.2489 85.2017 89.0075 85.3438C88.7707 85.4811 88.5861 85.6799 88.4535 85.9403C88.3256 86.196 88.2594 86.5038 88.2546 86.8636ZM97.2638 93V82.0909H101.184V93H97.2638ZM99.2241 80.9545C98.6938 80.9545 98.2392 80.7794 97.8604 80.429C97.4817 80.0786 97.2923 79.6572 97.2923 79.1648C97.2923 78.6723 97.4817 78.2509 97.8604 77.9006C98.2392 77.5502 98.6938 77.375 99.2241 77.375C99.7591 77.375 100.214 77.5502 100.588 77.9006C100.967 78.2509 101.156 78.6723 101.156 79.1648C101.156 79.6572 100.967 80.0786 100.588 80.429C100.214 80.7794 99.7591 80.9545 99.2241 80.9545ZM114.176 82.0909L110.511 93H105.966L102.301 82.0909H106.42L108.182 89.3068H108.295L110.057 82.0909H114.176ZM120.186 93.1989C119.022 93.1989 118.018 92.9763 117.175 92.5312C116.337 92.0814 115.691 91.4375 115.236 90.5994C114.786 89.7566 114.561 88.7481 114.561 87.5739C114.561 86.447 114.789 85.4621 115.243 84.6193C115.698 83.7765 116.339 83.1207 117.168 82.652C117.997 82.1832 118.974 81.9489 120.101 81.9489C120.925 81.9489 121.671 82.0767 122.338 82.3324C123.006 82.5881 123.577 82.9598 124.05 83.4474C124.524 83.9304 124.888 84.5175 125.144 85.2088C125.4 85.9001 125.527 86.679 125.527 87.5455V88.4545H115.783V86.2955H121.919C121.915 85.983 121.834 85.7083 121.678 85.4716C121.526 85.2301 121.32 85.0431 121.06 84.9105C120.804 84.7732 120.513 84.7045 120.186 84.7045C119.869 84.7045 119.578 84.7732 119.313 84.9105C119.048 85.0431 118.835 85.2277 118.674 85.4645C118.517 85.7012 118.435 85.9782 118.425 86.2955V88.625C118.425 88.9754 118.498 89.2879 118.645 89.5625C118.792 89.8371 119.003 90.0526 119.277 90.2088C119.552 90.3651 119.883 90.4432 120.272 90.4432C120.542 90.4432 120.788 90.4053 121.01 90.3295C121.238 90.2538 121.432 90.1449 121.593 90.0028C121.754 89.8561 121.872 89.6809 121.948 89.4773H125.527C125.404 90.2348 125.113 90.893 124.654 91.4517C124.194 92.0057 123.586 92.4366 122.828 92.7443C122.076 93.0473 121.195 93.1989 120.186 93.1989Z" fill="#09090B"/>
<line x1="40" y1="115.5" x2="334" y2="115.5" stroke="#09090B"/>
<path d="M41.125 157V139.545H48.6591C49.9545 139.545 51.0881 139.801 52.0597 140.312C53.0313 140.824 53.7869 141.543 54.3267 142.469C54.8665 143.395 55.1364 144.477 55.1364 145.716C55.1364 146.966 54.858 148.048 54.3011 148.963C53.75 149.878 52.9744 150.582 51.9744 151.077C50.9801 151.571 49.8182 151.818 48.4886 151.818H43.9886V148.136H47.5341C48.0909 148.136 48.5653 148.04 48.9574 147.847C49.3551 147.648 49.6591 147.366 49.8693 147.003C50.0852 146.639 50.1932 146.21 50.1932 145.716C50.1932 145.216 50.0852 144.79 49.8693 144.438C49.6591 144.08 49.3551 143.807 48.9574 143.619C48.5653 143.426 48.0909 143.33 47.5341 143.33H45.8636V157H41.125ZM56.9432 157V143.909H61.5114V146.398H61.6477C61.8864 145.477 62.2642 144.804 62.7812 144.378C63.304 143.952 63.9148 143.739 64.6136 143.739C64.8182 143.739 65.0199 143.756 65.2188 143.79C65.4233 143.818 65.6193 143.861 65.8068 143.918V147.932C65.5739 147.852 65.2869 147.793 64.946 147.753C64.6051 147.713 64.3125 147.693 64.0682 147.693C63.608 147.693 63.1932 147.798 62.8239 148.009C62.4602 148.213 62.1733 148.503 61.9631 148.878C61.7528 149.247 61.6477 149.682 61.6477 150.182V157H56.9432ZM72.9062 157.239C71.4858 157.239 70.2699 156.957 69.2585 156.395C68.2472 155.827 67.4716 155.037 66.9318 154.026C66.392 153.009 66.1222 151.83 66.1222 150.489C66.1222 149.148 66.392 147.972 66.9318 146.96C67.4716 145.943 68.2472 145.153 69.2585 144.591C70.2699 144.023 71.4858 143.739 72.9062 143.739C74.3267 143.739 75.5426 144.023 76.554 144.591C77.5653 145.153 78.3409 145.943 78.8807 146.96C79.4205 147.972 79.6903 149.148 79.6903 150.489C79.6903 151.83 79.4205 153.009 78.8807 154.026C78.3409 155.037 77.5653 155.827 76.554 156.395C75.5426 156.957 74.3267 157.239 72.9062 157.239ZM72.9403 153.761C73.3381 153.761 73.6818 153.628 73.9716 153.361C74.2614 153.094 74.4858 152.713 74.6449 152.219C74.804 151.724 74.8835 151.136 74.8835 150.455C74.8835 149.767 74.804 149.179 74.6449 148.69C74.4858 148.196 74.2614 147.815 73.9716 147.548C73.6818 147.281 73.3381 147.148 72.9403 147.148C72.5199 147.148 72.1591 147.281 71.858 147.548C71.5568 147.815 71.3267 148.196 71.1676 148.69C71.0085 149.179 70.929 149.767 70.929 150.455C70.929 151.136 71.0085 151.724 71.1676 152.219C71.3267 152.713 71.5568 153.094 71.858 153.361C72.1591 153.628 72.5199 153.761 72.9403 153.761ZM86.3381 157.17C85.4062 157.17 84.5483 156.926 83.7642 156.438C82.9858 155.949 82.3608 155.207 81.8892 154.213C81.4233 153.219 81.1903 151.966 81.1903 150.455C81.1903 148.875 81.4347 147.591 81.9233 146.602C82.4176 145.614 83.054 144.889 83.8324 144.429C84.6165 143.969 85.4403 143.739 86.304 143.739C86.9517 143.739 87.5199 143.852 88.0085 144.08C88.4972 144.301 88.9063 144.599 89.2358 144.974C89.5653 145.344 89.8153 145.75 89.9858 146.193H90.054V139.545H94.7585V157H90.0881V154.852H89.9858C89.804 155.295 89.5426 155.693 89.2017 156.045C88.8665 156.392 88.4574 156.668 87.9744 156.872C87.4972 157.071 86.9517 157.17 86.3381 157.17ZM88.0767 153.557C88.5085 153.557 88.8778 153.432 89.1847 153.182C89.4972 152.926 89.7358 152.568 89.9006 152.108C90.071 151.642 90.1562 151.091 90.1562 150.455C90.1562 149.807 90.071 149.253 89.9006 148.793C89.7358 148.327 89.4972 147.972 89.1847 147.727C88.8778 147.477 88.5085 147.352 88.0767 147.352C87.6449 147.352 87.2756 147.477 86.9688 147.727C86.6676 147.972 86.4347 148.327 86.2699 148.793C86.1108 149.253 86.0312 149.807 86.0312 150.455C86.0312 151.102 86.1108 151.659 86.2699 152.125C86.4347 152.585 86.6676 152.94 86.9688 153.19C87.2756 153.435 87.6449 153.557 88.0767 153.557ZM105.557 151.273V143.909H110.261V157H105.795V154.511H105.659C105.375 155.347 104.878 156 104.168 156.472C103.457 156.937 102.614 157.17 101.636 157.17C100.722 157.17 99.9205 156.96 99.233 156.54C98.5511 156.119 98.0199 155.54 97.6392 154.801C97.2642 154.062 97.0739 153.216 97.0682 152.261V143.909H101.773V151.273C101.778 151.92 101.943 152.429 102.267 152.798C102.597 153.168 103.057 153.352 103.648 153.352C104.04 153.352 104.378 153.27 104.662 153.105C104.952 152.935 105.173 152.696 105.327 152.389C105.486 152.077 105.563 151.705 105.557 151.273ZM118.961 157.239C117.54 157.239 116.325 156.957 115.313 156.395C114.302 155.827 113.526 155.037 112.987 154.026C112.447 153.009 112.177 151.83 112.177 150.489C112.177 149.148 112.447 147.972 112.987 146.96C113.526 145.943 114.302 145.153 115.313 144.591C116.325 144.023 117.54 143.739 118.961 143.739C120.245 143.739 121.356 143.972 122.293 144.438C123.237 144.898 123.967 145.551 124.484 146.398C125.001 147.239 125.262 148.227 125.268 149.364H120.904C120.842 148.676 120.643 148.153 120.308 147.795C119.978 147.432 119.552 147.25 119.029 147.25C118.62 147.25 118.262 147.369 117.955 147.608C117.648 147.841 117.41 148.196 117.239 148.673C117.069 149.145 116.984 149.739 116.984 150.455C116.984 151.17 117.069 151.767 117.239 152.244C117.41 152.716 117.648 153.071 117.955 153.31C118.262 153.543 118.62 153.659 119.029 153.659C119.376 153.659 119.683 153.58 119.95 153.42C120.217 153.256 120.433 153.017 120.597 152.705C120.768 152.386 120.87 152 120.904 151.545H125.268C125.251 152.699 124.987 153.705 124.475 154.562C123.964 155.415 123.239 156.074 122.302 156.54C121.37 157.006 120.256 157.239 118.961 157.239ZM135.016 143.909V147.318H126.391V143.909H135.016ZM128.061 140.773H132.766V152.79C132.766 152.972 132.797 153.125 132.859 153.25C132.922 153.369 133.018 153.46 133.149 153.523C133.28 153.58 133.447 153.608 133.652 153.608C133.794 153.608 133.959 153.591 134.146 153.557C134.339 153.523 134.482 153.494 134.572 153.472L135.254 156.778C135.044 156.841 134.743 156.918 134.351 157.009C133.964 157.099 133.504 157.159 132.97 157.188C131.891 157.244 130.984 157.134 130.251 156.855C129.518 156.571 128.967 156.125 128.598 155.517C128.229 154.909 128.05 154.148 128.061 153.233V140.773ZM141.648 139.545H147.546L151.603 149.432H151.808L155.864 139.545H161.762V157H157.126V146.909H156.989L153.103 156.864H150.308L146.421 146.841H146.285V157H141.648V139.545ZM167.724 157.205C166.888 157.205 166.15 157.068 165.508 156.795C164.871 156.517 164.371 156.097 164.008 155.534C163.644 154.972 163.462 154.256 163.462 153.386C163.462 152.67 163.585 152.06 163.829 151.554C164.073 151.043 164.414 150.625 164.852 150.301C165.289 149.977 165.798 149.73 166.377 149.56C166.962 149.389 167.593 149.278 168.269 149.227C169.002 149.17 169.59 149.102 170.033 149.023C170.482 148.937 170.806 148.821 171.005 148.673C171.204 148.52 171.303 148.318 171.303 148.068V148.034C171.303 147.693 171.173 147.432 170.911 147.25C170.65 147.068 170.315 146.977 169.906 146.977C169.457 146.977 169.09 147.077 168.806 147.276C168.528 147.469 168.36 147.767 168.303 148.17H163.974C164.031 147.375 164.283 146.642 164.732 145.972C165.187 145.295 165.849 144.756 166.718 144.352C167.587 143.943 168.673 143.739 169.974 143.739C170.911 143.739 171.752 143.849 172.496 144.071C173.241 144.287 173.874 144.591 174.397 144.983C174.92 145.369 175.317 145.824 175.59 146.347C175.869 146.864 176.008 147.426 176.008 148.034V157H171.61V155.159H171.508C171.246 155.648 170.928 156.043 170.553 156.344C170.184 156.645 169.761 156.864 169.283 157C168.812 157.136 168.292 157.205 167.724 157.205ZM169.258 154.239C169.616 154.239 169.951 154.165 170.263 154.017C170.582 153.869 170.84 153.656 171.039 153.378C171.238 153.099 171.337 152.761 171.337 152.364V151.273C171.212 151.324 171.079 151.372 170.937 151.418C170.8 151.463 170.653 151.506 170.494 151.545C170.34 151.585 170.175 151.622 169.999 151.656C169.829 151.69 169.65 151.722 169.462 151.75C169.099 151.807 168.8 151.901 168.567 152.031C168.34 152.156 168.17 152.312 168.056 152.5C167.948 152.682 167.894 152.886 167.894 153.114C167.894 153.477 168.022 153.756 168.278 153.949C168.533 154.142 168.86 154.239 169.258 154.239ZM182.96 149.636V157H178.256V143.909H182.722V146.398H182.858C183.142 145.568 183.642 144.918 184.358 144.446C185.08 143.974 185.92 143.739 186.881 143.739C187.807 143.739 188.611 143.952 189.293 144.378C189.98 144.798 190.511 145.378 190.886 146.116C191.267 146.855 191.455 147.699 191.449 148.648V157H186.744V149.636C186.75 148.989 186.585 148.48 186.25 148.111C185.92 147.741 185.46 147.557 184.869 147.557C184.483 147.557 184.145 147.642 183.855 147.812C183.571 147.977 183.352 148.216 183.199 148.528C183.045 148.835 182.966 149.205 182.96 149.636ZM197.419 157.205C196.584 157.205 195.845 157.068 195.203 156.795C194.567 156.517 194.067 156.097 193.703 155.534C193.339 154.972 193.158 154.256 193.158 153.386C193.158 152.67 193.28 152.06 193.524 151.554C193.768 151.043 194.109 150.625 194.547 150.301C194.984 149.977 195.493 149.73 196.072 149.56C196.658 149.389 197.288 149.278 197.964 149.227C198.697 149.17 199.286 149.102 199.729 149.023C200.178 148.937 200.501 148.821 200.7 148.673C200.899 148.52 200.999 148.318 200.999 148.068V148.034C200.999 147.693 200.868 147.432 200.607 147.25C200.345 147.068 200.01 146.977 199.601 146.977C199.152 146.977 198.786 147.077 198.501 147.276C198.223 147.469 198.055 147.767 197.999 148.17H193.669C193.726 147.375 193.979 146.642 194.428 145.972C194.882 145.295 195.544 144.756 196.413 144.352C197.283 143.943 198.368 143.739 199.669 143.739C200.607 143.739 201.447 143.849 202.192 144.071C202.936 144.287 203.57 144.591 204.092 144.983C204.615 145.369 205.013 145.824 205.286 146.347C205.564 146.864 205.703 147.426 205.703 148.034V157H201.305V155.159H201.203C200.942 155.648 200.624 156.043 200.249 156.344C199.879 156.645 199.456 156.864 198.979 157C198.507 157.136 197.987 157.205 197.419 157.205ZM198.953 154.239C199.311 154.239 199.646 154.165 199.959 154.017C200.277 153.869 200.536 153.656 200.734 153.378C200.933 153.099 201.033 152.761 201.033 152.364V151.273C200.908 151.324 200.774 151.372 200.632 151.418C200.496 151.463 200.348 151.506 200.189 151.545C200.036 151.585 199.871 151.622 199.695 151.656C199.524 151.69 199.345 151.722 199.158 151.75C198.794 151.807 198.496 151.901 198.263 152.031C198.036 152.156 197.865 152.312 197.751 152.5C197.643 152.682 197.589 152.886 197.589 153.114C197.589 153.477 197.717 153.756 197.973 153.949C198.229 154.142 198.555 154.239 198.953 154.239ZM214.258 162.182C212.945 162.182 211.82 161.994 210.883 161.619C209.951 161.25 209.227 160.739 208.71 160.085C208.198 159.438 207.911 158.693 207.849 157.852H212.383C212.428 158.131 212.542 158.355 212.724 158.526C212.906 158.696 213.138 158.818 213.423 158.892C213.712 158.972 214.036 159.011 214.394 159.011C215.002 159.011 215.505 158.864 215.903 158.568C216.306 158.273 216.508 157.739 216.508 156.966V154.75H216.371C216.201 155.193 215.94 155.571 215.587 155.884C215.235 156.19 214.812 156.426 214.317 156.591C213.823 156.75 213.281 156.83 212.69 156.83C211.758 156.83 210.9 156.614 210.116 156.182C209.337 155.75 208.712 155.065 208.241 154.128C207.775 153.19 207.542 151.966 207.542 150.455C207.542 148.875 207.786 147.591 208.275 146.602C208.769 145.614 209.406 144.889 210.184 144.429C210.968 143.969 211.792 143.739 212.656 143.739C213.303 143.739 213.871 143.852 214.36 144.08C214.849 144.301 215.258 144.599 215.587 144.974C215.917 145.344 216.167 145.75 216.337 146.193H216.44V143.909H221.144V156.966C221.144 158.074 220.857 159.014 220.283 159.787C219.715 160.565 218.914 161.159 217.88 161.568C216.846 161.977 215.638 162.182 214.258 162.182ZM214.428 153.489C214.86 153.489 215.229 153.369 215.536 153.131C215.849 152.886 216.087 152.54 216.252 152.091C216.423 151.636 216.508 151.091 216.508 150.455C216.508 149.807 216.423 149.253 216.252 148.793C216.087 148.327 215.849 147.972 215.536 147.727C215.229 147.477 214.86 147.352 214.428 147.352C213.996 147.352 213.627 147.477 213.32 147.727C213.019 147.972 212.786 148.327 212.621 148.793C212.462 149.253 212.383 149.807 212.383 150.455C212.383 151.102 212.462 151.653 212.621 152.108C212.786 152.557 213.019 152.901 213.32 153.139C213.627 153.372 213.996 153.489 214.428 153.489ZM229.81 157.239C228.412 157.239 227.207 156.972 226.196 156.438C225.19 155.898 224.415 155.125 223.869 154.119C223.33 153.108 223.06 151.898 223.06 150.489C223.06 149.136 223.332 147.955 223.878 146.943C224.423 145.932 225.193 145.145 226.188 144.582C227.182 144.02 228.355 143.739 229.707 143.739C230.696 143.739 231.591 143.892 232.392 144.199C233.193 144.506 233.878 144.952 234.446 145.537C235.014 146.116 235.452 146.821 235.759 147.651C236.065 148.48 236.219 149.415 236.219 150.455V151.545H224.526V148.955H231.889C231.884 148.58 231.787 148.25 231.599 147.966C231.418 147.676 231.17 147.452 230.858 147.293C230.551 147.128 230.202 147.045 229.81 147.045C229.429 147.045 229.08 147.128 228.761 147.293C228.443 147.452 228.188 147.673 227.994 147.957C227.807 148.241 227.707 148.574 227.696 148.955V151.75C227.696 152.17 227.784 152.545 227.96 152.875C228.136 153.205 228.389 153.463 228.719 153.651C229.048 153.838 229.446 153.932 229.912 153.932C230.236 153.932 230.531 153.886 230.798 153.795C231.071 153.705 231.304 153.574 231.497 153.403C231.69 153.227 231.832 153.017 231.923 152.773H236.219C236.071 153.682 235.722 154.472 235.17 155.142C234.619 155.807 233.889 156.324 232.98 156.693C232.077 157.057 231.02 157.239 229.81 157.239ZM238.138 157V143.909H242.707V146.398H242.843C243.082 145.477 243.46 144.804 243.977 144.378C244.499 143.952 245.11 143.739 245.809 143.739C246.013 143.739 246.215 143.756 246.414 143.79C246.619 143.818 246.815 143.861 247.002 143.918V147.932C246.769 147.852 246.482 147.793 246.141 147.753C245.8 147.713 245.508 147.693 245.263 147.693C244.803 147.693 244.388 147.798 244.019 148.009C243.656 148.213 243.369 148.503 243.158 148.878C242.948 149.247 242.843 149.682 242.843 150.182V157H238.138Z" fill="#09090B"/>
<path d="M41.4091 198V186.364H42.8182V196.75H48.2273V198H41.4091ZM53.8864 198.182C53.0455 198.182 52.3201 197.996 51.7102 197.625C51.1042 197.25 50.6364 196.727 50.3068 196.057C49.9811 195.383 49.8182 194.598 49.8182 193.705C49.8182 192.811 49.9811 192.023 50.3068 191.341C50.6364 190.655 51.0947 190.121 51.6818 189.739C52.2727 189.352 52.9621 189.159 53.75 189.159C54.2045 189.159 54.6534 189.235 55.0966 189.386C55.5398 189.538 55.9432 189.784 56.3068 190.125C56.6705 190.462 56.9602 190.909 57.1761 191.466C57.392 192.023 57.5 192.708 57.5 193.523V194.091H50.7727V192.932H56.1364C56.1364 192.439 56.0379 192 55.8409 191.614C55.6477 191.227 55.3712 190.922 55.0114 190.699C54.6553 190.475 54.2348 190.364 53.75 190.364C53.2159 190.364 52.7538 190.496 52.3636 190.761C51.9773 191.023 51.6799 191.364 51.4716 191.784C51.2633 192.205 51.1591 192.655 51.1591 193.136V193.909C51.1591 194.568 51.2727 195.127 51.5 195.585C51.7311 196.04 52.0511 196.386 52.4602 196.625C52.8693 196.86 53.3447 196.977 53.8864 196.977C54.2386 196.977 54.5568 196.928 54.8409 196.83C55.1288 196.727 55.3769 196.576 55.5852 196.375C55.7936 196.17 55.9545 195.917 56.0682 195.614L57.3636 195.977C57.2273 196.417 56.9981 196.803 56.6761 197.136C56.3542 197.466 55.9564 197.723 55.483 197.909C55.0095 198.091 54.4773 198.182 53.8864 198.182ZM62.8352 198.182C62.108 198.182 61.4659 197.998 60.9091 197.631C60.3523 197.259 59.9167 196.737 59.6023 196.062C59.2879 195.384 59.1307 194.583 59.1307 193.659C59.1307 192.742 59.2879 191.947 59.6023 191.273C59.9167 190.598 60.3542 190.078 60.9148 189.71C61.4754 189.343 62.1231 189.159 62.858 189.159C63.4261 189.159 63.875 189.254 64.2045 189.443C64.5379 189.629 64.7917 189.841 64.9659 190.08C65.1439 190.314 65.2822 190.508 65.3807 190.659H65.4943V186.364H66.8352V198H65.5398V196.659H65.3807C65.2822 196.818 65.142 197.019 64.9602 197.261C64.7784 197.5 64.5189 197.714 64.1818 197.903C63.8447 198.089 63.3958 198.182 62.8352 198.182ZM63.017 196.977C63.5549 196.977 64.0095 196.837 64.3807 196.557C64.7519 196.273 65.0341 195.881 65.2273 195.381C65.4205 194.877 65.517 194.295 65.517 193.636C65.517 192.985 65.4223 192.415 65.233 191.926C65.0436 191.434 64.7633 191.051 64.392 190.778C64.0208 190.502 63.5625 190.364 63.017 190.364C62.4489 190.364 61.9754 190.509 61.5966 190.801C61.2216 191.089 60.9394 191.481 60.75 191.977C60.5644 192.47 60.4716 193.023 60.4716 193.636C60.4716 194.258 60.5663 194.822 60.7557 195.33C60.9489 195.833 61.233 196.235 61.608 196.534C61.9867 196.83 62.4564 196.977 63.017 196.977ZM77.5227 198.182C76.7045 198.182 76 197.989 75.4091 197.602C74.8182 197.216 74.3636 196.684 74.0455 196.006C73.7273 195.328 73.5682 194.553 73.5682 193.682C73.5682 192.795 73.7311 192.013 74.0568 191.335C74.3864 190.653 74.8447 190.121 75.4318 189.739C76.0227 189.352 76.7121 189.159 77.5 189.159C78.1136 189.159 78.6667 189.273 79.1591 189.5C79.6515 189.727 80.0549 190.045 80.3693 190.455C80.6837 190.864 80.8788 191.341 80.9545 191.886H79.6136C79.5114 191.489 79.2841 191.136 78.9318 190.83C78.5833 190.519 78.1136 190.364 77.5227 190.364C77 190.364 76.5417 190.5 76.1477 190.773C75.7576 191.042 75.4527 191.422 75.233 191.915C75.017 192.403 74.9091 192.977 74.9091 193.636C74.9091 194.311 75.0152 194.898 75.2273 195.398C75.4432 195.898 75.7462 196.286 76.1364 196.562C76.5303 196.839 76.9924 196.977 77.5227 196.977C77.8712 196.977 78.1875 196.917 78.4716 196.795C78.7557 196.674 78.9962 196.5 79.1932 196.273C79.3902 196.045 79.5303 195.773 79.6136 195.455H80.9545C80.8788 195.97 80.6913 196.434 80.392 196.847C80.0966 197.256 79.7045 197.581 79.2159 197.824C78.7311 198.062 78.1667 198.182 77.5227 198.182ZM82.9148 198V189.273H84.2102V190.591H84.3011C84.4602 190.159 84.7481 189.809 85.1648 189.54C85.5814 189.271 86.0511 189.136 86.5739 189.136C86.6723 189.136 86.7955 189.138 86.9432 189.142C87.0909 189.146 87.2027 189.152 87.2784 189.159V190.523C87.233 190.511 87.1288 190.494 86.9659 190.472C86.8068 190.445 86.6383 190.432 86.4602 190.432C86.036 190.432 85.6572 190.521 85.3239 190.699C84.9943 190.873 84.733 191.116 84.5398 191.426C84.3504 191.733 84.2557 192.083 84.2557 192.477V198H82.9148ZM92.1477 198.182C91.3598 198.182 90.6686 197.994 90.0739 197.619C89.483 197.244 89.0208 196.72 88.6875 196.045C88.358 195.371 88.1932 194.583 88.1932 193.682C88.1932 192.773 88.358 191.979 88.6875 191.301C89.0208 190.623 89.483 190.097 90.0739 189.722C90.6686 189.347 91.3598 189.159 92.1477 189.159C92.9356 189.159 93.625 189.347 94.2159 189.722C94.8106 190.097 95.2727 190.623 95.6023 191.301C95.9356 191.979 96.1023 192.773 96.1023 193.682C96.1023 194.583 95.9356 195.371 95.6023 196.045C95.2727 196.72 94.8106 197.244 94.2159 197.619C93.625 197.994 92.9356 198.182 92.1477 198.182ZM92.1477 196.977C92.7462 196.977 93.2386 196.824 93.625 196.517C94.0114 196.21 94.2973 195.807 94.483 195.307C94.6686 194.807 94.7614 194.265 94.7614 193.682C94.7614 193.098 94.6686 192.555 94.483 192.051C94.2973 191.547 94.0114 191.14 93.625 190.83C93.2386 190.519 92.7462 190.364 92.1477 190.364C91.5492 190.364 91.0568 190.519 90.6705 190.83C90.2841 191.14 89.9981 191.547 89.8125 192.051C89.6269 192.555 89.5341 193.098 89.5341 193.682C89.5341 194.265 89.6269 194.807 89.8125 195.307C89.9981 195.807 90.2841 196.21 90.6705 196.517C91.0568 196.824 91.5492 196.977 92.1477 196.977ZM104.331 191.227L103.126 191.568C103.051 191.367 102.939 191.172 102.791 190.983C102.647 190.79 102.45 190.631 102.2 190.506C101.95 190.381 101.63 190.318 101.24 190.318C100.706 190.318 100.261 190.441 99.9048 190.688C99.5526 190.93 99.3764 191.239 99.3764 191.614C99.3764 191.947 99.4976 192.21 99.7401 192.403C99.9825 192.597 100.361 192.758 100.876 192.886L102.172 193.205C102.952 193.394 103.534 193.684 103.916 194.074C104.299 194.46 104.49 194.958 104.49 195.568C104.49 196.068 104.346 196.515 104.058 196.909C103.774 197.303 103.376 197.614 102.865 197.841C102.354 198.068 101.759 198.182 101.081 198.182C100.191 198.182 99.4541 197.989 98.8707 197.602C98.2874 197.216 97.9181 196.652 97.7628 195.909L99.0355 195.591C99.1567 196.061 99.3859 196.413 99.723 196.648C100.064 196.883 100.509 197 101.058 197C101.683 197 102.179 196.867 102.547 196.602C102.918 196.333 103.104 196.011 103.104 195.636C103.104 195.333 102.998 195.08 102.786 194.875C102.573 194.667 102.248 194.511 101.808 194.409L100.354 194.068C99.5545 193.879 98.9673 193.585 98.5923 193.188C98.2211 192.786 98.0355 192.284 98.0355 191.682C98.0355 191.189 98.1738 190.754 98.4503 190.375C98.7306 189.996 99.1113 189.699 99.5923 189.483C100.077 189.267 100.626 189.159 101.24 189.159C102.104 189.159 102.782 189.348 103.274 189.727C103.77 190.106 104.123 190.606 104.331 191.227ZM112.69 191.227L111.486 191.568C111.41 191.367 111.298 191.172 111.151 190.983C111.007 190.79 110.81 190.631 110.56 190.506C110.31 190.381 109.99 190.318 109.599 190.318C109.065 190.318 108.62 190.441 108.264 190.688C107.912 190.93 107.736 191.239 107.736 191.614C107.736 191.947 107.857 192.21 108.099 192.403C108.342 192.597 108.721 192.758 109.236 192.886L110.531 193.205C111.312 193.394 111.893 193.684 112.276 194.074C112.658 194.46 112.849 194.958 112.849 195.568C112.849 196.068 112.705 196.515 112.418 196.909C112.134 197.303 111.736 197.614 111.224 197.841C110.713 198.068 110.118 198.182 109.44 198.182C108.55 198.182 107.813 197.989 107.23 197.602C106.647 197.216 106.277 196.652 106.122 195.909L107.395 195.591C107.516 196.061 107.745 196.413 108.082 196.648C108.423 196.883 108.868 197 109.418 197C110.043 197 110.539 196.867 110.906 196.602C111.277 196.333 111.463 196.011 111.463 195.636C111.463 195.333 111.357 195.08 111.145 194.875C110.933 194.667 110.607 194.511 110.168 194.409L108.713 194.068C107.914 193.879 107.327 193.585 106.952 193.188C106.58 192.786 106.395 192.284 106.395 191.682C106.395 191.189 106.533 190.754 106.81 190.375C107.09 189.996 107.471 189.699 107.952 189.483C108.437 189.267 108.986 189.159 109.599 189.159C110.463 189.159 111.141 189.348 111.634 189.727C112.13 190.106 112.482 190.606 112.69 191.227ZM119.868 192.386V193.636H114.777V192.386H119.868ZM126.114 189.273V190.409H121.409V189.273H126.114ZM122.818 198V188.068C122.818 187.568 122.936 187.152 123.17 186.818C123.405 186.485 123.71 186.235 124.085 186.068C124.46 185.902 124.856 185.818 125.273 185.818C125.602 185.818 125.871 185.845 126.08 185.898C126.288 185.951 126.443 186 126.545 186.045L126.159 187.205C126.091 187.182 125.996 187.153 125.875 187.119C125.758 187.085 125.602 187.068 125.409 187.068C124.966 187.068 124.646 187.18 124.449 187.403C124.256 187.627 124.159 187.955 124.159 188.386V198H122.818ZM133.493 194.432V189.273H134.834V198H133.493V196.523H133.402C133.197 196.966 132.879 197.343 132.447 197.653C132.016 197.96 131.47 198.114 130.811 198.114C130.266 198.114 129.781 197.994 129.357 197.756C128.932 197.513 128.599 197.15 128.357 196.665C128.114 196.176 127.993 195.561 127.993 194.818V189.273H129.334V194.727C129.334 195.364 129.512 195.871 129.868 196.25C130.228 196.629 130.686 196.818 131.243 196.818C131.576 196.818 131.915 196.733 132.26 196.562C132.608 196.392 132.9 196.131 133.135 195.778C133.374 195.426 133.493 194.977 133.493 194.432ZM138.631 192.75V198H137.29V189.273H138.585V190.636H138.699C138.903 190.193 139.214 189.837 139.631 189.568C140.047 189.295 140.585 189.159 141.244 189.159C141.835 189.159 142.352 189.28 142.795 189.523C143.239 189.761 143.583 190.125 143.83 190.614C144.076 191.098 144.199 191.712 144.199 192.455V198H142.858V192.545C142.858 191.86 142.68 191.326 142.324 190.943C141.968 190.557 141.479 190.364 140.858 190.364C140.43 190.364 140.047 190.456 139.71 190.642C139.377 190.828 139.114 191.098 138.92 191.455C138.727 191.811 138.631 192.242 138.631 192.75ZM150.195 198.182C149.376 198.182 148.672 197.989 148.081 197.602C147.49 197.216 147.036 196.684 146.717 196.006C146.399 195.328 146.24 194.553 146.24 193.682C146.24 192.795 146.403 192.013 146.729 191.335C147.058 190.653 147.517 190.121 148.104 189.739C148.695 189.352 149.384 189.159 150.172 189.159C150.786 189.159 151.339 189.273 151.831 189.5C152.323 189.727 152.727 190.045 153.041 190.455C153.356 190.864 153.551 191.341 153.626 191.886H152.286C152.183 191.489 151.956 191.136 151.604 190.83C151.255 190.519 150.786 190.364 150.195 190.364C149.672 190.364 149.214 190.5 148.82 190.773C148.429 191.042 148.125 191.422 147.905 191.915C147.689 192.403 147.581 192.977 147.581 193.636C147.581 194.311 147.687 194.898 147.899 195.398C148.115 195.898 148.418 196.286 148.808 196.562C149.202 196.839 149.664 196.977 150.195 196.977C150.543 196.977 150.859 196.917 151.143 196.795C151.428 196.674 151.668 196.5 151.865 196.273C152.062 196.045 152.202 195.773 152.286 195.455H153.626C153.551 195.97 153.363 196.434 153.064 196.847C152.768 197.256 152.376 197.581 151.888 197.824C151.403 198.062 150.839 198.182 150.195 198.182ZM159.382 189.273V190.409H154.859V189.273H159.382ZM156.178 187.182H157.518V195.5C157.518 195.879 157.573 196.163 157.683 196.352C157.797 196.538 157.941 196.663 158.115 196.727C158.293 196.788 158.481 196.818 158.678 196.818C158.825 196.818 158.946 196.811 159.041 196.795C159.136 196.777 159.212 196.761 159.268 196.75L159.541 197.955C159.45 197.989 159.323 198.023 159.161 198.057C158.998 198.095 158.791 198.114 158.541 198.114C158.162 198.114 157.791 198.032 157.428 197.869C157.068 197.706 156.768 197.458 156.53 197.125C156.295 196.792 156.178 196.371 156.178 195.864V187.182ZM161.399 198V189.273H162.74V198H161.399ZM162.081 187.818C161.82 187.818 161.594 187.729 161.405 187.551C161.219 187.373 161.126 187.159 161.126 186.909C161.126 186.659 161.219 186.445 161.405 186.267C161.594 186.089 161.82 186 162.081 186C162.342 186 162.566 186.089 162.751 186.267C162.941 186.445 163.036 186.659 163.036 186.909C163.036 187.159 162.941 187.373 162.751 187.551C162.566 187.729 162.342 187.818 162.081 187.818ZM168.741 198.182C167.954 198.182 167.262 197.994 166.668 197.619C166.077 197.244 165.615 196.72 165.281 196.045C164.952 195.371 164.787 194.583 164.787 193.682C164.787 192.773 164.952 191.979 165.281 191.301C165.615 190.623 166.077 190.097 166.668 189.722C167.262 189.347 167.954 189.159 168.741 189.159C169.529 189.159 170.219 189.347 170.81 189.722C171.404 190.097 171.866 190.623 172.196 191.301C172.529 191.979 172.696 192.773 172.696 193.682C172.696 194.583 172.529 195.371 172.196 196.045C171.866 196.72 171.404 197.244 170.81 197.619C170.219 197.994 169.529 198.182 168.741 198.182ZM168.741 196.977C169.34 196.977 169.832 196.824 170.219 196.517C170.605 196.21 170.891 195.807 171.077 195.307C171.262 194.807 171.355 194.265 171.355 193.682C171.355 193.098 171.262 192.555 171.077 192.051C170.891 191.547 170.605 191.14 170.219 190.83C169.832 190.519 169.34 190.364 168.741 190.364C168.143 190.364 167.651 190.519 167.264 190.83C166.878 191.14 166.592 191.547 166.406 192.051C166.221 192.555 166.128 193.098 166.128 193.682C166.128 194.265 166.221 194.807 166.406 195.307C166.592 195.807 166.878 196.21 167.264 196.517C167.651 196.824 168.143 196.977 168.741 196.977ZM176.084 192.75V198H174.743V189.273H176.038V190.636H176.152C176.357 190.193 176.667 189.837 177.084 189.568C177.5 189.295 178.038 189.159 178.697 189.159C179.288 189.159 179.805 189.28 180.249 189.523C180.692 189.761 181.036 190.125 181.283 190.614C181.529 191.098 181.652 191.712 181.652 192.455V198H180.311V192.545C180.311 191.86 180.133 191.326 179.777 190.943C179.421 190.557 178.932 190.364 178.311 190.364C177.883 190.364 177.5 190.456 177.163 190.642C176.83 190.828 176.567 191.098 176.374 191.455C176.18 191.811 176.084 192.242 176.084 192.75ZM186.67 198.205C186.117 198.205 185.616 198.1 185.165 197.892C184.714 197.68 184.356 197.375 184.091 196.977C183.826 196.576 183.693 196.091 183.693 195.523C183.693 195.023 183.792 194.617 183.989 194.307C184.186 193.992 184.449 193.746 184.778 193.568C185.108 193.39 185.472 193.258 185.869 193.17C186.271 193.08 186.674 193.008 187.08 192.955C187.61 192.886 188.04 192.835 188.369 192.801C188.703 192.763 188.945 192.701 189.097 192.614C189.252 192.527 189.33 192.375 189.33 192.159V192.114C189.33 191.553 189.176 191.117 188.869 190.807C188.566 190.496 188.106 190.341 187.489 190.341C186.848 190.341 186.347 190.481 185.983 190.761C185.619 191.042 185.364 191.341 185.216 191.659L183.943 191.205C184.17 190.674 184.473 190.261 184.852 189.966C185.235 189.667 185.652 189.458 186.102 189.341C186.557 189.22 187.004 189.159 187.443 189.159C187.723 189.159 188.045 189.193 188.409 189.261C188.777 189.326 189.131 189.46 189.472 189.665C189.816 189.869 190.102 190.178 190.33 190.591C190.557 191.004 190.67 191.557 190.67 192.25V198H189.33V196.818H189.261C189.17 197.008 189.019 197.21 188.807 197.426C188.595 197.642 188.313 197.826 187.96 197.977C187.608 198.129 187.178 198.205 186.67 198.205ZM186.875 197C187.405 197 187.852 196.896 188.216 196.688C188.583 196.479 188.86 196.21 189.045 195.881C189.235 195.551 189.33 195.205 189.33 194.841V193.614C189.273 193.682 189.148 193.744 188.955 193.801C188.765 193.854 188.545 193.902 188.295 193.943C188.049 193.981 187.809 194.015 187.574 194.045C187.343 194.072 187.155 194.095 187.011 194.114C186.663 194.159 186.337 194.233 186.034 194.335C185.735 194.434 185.492 194.583 185.307 194.784C185.125 194.981 185.034 195.25 185.034 195.591C185.034 196.057 185.206 196.409 185.551 196.648C185.9 196.883 186.341 197 186.875 197ZM194.459 186.364V198H193.118V186.364H194.459ZM203.983 198.205C203.43 198.205 202.928 198.1 202.477 197.892C202.027 197.68 201.669 197.375 201.403 196.977C201.138 196.576 201.006 196.091 201.006 195.523C201.006 195.023 201.104 194.617 201.301 194.307C201.498 193.992 201.761 193.746 202.091 193.568C202.42 193.39 202.784 193.258 203.182 193.17C203.583 193.08 203.987 193.008 204.392 192.955C204.922 192.886 205.352 192.835 205.682 192.801C206.015 192.763 206.258 192.701 206.409 192.614C206.564 192.527 206.642 192.375 206.642 192.159V192.114C206.642 191.553 206.489 191.117 206.182 190.807C205.879 190.496 205.419 190.341 204.801 190.341C204.161 190.341 203.659 190.481 203.295 190.761C202.932 191.042 202.676 191.341 202.528 191.659L201.256 191.205C201.483 190.674 201.786 190.261 202.165 189.966C202.547 189.667 202.964 189.458 203.415 189.341C203.869 189.22 204.316 189.159 204.756 189.159C205.036 189.159 205.358 189.193 205.722 189.261C206.089 189.326 206.443 189.46 206.784 189.665C207.129 189.869 207.415 190.178 207.642 190.591C207.869 191.004 207.983 191.557 207.983 192.25V198H206.642V196.818H206.574C206.483 197.008 206.331 197.21 206.119 197.426C205.907 197.642 205.625 197.826 205.273 197.977C204.92 198.129 204.491 198.205 203.983 198.205ZM204.188 197C204.718 197 205.165 196.896 205.528 196.688C205.896 196.479 206.172 196.21 206.358 195.881C206.547 195.551 206.642 195.205 206.642 194.841V193.614C206.585 193.682 206.46 193.744 206.267 193.801C206.078 193.854 205.858 193.902 205.608 193.943C205.362 193.981 205.121 194.015 204.886 194.045C204.655 194.072 204.468 194.095 204.324 194.114C203.975 194.159 203.65 194.233 203.347 194.335C203.047 194.434 202.805 194.583 202.619 194.784C202.438 194.981 202.347 195.25 202.347 195.591C202.347 196.057 202.519 196.409 202.864 196.648C203.212 196.883 203.653 197 204.188 197ZM213.953 201.455C213.305 201.455 212.749 201.371 212.283 201.205C211.817 201.042 211.429 200.826 211.118 200.557C210.811 200.292 210.567 200.008 210.385 199.705L211.453 198.955C211.574 199.114 211.728 199.295 211.913 199.5C212.099 199.708 212.353 199.888 212.675 200.04C213 200.195 213.427 200.273 213.953 200.273C214.658 200.273 215.239 200.102 215.697 199.761C216.156 199.42 216.385 198.886 216.385 198.159V196.386H216.271C216.173 196.545 216.033 196.742 215.851 196.977C215.673 197.208 215.415 197.415 215.078 197.597C214.745 197.775 214.294 197.864 213.726 197.864C213.021 197.864 212.389 197.697 211.828 197.364C211.271 197.03 210.83 196.545 210.504 195.909C210.182 195.273 210.021 194.5 210.021 193.591C210.021 192.697 210.179 191.919 210.493 191.256C210.807 190.589 211.245 190.074 211.805 189.71C212.366 189.343 213.014 189.159 213.749 189.159C214.317 189.159 214.768 189.254 215.101 189.443C215.438 189.629 215.696 189.841 215.874 190.08C216.055 190.314 216.196 190.508 216.294 190.659H216.43V189.273H217.726V198.25C217.726 199 217.555 199.61 217.214 200.08C216.877 200.553 216.423 200.9 215.851 201.119C215.283 201.343 214.65 201.455 213.953 201.455ZM213.908 196.659C214.446 196.659 214.9 196.536 215.271 196.29C215.643 196.044 215.925 195.689 216.118 195.227C216.311 194.765 216.408 194.212 216.408 193.568C216.408 192.939 216.313 192.384 216.124 191.903C215.934 191.422 215.654 191.045 215.283 190.773C214.911 190.5 214.453 190.364 213.908 190.364C213.339 190.364 212.866 190.508 212.487 190.795C212.112 191.083 211.83 191.47 211.641 191.955C211.455 192.439 211.362 192.977 211.362 193.568C211.362 194.174 211.457 194.71 211.646 195.176C211.839 195.638 212.124 196.002 212.499 196.267C212.877 196.528 213.347 196.659 213.908 196.659ZM220.18 198V189.273H221.521V198H220.18ZM220.862 187.818C220.601 187.818 220.375 187.729 220.186 187.551C220 187.373 219.908 187.159 219.908 186.909C219.908 186.659 220 186.445 220.186 186.267C220.375 186.089 220.601 186 220.862 186C221.124 186 221.347 186.089 221.533 186.267C221.722 186.445 221.817 186.659 221.817 186.909C221.817 187.159 221.722 187.373 221.533 187.551C221.347 187.729 221.124 187.818 220.862 187.818ZM225.318 186.364V198H223.977V186.364H225.318ZM231.433 198.182C230.592 198.182 229.867 197.996 229.257 197.625C228.651 197.25 228.183 196.727 227.854 196.057C227.528 195.383 227.365 194.598 227.365 193.705C227.365 192.811 227.528 192.023 227.854 191.341C228.183 190.655 228.642 190.121 229.229 189.739C229.82 189.352 230.509 189.159 231.297 189.159C231.751 189.159 232.2 189.235 232.643 189.386C233.087 189.538 233.49 189.784 233.854 190.125C234.217 190.462 234.507 190.909 234.723 191.466C234.939 192.023 235.047 192.708 235.047 193.523V194.091H228.32V192.932H233.683C233.683 192.439 233.585 192 233.388 191.614C233.195 191.227 232.918 190.922 232.558 190.699C232.202 190.475 231.782 190.364 231.297 190.364C230.763 190.364 230.301 190.496 229.911 190.761C229.524 191.023 229.227 191.364 229.018 191.784C228.81 192.205 228.706 192.655 228.706 193.136V193.909C228.706 194.568 228.82 195.127 229.047 195.585C229.278 196.04 229.598 196.386 230.007 196.625C230.416 196.86 230.892 196.977 231.433 196.977C231.786 196.977 232.104 196.928 232.388 196.83C232.676 196.727 232.924 196.576 233.132 196.375C233.34 196.17 233.501 195.917 233.615 195.614L234.911 195.977C234.774 196.417 234.545 196.803 234.223 197.136C233.901 197.466 233.503 197.723 233.03 197.909C232.556 198.091 232.024 198.182 231.433 198.182ZM241.587 201.273V189.273H242.882V190.659H243.041C243.14 190.508 243.276 190.314 243.45 190.08C243.628 189.841 243.882 189.629 244.212 189.443C244.545 189.254 244.996 189.159 245.564 189.159C246.299 189.159 246.946 189.343 247.507 189.71C248.068 190.078 248.505 190.598 248.82 191.273C249.134 191.947 249.291 192.742 249.291 193.659C249.291 194.583 249.134 195.384 248.82 196.062C248.505 196.737 248.07 197.259 247.513 197.631C246.956 197.998 246.314 198.182 245.587 198.182C245.026 198.182 244.577 198.089 244.24 197.903C243.903 197.714 243.643 197.5 243.462 197.261C243.28 197.019 243.14 196.818 243.041 196.659H242.928V201.273H241.587ZM242.905 193.636C242.905 194.295 243.001 194.877 243.195 195.381C243.388 195.881 243.67 196.273 244.041 196.557C244.412 196.837 244.867 196.977 245.405 196.977C245.965 196.977 246.433 196.83 246.808 196.534C247.187 196.235 247.471 195.833 247.661 195.33C247.854 194.822 247.95 194.258 247.95 193.636C247.95 193.023 247.856 192.47 247.666 191.977C247.481 191.481 247.198 191.089 246.82 190.801C246.445 190.509 245.973 190.364 245.405 190.364C244.859 190.364 244.401 190.502 244.03 190.778C243.659 191.051 243.378 191.434 243.189 191.926C243 192.415 242.905 192.985 242.905 193.636ZM251.337 198V189.273H252.632V190.591H252.723C252.882 190.159 253.17 189.809 253.587 189.54C254.003 189.271 254.473 189.136 254.996 189.136C255.094 189.136 255.217 189.138 255.365 189.142C255.513 189.146 255.625 189.152 255.7 189.159V190.523C255.655 190.511 255.551 190.494 255.388 190.472C255.229 190.445 255.06 190.432 254.882 190.432C254.458 190.432 254.079 190.521 253.746 190.699C253.416 190.873 253.155 191.116 252.962 191.426C252.772 191.733 252.678 192.083 252.678 192.477V198H251.337ZM260.57 198.182C259.782 198.182 259.09 197.994 258.496 197.619C257.905 197.244 257.443 196.72 257.109 196.045C256.78 195.371 256.615 194.583 256.615 193.682C256.615 192.773 256.78 191.979 257.109 191.301C257.443 190.623 257.905 190.097 258.496 189.722C259.09 189.347 259.782 189.159 260.57 189.159C261.357 189.159 262.047 189.347 262.638 189.722C263.232 190.097 263.695 190.623 264.024 191.301C264.357 191.979 264.524 192.773 264.524 193.682C264.524 194.583 264.357 195.371 264.024 196.045C263.695 196.72 263.232 197.244 262.638 197.619C262.047 197.994 261.357 198.182 260.57 198.182ZM260.57 196.977C261.168 196.977 261.661 196.824 262.047 196.517C262.433 196.21 262.719 195.807 262.905 195.307C263.09 194.807 263.183 194.265 263.183 193.682C263.183 193.098 263.09 192.555 262.905 192.051C262.719 191.547 262.433 191.14 262.047 190.83C261.661 190.519 261.168 190.364 260.57 190.364C259.971 190.364 259.479 190.519 259.092 190.83C258.706 191.14 258.42 191.547 258.234 192.051C258.049 192.555 257.956 193.098 257.956 193.682C257.956 194.265 258.049 194.807 258.234 195.307C258.42 195.807 258.706 196.21 259.092 196.517C259.479 196.824 259.971 196.977 260.57 196.977ZM269.866 198.182C269.139 198.182 268.497 197.998 267.94 197.631C267.384 197.259 266.948 196.737 266.634 196.062C266.319 195.384 266.162 194.583 266.162 193.659C266.162 192.742 266.319 191.947 266.634 191.273C266.948 190.598 267.385 190.078 267.946 189.71C268.507 189.343 269.154 189.159 269.889 189.159C270.457 189.159 270.906 189.254 271.236 189.443C271.569 189.629 271.823 189.841 271.997 190.08C272.175 190.314 272.313 190.508 272.412 190.659H272.526V186.364H273.866V198H272.571V196.659H272.412C272.313 196.818 272.173 197.019 271.991 197.261C271.81 197.5 271.55 197.714 271.213 197.903C270.876 198.089 270.427 198.182 269.866 198.182ZM270.048 196.977C270.586 196.977 271.041 196.837 271.412 196.557C271.783 196.273 272.065 195.881 272.259 195.381C272.452 194.877 272.548 194.295 272.548 193.636C272.548 192.985 272.454 192.415 272.264 191.926C272.075 191.434 271.795 191.051 271.423 190.778C271.052 190.502 270.594 190.364 270.048 190.364C269.48 190.364 269.007 190.509 268.628 190.801C268.253 191.089 267.971 191.481 267.781 191.977C267.596 192.47 267.503 193.023 267.503 193.636C267.503 194.258 267.598 194.822 267.787 195.33C267.98 195.833 268.264 196.235 268.639 196.534C269.018 196.83 269.488 196.977 270.048 196.977ZM282.009 194.432V189.273H283.349V198H282.009V196.523H281.918C281.713 196.966 281.395 197.343 280.963 197.653C280.531 197.96 279.986 198.114 279.327 198.114C278.781 198.114 278.296 197.994 277.872 197.756C277.448 197.513 277.115 197.15 276.872 196.665C276.63 196.176 276.509 195.561 276.509 194.818V189.273H277.849V194.727C277.849 195.364 278.027 195.871 278.384 196.25C278.743 196.629 279.202 196.818 279.759 196.818C280.092 196.818 280.431 196.733 280.776 196.562C281.124 196.392 281.416 196.131 281.651 195.778C281.889 195.426 282.009 194.977 282.009 194.432ZM289.351 198.182C288.533 198.182 287.828 197.989 287.237 197.602C286.646 197.216 286.192 196.684 285.874 196.006C285.555 195.328 285.396 194.553 285.396 193.682C285.396 192.795 285.559 192.013 285.885 191.335C286.214 190.653 286.673 190.121 287.26 189.739C287.851 189.352 288.54 189.159 289.328 189.159C289.942 189.159 290.495 189.273 290.987 189.5C291.48 189.727 291.883 190.045 292.197 190.455C292.512 190.864 292.707 191.341 292.783 191.886H291.442C291.339 191.489 291.112 191.136 290.76 190.83C290.411 190.519 289.942 190.364 289.351 190.364C288.828 190.364 288.37 190.5 287.976 190.773C287.586 191.042 287.281 191.422 287.061 191.915C286.845 192.403 286.737 192.977 286.737 193.636C286.737 194.311 286.843 194.898 287.055 195.398C287.271 195.898 287.574 196.286 287.964 196.562C288.358 196.839 288.821 196.977 289.351 196.977C289.699 196.977 290.016 196.917 290.3 196.795C290.584 196.674 290.824 196.5 291.021 196.273C291.218 196.045 291.358 195.773 291.442 195.455H292.783C292.707 195.97 292.519 196.434 292.22 196.847C291.925 197.256 291.533 197.581 291.044 197.824C290.559 198.062 289.995 198.182 289.351 198.182ZM298.538 189.273V190.409H294.016V189.273H298.538ZM295.334 187.182H296.675V195.5C296.675 195.879 296.73 196.163 296.839 196.352C296.953 196.538 297.097 196.663 297.271 196.727C297.449 196.788 297.637 196.818 297.834 196.818C297.982 196.818 298.103 196.811 298.197 196.795C298.292 196.777 298.368 196.761 298.425 196.75L298.697 197.955C298.607 197.989 298.48 198.023 298.317 198.057C298.154 198.095 297.947 198.114 297.697 198.114C297.319 198.114 296.947 198.032 296.584 197.869C296.224 197.706 295.925 197.458 295.686 197.125C295.451 196.792 295.334 196.371 295.334 195.864V187.182ZM45.0227 213.273V214.409H40.5V213.273H45.0227ZM41.8182 211.182H43.1591V219.5C43.1591 219.879 43.214 220.163 43.3239 220.352C43.4375 220.538 43.5814 220.663 43.7557 220.727C43.9337 220.788 44.1212 220.818 44.3182 220.818C44.4659 220.818 44.5871 220.811 44.6818 220.795C44.7765 220.777 44.8523 220.761 44.9091 220.75L45.1818 221.955C45.0909 221.989 44.964 222.023 44.8011 222.057C44.6383 222.095 44.4318 222.114 44.1818 222.114C43.803 222.114 43.4318 222.032 43.0682 221.869C42.7083 221.706 42.4091 221.458 42.1705 221.125C41.9356 220.792 41.8182 220.371 41.8182 219.864V211.182ZM50.6051 222.182C49.7642 222.182 49.0388 221.996 48.429 221.625C47.8229 221.25 47.3551 220.727 47.0256 220.057C46.6998 219.383 46.5369 218.598 46.5369 217.705C46.5369 216.811 46.6998 216.023 47.0256 215.341C47.3551 214.655 47.8134 214.121 48.4006 213.739C48.9915 213.352 49.6809 213.159 50.4688 213.159C50.9233 213.159 51.3722 213.235 51.8153 213.386C52.2585 213.538 52.6619 213.784 53.0256 214.125C53.3892 214.462 53.679 214.909 53.8949 215.466C54.1108 216.023 54.2188 216.708 54.2188 217.523V218.091H47.4915V216.932H52.8551C52.8551 216.439 52.7566 216 52.5597 215.614C52.3665 215.227 52.09 214.922 51.7301 214.699C51.3741 214.475 50.9536 214.364 50.4688 214.364C49.9347 214.364 49.4725 214.496 49.0824 214.761C48.696 215.023 48.3987 215.364 48.1903 215.784C47.982 216.205 47.8778 216.655 47.8778 217.136V217.909C47.8778 218.568 47.9915 219.127 48.2188 219.585C48.4498 220.04 48.7699 220.386 49.179 220.625C49.5881 220.86 50.0634 220.977 50.6051 220.977C50.9574 220.977 51.2756 220.928 51.5597 220.83C51.8475 220.727 52.0956 220.576 52.304 220.375C52.5123 220.17 52.6733 219.917 52.7869 219.614L54.0824 219.977C53.946 220.417 53.7169 220.803 53.3949 221.136C53.0729 221.466 52.6752 221.723 52.2017 221.909C51.7282 222.091 51.196 222.182 50.6051 222.182ZM58.8267 222.205C58.2737 222.205 57.7718 222.1 57.321 221.892C56.8703 221.68 56.5123 221.375 56.2472 220.977C55.982 220.576 55.8494 220.091 55.8494 219.523C55.8494 219.023 55.9479 218.617 56.1449 218.307C56.3419 217.992 56.6051 217.746 56.9347 217.568C57.2642 217.39 57.6278 217.258 58.0256 217.17C58.4271 217.08 58.8305 217.008 59.2358 216.955C59.7661 216.886 60.196 216.835 60.5256 216.801C60.8589 216.763 61.1013 216.701 61.2528 216.614C61.4081 216.527 61.4858 216.375 61.4858 216.159V216.114C61.4858 215.553 61.3324 215.117 61.0256 214.807C60.7225 214.496 60.2623 214.341 59.6449 214.341C59.0047 214.341 58.5028 214.481 58.1392 214.761C57.7756 215.042 57.5199 215.341 57.3722 215.659L56.0994 215.205C56.3267 214.674 56.6297 214.261 57.0085 213.966C57.3911 213.667 57.8078 213.458 58.2585 213.341C58.7131 213.22 59.16 213.159 59.5994 213.159C59.8797 213.159 60.2017 213.193 60.5653 213.261C60.9328 213.326 61.2869 213.46 61.6278 213.665C61.9725 213.869 62.2585 214.178 62.4858 214.591C62.7131 215.004 62.8267 215.557 62.8267 216.25V222H61.4858V220.818H61.4176C61.3267 221.008 61.1752 221.21 60.9631 221.426C60.7509 221.642 60.4688 221.826 60.1165 221.977C59.7642 222.129 59.3343 222.205 58.8267 222.205ZM59.0312 221C59.5616 221 60.0085 220.896 60.3722 220.688C60.7396 220.479 61.0161 220.21 61.2017 219.881C61.3911 219.551 61.4858 219.205 61.4858 218.841V217.614C61.429 217.682 61.304 217.744 61.1108 217.801C60.9214 217.854 60.7017 217.902 60.4517 217.943C60.2055 217.981 59.965 218.015 59.7301 218.045C59.4991 218.072 59.3116 218.095 59.1676 218.114C58.8191 218.159 58.4934 218.233 58.1903 218.335C57.8911 218.434 57.6487 218.583 57.4631 218.784C57.2813 218.981 57.1903 219.25 57.1903 219.591C57.1903 220.057 57.3627 220.409 57.7074 220.648C58.0559 220.883 58.4972 221 59.0312 221ZM65.2741 222V213.273H66.5696V214.636H66.6832C66.8651 214.17 67.1586 213.809 67.5639 213.551C67.9692 213.29 68.456 213.159 69.0241 213.159C69.5999 213.159 70.0791 213.29 70.4616 213.551C70.848 213.809 71.1491 214.17 71.3651 214.636H71.456C71.6795 214.186 72.0147 213.828 72.4616 213.562C72.9086 213.294 73.4446 213.159 74.0696 213.159C74.8499 213.159 75.4882 213.403 75.9844 213.892C76.4806 214.377 76.7287 215.133 76.7287 216.159V222H75.3878V216.159C75.3878 215.515 75.2116 215.055 74.8594 214.778C74.5071 214.502 74.0923 214.364 73.6151 214.364C73.0014 214.364 72.526 214.549 72.1889 214.92C71.8518 215.288 71.6832 215.754 71.6832 216.318V222H70.3196V216.023C70.3196 215.527 70.1586 215.127 69.8366 214.824C69.5147 214.517 69.0999 214.364 68.5923 214.364C68.2438 214.364 67.9181 214.456 67.6151 214.642C67.3158 214.828 67.0734 215.085 66.8878 215.415C66.706 215.741 66.6151 216.117 66.6151 216.545V222H65.2741ZM80.1577 222.091C79.8774 222.091 79.6368 221.991 79.4361 221.79C79.2353 221.589 79.1349 221.348 79.1349 221.068C79.1349 220.788 79.2353 220.547 79.4361 220.347C79.6368 220.146 79.8774 220.045 80.1577 220.045C80.438 220.045 80.6785 220.146 80.8793 220.347C81.08 220.547 81.1804 220.788 81.1804 221.068C81.1804 221.254 81.133 221.424 81.0384 221.58C80.9474 221.735 80.8243 221.86 80.669 221.955C80.5175 222.045 80.3471 222.091 80.1577 222.091Z" fill="#09090B"/>
<rect x="40.5" y="244.5" width="78" height="31" rx="7.5" fill="url(#paint1_linear_43_4340)"/>
<path d="M48.7585 264V255.273H52.2017C52.8608 255.273 53.4233 255.391 53.8892 255.626C54.358 255.859 54.7145 256.19 54.9588 256.619C55.206 257.045 55.3295 257.547 55.3295 258.124C55.3295 258.703 55.2045 259.202 54.9545 259.619C54.7045 260.034 54.3423 260.352 53.8679 260.574C53.3963 260.795 52.8253 260.906 52.1548 260.906H49.8494V259.423H51.8565C52.2088 259.423 52.5014 259.375 52.7344 259.278C52.9673 259.182 53.1406 259.037 53.2543 258.844C53.3707 258.651 53.429 258.411 53.429 258.124C53.429 257.834 53.3707 257.589 53.2543 257.391C53.1406 257.192 52.9659 257.041 52.7301 256.939C52.4972 256.834 52.2031 256.781 51.848 256.781H50.6037V264H48.7585ZM53.4716 260.028L55.6406 264H53.6037L51.4815 260.028H53.4716ZM59.4769 264.128C58.8036 264.128 58.2241 263.991 57.7383 263.719C57.2553 263.443 56.8832 263.054 56.6218 262.551C56.3604 262.045 56.2298 261.447 56.2298 260.757C56.2298 260.084 56.3604 259.493 56.6218 258.984C56.8832 258.476 57.2511 258.08 57.7255 257.795C58.2028 257.511 58.7624 257.369 59.4045 257.369C59.8363 257.369 60.2383 257.439 60.6104 257.578C60.9854 257.714 61.3121 257.92 61.5906 258.196C61.8718 258.472 62.0906 258.818 62.2468 259.236C62.4031 259.651 62.4812 260.136 62.4812 260.693V261.192H56.9542V260.067H60.7724C60.7724 259.805 60.7156 259.574 60.6019 259.372C60.4883 259.17 60.3306 259.013 60.1289 258.899C59.93 258.783 59.6985 258.724 59.4343 258.724C59.1587 258.724 58.9144 258.788 58.7013 258.916C58.4911 259.041 58.3263 259.21 58.207 259.423C58.0877 259.634 58.0266 259.868 58.0238 260.126V261.196C58.0238 261.52 58.0835 261.8 58.2028 262.036C58.3249 262.271 58.4968 262.453 58.7184 262.581C58.94 262.709 59.2028 262.773 59.5067 262.773C59.7085 262.773 59.8931 262.744 60.0607 262.688C60.2283 262.631 60.3718 262.545 60.4911 262.432C60.6104 262.318 60.7013 262.179 60.7638 262.014L62.4428 262.125C62.3576 262.528 62.1829 262.881 61.9187 263.182C61.6573 263.48 61.3192 263.713 60.9045 263.881C60.4925 264.045 60.0167 264.128 59.4769 264.128ZM65.5323 264.124C65.1147 264.124 64.7425 264.051 64.4158 263.906C64.0891 263.759 63.8306 263.541 63.6403 263.254C63.4528 262.964 63.359 262.604 63.359 262.172C63.359 261.808 63.4258 261.503 63.5593 261.256C63.6928 261.009 63.8746 260.81 64.1048 260.659C64.3349 260.509 64.5962 260.395 64.8888 260.318C65.1843 260.241 65.494 260.188 65.8178 260.156C66.1985 260.116 66.5053 260.08 66.7383 260.045C66.9712 260.009 67.1403 259.955 67.2454 259.884C67.3505 259.812 67.4031 259.707 67.4031 259.568V259.543C67.4031 259.273 67.3178 259.064 67.1474 258.916C66.9798 258.768 66.7411 258.695 66.4315 258.695C66.1048 258.695 65.8448 258.767 65.6516 258.912C65.4585 259.054 65.3306 259.233 65.2681 259.449L63.5891 259.312C63.6744 258.915 63.842 258.571 64.092 258.281C64.342 257.989 64.6644 257.764 65.0593 257.608C65.457 257.449 65.9173 257.369 66.44 257.369C66.8036 257.369 67.1516 257.412 67.484 257.497C67.8192 257.582 68.1161 257.714 68.3746 257.893C68.636 258.072 68.842 258.303 68.9925 258.584C69.1431 258.862 69.2184 259.196 69.2184 259.585V264H67.4968V263.092H67.4457C67.3406 263.297 67.1999 263.477 67.0238 263.634C66.8477 263.787 66.636 263.908 66.3888 263.996C66.1417 264.081 65.8562 264.124 65.5323 264.124ZM66.0522 262.871C66.3192 262.871 66.555 262.818 66.7596 262.713C66.9641 262.605 67.1246 262.46 67.2411 262.278C67.3576 262.097 67.4158 261.891 67.4158 261.661V260.966C67.359 261.003 67.2809 261.037 67.1815 261.068C67.0849 261.097 66.9755 261.124 66.8533 261.149C66.7312 261.172 66.609 261.193 66.4869 261.213C66.3647 261.23 66.2539 261.246 66.1545 261.26C65.9414 261.291 65.7553 261.341 65.5962 261.409C65.4371 261.477 65.3136 261.57 65.2255 261.686C65.1374 261.8 65.0934 261.942 65.0934 262.112C65.0934 262.359 65.1829 262.548 65.3619 262.679C65.5437 262.807 65.7738 262.871 66.0522 262.871ZM73.0387 264.107C72.5415 264.107 72.0913 263.979 71.6879 263.723C71.2873 263.464 70.9691 263.085 70.7333 262.585C70.5004 262.082 70.3839 261.466 70.3839 260.736C70.3839 259.986 70.5046 259.362 70.7461 258.865C70.9876 258.365 71.3086 257.991 71.7092 257.744C72.1126 257.494 72.5543 257.369 73.0344 257.369C73.4009 257.369 73.7063 257.432 73.9506 257.557C74.1978 257.679 74.3967 257.832 74.5472 258.017C74.7006 258.199 74.8171 258.378 74.8967 258.554H74.9521V255.273H76.7631V264H74.9734V262.952H74.8967C74.8114 263.134 74.6907 263.314 74.5344 263.493C74.381 263.669 74.1808 263.815 73.9336 263.932C73.6893 264.048 73.391 264.107 73.0387 264.107ZM73.614 262.662C73.9066 262.662 74.1538 262.582 74.3555 262.423C74.56 262.261 74.7163 262.036 74.8242 261.746C74.935 261.456 74.9904 261.116 74.9904 260.727C74.9904 260.338 74.9364 260 74.8285 259.713C74.7205 259.426 74.5643 259.205 74.3597 259.048C74.1552 258.892 73.9066 258.814 73.614 258.814C73.3157 258.814 73.0643 258.895 72.8597 259.057C72.6552 259.219 72.5004 259.443 72.3952 259.73C72.2901 260.017 72.2376 260.349 72.2376 260.727C72.2376 261.108 72.2901 261.445 72.3952 261.737C72.5032 262.027 72.658 262.254 72.8597 262.419C73.0643 262.581 73.3157 262.662 73.614 262.662ZM81.033 264V257.455H82.7631V258.609H82.8398C82.9762 258.226 83.2035 257.923 83.5217 257.702C83.8398 257.48 84.2205 257.369 84.6637 257.369C85.1126 257.369 85.4947 257.482 85.81 257.706C86.1254 257.928 86.3356 258.229 86.4407 258.609H86.5089C86.6424 258.234 86.8839 257.935 87.2333 257.71C87.5856 257.483 88.0018 257.369 88.4819 257.369C89.0927 257.369 89.5884 257.564 89.9691 257.953C90.3526 258.339 90.5444 258.888 90.5444 259.598V264H88.7333V259.956C88.7333 259.592 88.6367 259.32 88.4435 259.138C88.2504 258.956 88.0089 258.865 87.7191 258.865C87.3896 258.865 87.1325 258.97 86.9478 259.18C86.7631 259.388 86.6708 259.662 86.6708 260.003V264H84.9109V259.918C84.9109 259.597 84.8185 259.341 84.6339 259.151C84.4521 258.96 84.212 258.865 83.9137 258.865C83.712 258.865 83.5302 258.916 83.3683 259.018C83.2092 259.118 83.0827 259.259 82.989 259.44C82.8952 259.619 82.8484 259.83 82.8484 260.071V264H81.033ZM94.9357 264.128C94.2738 264.128 93.7013 263.987 93.2184 263.706C92.7383 263.422 92.3675 263.027 92.1062 262.521C91.8448 262.013 91.7141 261.423 91.7141 260.753C91.7141 260.077 91.8448 259.486 92.1062 258.98C92.3675 258.472 92.7383 258.077 93.2184 257.795C93.7013 257.511 94.2738 257.369 94.9357 257.369C95.5977 257.369 96.1687 257.511 96.6488 257.795C97.1317 258.077 97.5039 258.472 97.7653 258.98C98.0266 259.486 98.1573 260.077 98.1573 260.753C98.1573 261.423 98.0266 262.013 97.7653 262.521C97.5039 263.027 97.1317 263.422 96.6488 263.706C96.1687 263.987 95.5977 264.128 94.9357 264.128ZM94.9442 262.722C95.2454 262.722 95.4968 262.636 95.6985 262.466C95.9002 262.293 96.0522 262.057 96.1545 261.759C96.2596 261.46 96.3121 261.121 96.3121 260.74C96.3121 260.359 96.2596 260.02 96.1545 259.722C96.0522 259.423 95.9002 259.187 95.6985 259.014C95.4968 258.841 95.2454 258.754 94.9442 258.754C94.6403 258.754 94.3846 258.841 94.1772 259.014C93.9727 259.187 93.8178 259.423 93.7127 259.722C93.6104 260.02 93.5593 260.359 93.5593 260.74C93.5593 261.121 93.6104 261.46 93.7127 261.759C93.8178 262.057 93.9727 262.293 94.1772 262.466C94.3846 262.636 94.6403 262.722 94.9442 262.722ZM99.3377 264V257.455H101.098V258.597H101.166C101.285 258.19 101.485 257.884 101.767 257.676C102.048 257.466 102.372 257.361 102.738 257.361C102.829 257.361 102.927 257.366 103.032 257.378C103.137 257.389 103.23 257.405 103.309 257.425V259.036C103.224 259.01 103.106 258.987 102.956 258.967C102.805 258.947 102.667 258.938 102.542 258.938C102.275 258.938 102.037 258.996 101.826 259.112C101.619 259.226 101.454 259.385 101.332 259.589C101.213 259.794 101.153 260.03 101.153 260.297V264H99.3377ZM106.926 264.128C106.253 264.128 105.673 263.991 105.188 263.719C104.705 263.443 104.332 263.054 104.071 262.551C103.81 262.045 103.679 261.447 103.679 260.757C103.679 260.084 103.81 259.493 104.071 258.984C104.332 258.476 104.7 258.08 105.175 257.795C105.652 257.511 106.212 257.369 106.854 257.369C107.286 257.369 107.688 257.439 108.06 257.578C108.435 257.714 108.761 257.92 109.04 258.196C109.321 258.472 109.54 258.818 109.696 259.236C109.852 259.651 109.93 260.136 109.93 260.693V261.192H104.403V260.067H108.222C108.222 259.805 108.165 259.574 108.051 259.372C107.938 259.17 107.78 259.013 107.578 258.899C107.379 258.783 107.148 258.724 106.884 258.724C106.608 258.724 106.364 258.788 106.151 258.916C105.94 259.041 105.776 259.21 105.656 259.423C105.537 259.634 105.476 259.868 105.473 260.126V261.196C105.473 261.52 105.533 261.8 105.652 262.036C105.774 262.271 105.946 262.453 106.168 262.581C106.389 262.709 106.652 262.773 106.956 262.773C107.158 262.773 107.342 262.744 107.51 262.688C107.678 262.631 107.821 262.545 107.94 262.432C108.06 262.318 108.151 262.179 108.213 262.014L109.892 262.125C109.807 262.528 109.632 262.881 109.368 263.182C109.107 263.48 108.768 263.713 108.354 263.881C107.942 264.045 107.466 264.128 106.926 264.128Z" fill="#C2410C"/>
<rect x="40.5" y="244.5" width="78" height="31" rx="7.5" stroke="#FB923C"/>
</g>
<defs>
<filter id="filter0_dd_43_4340" x="0" y="0" width="374" height="326" filterUnits="userSpaceOnUse" color-interpolation-filters="sRGB">
<feFlood flood-opacity="0" result="BackgroundImageFix"/>
<feColorMatrix in="SourceAlpha" type="matrix" values="0 0 0 0 0 0 0 0 0 0 0 0 0 0 0 0 0 0 127 0" result="hardAlpha"/>
<feOffset dy="4"/>
<feGaussianBlur stdDeviation="1.5"/>
<feComposite in2="hardAlpha" operator="out"/>
<feColorMatrix type="matrix" values="0 0 0 0 0 0 0 0 0 0 0 0 0 0 0 0 0 0 0.1 0"/>
<feBlend mode="normal" in2="BackgroundImageFix" result="effect1_dropShadow_43_4340"/>
<feColorMatrix in="SourceAlpha" type="matrix" values="0 0 0 0 0 0 0 0 0 0 0 0 0 0 0 0 0 0 127 0" result="hardAlpha"/>
<feOffset dy="10"/>
<feGaussianBlur stdDeviation="4"/>
<feComposite in2="hardAlpha" operator="out"/>
<feColorMatrix type="matrix" values="0 0 0 0 0 0 0 0 0 0 0 0 0 0 0 0 0 0 0.04 0"/>
<feBlend mode="normal" in2="effect1_dropShadow_43_4340" result="effect2_dropShadow_43_4340"/>
<feBlend mode="normal" in="SourceGraphic" in2="effect2_dropShadow_43_4340" result="shape"/>
</filter>
<linearGradient id="paint0_linear_43_4340" x1="187" y1="8.7196" x2="187" y2="308" gradientUnits="userSpaceOnUse">
<stop stop-color="white"/>
<stop offset="1" stop-color="#F4F4F5"/>
</linearGradient>
<linearGradient id="paint1_linear_43_4340" x1="79.5" y1="244" x2="79.5" y2="276" gradientUnits="userSpaceOnUse">
<stop stop-color="#FFEDD5"/>
<stop offset="1" stop-color="#FFF7ED"/>
</linearGradient>
<clipPath id="clip0_43_4340">
<rect width="178.947" height="24" fill="white" transform="translate(40 32)"/>
</clipPath>
</defs>
</svg>
