<svg width="50" height="50" viewBox="0 0 50 50" fill="none" xmlns="http://www.w3.org/2000/svg">
<path d="M32.808 15.3357C31.6085 16.1993 30.6632 17.3108 29.9694 18.66L29.9665 9.80401L29.9652 5.66338L29.9648 4.44229L29.9647 4.11377L29.9646 4.02874L29.9646 4.00712L29.9646 4.00541V4.00394V4.00269V4.00166L29.9646 4.00087V4.0003V3.99995V3.99984L29.9645 3.5H29.4646H19.0157H18.5157V4V32.4238C18.5032 33.4463 18.3624 34.2776 18.1107 34.9323C17.8618 35.566 17.5072 36.0151 17.0596 36.3126L17.055 36.3157C16.6204 36.6114 16.0624 36.7744 15.3515 36.7744C14.6551 36.7744 14.0932 36.6189 13.6422 36.3318C13.2049 36.0325 12.8424 35.5792 12.5684 34.9402C12.3052 34.2968 12.1473 33.4846 12.1107 32.4893L12.093 32.0077H11.611H1.00019H0.502193L0.500199 32.5057C0.48723 35.745 1.10915 38.4309 2.40719 40.527L2.408 40.5283C3.69324 42.5897 5.42269 44.1119 7.58973 45.0829L7.59222 45.084C9.73611 46.0307 12.096 46.5 14.6645 46.5C17.6189 46.5 20.25 45.9212 22.5448 44.7486L22.5459 44.7481C24.8489 43.5642 26.6613 41.9144 27.9709 39.8007C29.2976 37.6662 29.9609 35.2036 29.9738 32.4292L29.9738 32.4267L29.9725 28.3709C29.9848 27.4397 30.3612 26.3522 30.7381 25.7046C31.1098 25.0657 31.5846 24.5818 32.1524 24.232L32.1551 24.2303C32.7204 23.8771 33.3826 23.6937 34.1586 23.6937C35.3983 23.6937 36.2888 24.0911 36.9065 24.8393L36.9093 24.8426C37.5532 25.6091 37.9001 26.698 37.8879 28.172V28.1761V46V46.5H38.3879H48.9997H49.4997V46V25.8088C49.5125 23.4588 49.0777 21.3537 48.1814 19.5055C47.2985 17.6589 46.041 16.1984 44.4091 15.1381C42.7792 14.0707 40.8678 13.5459 38.6955 13.5459C36.4264 13.5459 34.4554 14.1358 32.808 15.3357Z" fill="black" stroke="white"/>
</svg>
