<svg xmlns="http://www.w3.org/2000/svg" xmlns:xlink="http://www.w3.org/1999/xlink" xmlns:lucid="lucid" width="1041" height="721"><g transform="translate(2140.5 60.5)" lucid:page-tab-id="X7cyZcZqhh62"><path d="M-2500-500h1500v1500h-1500z" fill="#fff"/><path d="M-2120 246a6 6 0 0 1 6-6h148a6 6 0 0 1 6 6v148a6 6 0 0 1-6 6h-148a6 6 0 0 1-6-6z" stroke="#3a414a" fill="#fff"/><use xlink:href="#a" transform="matrix(1,0,0,1,-2115,245) translate(6.259259259259252 63.520833333333336)"/><use xlink:href="#b" transform="matrix(1,0,0,1,-2115,245) translate(90.55555555555556 63.520833333333336)"/><use xlink:href="#c" transform="matrix(1,0,0,1,-2115,245) translate(46.148148148148145 95.52083333333334)"/><path d="M-1800.94 351.85l11.24 1.17 12.85.8-.06 1-12.9-.8-11.27-1.18-6.48-.96v-1zm-142.47-32.03l13.2.83 11.27 1.18 6.5.96v1l-6.63-.98-11.24-1.18-13.15-.82-15.56-.3v-1z" stroke="#3a414a" stroke-width=".05" fill="#3a414a"/><path d="M-1958.97 319.5l-.02 1h-.5v-1z" fill="#3a414a"/><path d="M-1958.95 319.5l-.02 1.04-.56-.02v-1.05zm-.52.98h.45l.02-.94-.47-.02z" stroke="#3a414a" stroke-width=".05" fill="#3a414a"/><path d="M-1762.12 354.63l-14.36 4.34.2-9.27z" fill="#3a414a"/><path d="M-1760.5 354.67l-16.5 4.97.23-10.64zm-15.46 3.62l12.23-3.7-12.07-4.2z" stroke="#3a414a" stroke-width=".05" fill="#3a414a"/><use xlink:href="#d" transform="matrix(1,0,0,1,-1912.4377786316147,321.31803470814066) translate(0 21.333333333333336)"/><use xlink:href="#e" transform="matrix(1,0,0,1,-1912.4377786316147,321.31803470814066) translate(26.666666666666668 21.333333333333336)"/><path d="M-1760 246a6 6 0 0 1 6-6h148a6 6 0 0 1 6 6v148a6 6 0 0 1-6 6h-148a6 6 0 0 1-6-6z" stroke="#3a414a" fill="#fff"/><use xlink:href="#f" transform="matrix(1,0,0,1,-1755,245) translate(43.25925925925925 82.27083333333334)"/><path d="M-1520 246a6 6 0 0 1 6-6h148a6 6 0 0 1 6 6v148a6 6 0 0 1-6 6h-148a6 6 0 0 1-6-6z" stroke="#3a414a" fill="#fff"/><use xlink:href="#g" transform="matrix(1,0,0,1,-1515,245) translate(22.48148148148148 63.520833333333336)"/><use xlink:href="#h" transform="matrix(1,0,0,1,-1515,245) translate(29.851851851851848 95.52083333333334)"/><path d="M-1567.4 320.5h-31.6v-1h31.6zm30.52 0h-15.7v-1h15.7z" stroke="#3a414a" stroke-width=".05" fill="#3a414a"/><path d="M-1599 320.5h-.5v-1h.5z" fill="#3a414a"/><path d="M-1598.96 320.52h-.57v-1.04h.57zm-.5-1v.96h.45v-.96z" stroke="#3a414a" stroke-width=".05" fill="#3a414a"/><path d="M-1522.12 320l-14.26 4.63v-9.26z" fill="#3a414a"/><path d="M-1520.5 320l-16.38 5.32v-10.64zm-15.38 3.95l12.14-3.95-12.14-3.95z" stroke="#3a414a" stroke-width=".05" fill="#3a414a"/><use xlink:href="#i" transform="matrix(1,0,0,1,-1567.4068149125824,304.00000000000006) translate(0 21.333333333333336)"/><path d="M-1280 246a6 6 0 0 1 6-6h148a6 6 0 0 1 6 6v148a6 6 0 0 1-6 6h-148a6 6 0 0 1-6-6z" stroke="#3a414a" fill="#fff"/><use xlink:href="#j" transform="matrix(1,0,0,1,-1275,245) translate(32.18518518518518 82.27083333333334)"/><path d="M-1327.4 320.5h-31.6v-1h31.6zm30.52 0h-15.7v-1h15.7z" stroke="#3a414a" stroke-width=".05" fill="#3a414a"/><path d="M-1359 320.5h-.5v-1h.5z" fill="#3a414a"/><path d="M-1358.96 320.52h-.57v-1.04h.57zm-.5-1v.96h.45v-.96z" stroke="#3a414a" stroke-width=".05" fill="#3a414a"/><path d="M-1282.12 320l-14.26 4.63v-9.26z" fill="#3a414a"/><path d="M-1280.5 320l-16.38 5.32v-10.64zm-15.38 3.95l12.14-3.95-12.14-3.95z" stroke="#3a414a" stroke-width=".05" fill="#3a414a"/><use xlink:href="#k" transform="matrix(1,0,0,1,-1327.4068149125824,304.00000000000006) translate(0 21.333333333333336)"/><path d="M-1760 486a6 6 0 0 1 6-6h148a6 6 0 0 1 6 6v148a6 6 0 0 1-6 6h-148a6 6 0 0 1-6-6z" stroke="#3a414a" fill="#fff"/><use xlink:href="#l" transform="matrix(1,0,0,1,-1755,485) translate(27.666666666666657 63.520833333333336)"/><use xlink:href="#m" transform="matrix(1,0,0,1,-1755,485) translate(46.22222222222222 95.52083333333334)"/><path d="M-1448.46 558.9l-34.16 1.36-100.5.2v-1l100.48-.2 34.18-1.37zm248.95-157.88l-.16 7.37-.46 7.3-.7 6.8-.95 6.35-1.14 6-1.34 5.66-1.5 5.38-1.67 5.12-1.83 4.9-1.98 4.7-2.14 4.54-2.3 4.4-2.45 4.25-2.62 4.13-2.8 4.04-3 3.96-3.23 3.9-3.45 3.8-3.7 3.8-3.98 3.73-4.3 3.7-4.66 3.7-5.06 3.68-5.52 3.66-6.05 3.67-3.1 1.7v-1.14l2.6-1.43 6.02-3.64 5.48-3.64 5.03-3.66 4.62-3.66 4.27-3.68 3.95-3.7 3.67-3.76 3.42-3.8 3.18-3.85 2.98-3.92 2.8-4 2.6-4.1 2.43-4.23 2.26-4.35 2.12-4.5 1.96-4.66 1.8-4.87 1.66-5.08 1.5-5.34 1.3-5.62 1.14-5.95.93-6.34.7-6.76.47-7.26.15-7.34z" stroke="#3a414a" stroke-width=".05" fill="#3a414a"/><path d="M-1199.5 401.03l-1-.02v-.5h1z" fill="#3a414a"/><path d="M-1199.5 401.05l-1.04-.02.02-.55h1.05zm-.98-.53v.46l.94.02v-.48z" stroke="#3a414a" stroke-width=".05" fill="#3a414a"/><path d="M-1583.6 564.6l-14.28-4.6 14.25-4.67z" fill="#3a414a"/><path d="M-1583.1 565.3l-16.4-5.3 16.37-5.36zm-13.16-5.3l12.15 3.92-.02-7.9z" stroke="#3a414a" stroke-width=".05" fill="#3a414a"/><use xlink:href="#n" transform="matrix(1,0,0,1,-1448.463156016695,517.5066178037192) translate(0.0049999999999954525 21.333333333333336)"/><use xlink:href="#o" transform="matrix(1,0,0,1,-1448.463156016695,517.5066178037192) translate(29.63462962962963 21.333333333333336)"/><use xlink:href="#p" transform="matrix(1,0,0,1,-1448.463156016695,517.5066178037192) translate(39.11611111111111 53.333333333333336)"/><path d="M-1843.03 488.78l7.44 13.6 5.64 9.3 4.72 7.13 4.15 5.73 3.77 4.74 3.45 4 3.23 3.45 3.05 3 2.9 2.6 2.8 2.3 2.7 2.06 2.6 1.83 2.58 1.63 2.52 1.46 2.48 1.3 2.47 1.15 2.46 1.04 2.48.9 2.47.8 2.56.72-.26.96-2.58-.72-2.5-.8-2.5-.95-2.5-1.04-2.52-1.18-2.53-1.32-2.54-1.47-2.6-1.66-2.66-1.85-2.73-2.08-2.82-2.34-2.93-2.64-3.08-3.02-3.26-3.47-3.5-4.04-3.76-4.77-4.18-5.75-4.74-7.15-5.66-9.36-7.46-13.63-8.9-17.77h1.13zm-97.53-135.88l2.5.82 2.5.93 2.5 1.05 2.52 1.18 2.53 1.32 2.54 1.48 2.6 1.65 2.66 1.85 2.73 2.07 2.82 2.33 2.93 2.65 3.08 3.02 3.26 3.47 3.5 4.04 3.76 4.77 4.18 5.76 4.74 7.14 5.66 9.36 15.84 31.67h-1.12l-15.6-31.18-5.62-9.32-4.72-7.12-4.15-5.72-3.77-4.74-3.45-4-3.23-3.45-3.05-3-2.9-2.6-2.8-2.32-2.7-2.04-2.6-1.84-2.58-1.63-2.52-1.45-2.48-1.3-2.47-1.16-2.46-1.04-2.47-.9-2.48-.82-2.5-.7.26-.96z" stroke="#3a414a" stroke-width=".05" fill="#3a414a"/><path d="M-1762.1 559.8l-14.74 2.86 1.14-9.2z" fill="#3a414a"/><path d="M-1760.5 560l-16.9 3.28 1.3-10.57zm-15.75 2.03l12.54-2.43-11.6-5.4z" stroke="#3a414a" stroke-width=".05" fill="#3a414a"/><path d="M-1944.3 357.2l-13.6-6.33 14.73-2.86z" fill="#3a414a"/><path d="M-1943.9 357.95l-15.6-7.28 16.9-3.28zm-12.4-6.9l11.6 5.42.95-7.84z" stroke="#3a414a" stroke-width=".05" fill="#3a414a"/><use xlink:href="#q" transform="matrix(1,0,0,1,-1927.5159535284586,439.4660891246142) translate(0 21.333333333333336)"/><use xlink:href="#r" transform="matrix(1,0,0,1,-1927.5159535284586,439.4660891246142) translate(88.74074074074075 21.333333333333336)"/><path d="M-1760-34a6 6 0 0 1 6-6h148a6 6 0 0 1 6 6v148a6 6 0 0 1-6 6h-148a6 6 0 0 1-6-6z" stroke="#3a414a" fill="#fff"/><use xlink:href="#g" transform="matrix(1,0,0,1,-1755,-35) translate(22.48148148148148 30.708333333333336)"/><use xlink:href="#s" transform="matrix(1,0,0,1,-1755,-35) translate(21.77777777777777 62.708333333333336)"/><use xlink:href="#t" transform="matrix(1,0,0,1,-1755,-35) translate(34.37037037037037 94.70833333333334)"/><use xlink:href="#u" transform="matrix(1,0,0,1,-1755,-35) translate(34.44444444444444 126.70833333333334)"/><path d="M-1251.07 118.28l5.2 4.87 4.78 4.9 4.45 4.9 4.1 4.98 3.83 5.03 3.54 5.1 3.3 5.2 3.06 5.3 2.83 5.4 2.63 5.57 2.4 5.73 2.2 5.92 2 6.13 1.78 6.4 1.57 6.65 1.33 7 1.08 7.34.82 7.75.52 8.25.17 8.28-1 .03-.18-8.26-.52-8.2-.8-7.73-1.1-7.3-1.3-6.94-1.56-6.62-1.77-6.34-1.98-6.1-2.2-5.87-2.4-5.7-2.6-5.52-2.8-5.37-3.04-5.26-3.27-5.16-3.53-5.05-3.8-5-4.08-4.94-4.42-4.88-4.76-4.86-5.16-4.84-5.12-4.42h1.53zm-308.2-78.38l57 2.3 41.87 3.5 4.28.53v1l-4.4-.55-41.8-3.47-56.97-2.3-23.82-.24v-1z" stroke="#3a414a" stroke-width=".05" fill="#3a414a"/><path d="M-1199.5 239.5h-1v-.5l1-.03z" fill="#3a414a"/><path d="M-1199.47 239.53h-1.05l-.02-.56 1.05-.02zm-1-.5v.44h.94V239z" stroke="#3a414a" stroke-width=".05" fill="#3a414a"/><path d="M-1583.66 44.8l-14.22-4.78 14.3-4.5z" fill="#3a414a"/><path d="M-1583.17 45.48L-1599.5 40l16.44-5.16zm-13.1-5.45l12.1 4.07.1-7.9z" stroke="#3a414a" stroke-width=".05" fill="#3a414a"/><use xlink:href="#v" transform="matrix(1,0,0,1,-1456.1254876081648,18.601651615437696) translate(0 21.333333333333336)"/><use xlink:href="#w" transform="matrix(1,0,0,1,-1456.1254876081648,18.601651615437696) translate(29.629629629629633 21.333333333333336)"/><use xlink:href="#x" transform="matrix(1,0,0,1,-1456.1254876081648,18.601651615437696) translate(0 53.333333333333336)"/><use xlink:href="#y" transform="matrix(1,0,0,1,-1456.1254876081648,18.601651615437696) translate(121.11111111111114 53.333333333333336)"/><use xlink:href="#z" transform="matrix(1,0,0,1,-1456.1254876081648,18.601651615437696) translate(183.18518518518522 53.333333333333336)"/><use xlink:href="#A" transform="matrix(1,0,0,1,-1456.1254876081648,18.601651615437696) translate(0 85.33333333333334)"/><path d="M-1679.5 223.12h-1V212h1zm0-75.12h-1v-27h1z" stroke="#3a414a" stroke-width=".05" fill="#3a414a"/><path d="M-1679.5 121.02h-1v-.52h1z" fill="#3a414a"/><path d="M-1679.47 121.04h-1.06v-.57h1.06zm-1-.52v.47h.94v-.47z" stroke="#3a414a" stroke-width=".05" fill="#3a414a"/><path d="M-1680 237.88l-4.63-14.26h9.27z" fill="#3a414a"/><path d="M-1680 239.5l-5.32-16.38h10.64zm-3.95-15.38l3.95 12.14 3.95-12.14z" stroke="#3a414a" stroke-width=".05" fill="#3a414a"/><g><use xlink:href="#B" transform="matrix(1,0,0,1,-1796.5185185185185,148.00089249182506) translate(0 21.333333333333336)"/><use xlink:href="#C" transform="matrix(1,0,0,1,-1796.5185185185185,148.00089249182506) translate(29.629629629629633 21.333333333333336)"/><use xlink:href="#D" transform="matrix(1,0,0,1,-1796.5185185185185,148.00089249182506) translate(119.33333333333333 21.333333333333336)"/><use xlink:href="#E" transform="matrix(1,0,0,1,-1796.5185185185185,148.00089249182506) translate(0 53.333333333333336)"/></g><path d="M-1924.37 276.5h-18.75v-1h18.75zm163.37 0h-6.63v-1h6.63z" stroke="#3a414a" stroke-width=".05" fill="#3a414a"/><path d="M-1760.5 276.5h-.52v-1h.52z" fill="#3a414a"/><path d="M-1760.47 276.52h-.57v-1.04h.57zm-.52-1v.96h.47v-.96z" stroke="#3a414a" stroke-width=".05" fill="#3a414a"/><path d="M-1943.62 280.63l-14.26-4.63 14.26-4.63z" fill="#3a414a"/><path d="M-1943.12 281.32l-16.38-5.32 16.38-5.32zm-13.14-5.32l12.14 3.95v-7.9z" stroke="#3a414a" stroke-width=".05" fill="#3a414a"/><g><use xlink:href="#F" transform="matrix(1,0,0,1,-1924.3703703703704,259.9999980855719) translate(0 21.333333333333336)"/><use xlink:href="#G" transform="matrix(1,0,0,1,-1924.3703703703704,259.9999980855719) translate(29.629629629629633 21.333333333333336)"/></g><defs><path fill="#3a414a" d="M230 0l2-204L168 0h-37L68-204 70 0H24v-248h70l56 185 57-185h69V0h-46" id="H"/><path fill="#3a414a" d="M147 0H94L2-248h55l64 206c17-72 42-137 63-206h54" id="I"/><path fill="#3a414a" d="M24-248c93 1 206-16 204 79-1 75-69 88-152 82V0H24v-248zm52 121c47 0 100 7 100-41 0-47-54-39-100-39v80" id="J"/><path fill="#3a414a" d="M24-248c120-7 223 5 221 122C244-46 201 0 124 0H24v-248zM76-40c74 7 117-18 117-86 0-67-45-88-117-82v168" id="K"/><g id="a"><use transform="matrix(0.07407407407407408,0,0,0.07407407407407408,0,0)" xlink:href="#H"/><use transform="matrix(0.07407407407407408,0,0,0.07407407407407408,22.148148148148152,0)" xlink:href="#I"/><use transform="matrix(0.07407407407407408,0,0,0.07407407407407408,39.92592592592593,0)" xlink:href="#J"/><use transform="matrix(0.07407407407407408,0,0,0.07407407407407408,57.70370370370371,0)" xlink:href="#K"/></g><path fill="#3a414a" d="M169-182c-1-43-94-46-97-3 18 66 151 10 154 114 3 95-165 93-204 36-6-8-10-19-12-30l50-8c3 46 112 56 116 5-17-69-150-10-154-114-4-87 153-88 188-35 5 8 8 18 10 28" id="L"/><path fill="#3a414a" d="M136-208V0H84v-208H4v-40h212v40h-80" id="M"/><path fill="#3a414a" d="M182-130c37 4 62 22 62 59C244 23 116-4 24 0v-248c84 5 203-23 205 63 0 31-19 50-47 55zM76-148c40-3 101 13 101-30 0-44-60-28-101-31v61zm0 110c48-3 116 14 116-37 0-48-69-32-116-35v72" id="N"/><g id="b"><use transform="matrix(0.07407407407407408,0,0,0.07407407407407408,0,0)" xlink:href="#L"/><use transform="matrix(0.07407407407407408,0,0,0.07407407407407408,17.77777777777778,0)" xlink:href="#M"/><use transform="matrix(0.07407407407407408,0,0,0.07407407407407408,34,0)" xlink:href="#N"/></g><path fill="#3a414a" d="M140-251c80 0 125 45 125 126S219 4 139 4C58 4 15-44 15-125s44-126 125-126zm-1 214c52 0 73-35 73-88 0-50-21-86-72-86-52 0-73 35-73 86s22 88 72 88" id="O"/><g id="c"><use transform="matrix(0.07407407407407408,0,0,0.07407407407407408,0,0)" xlink:href="#I"/><use transform="matrix(0.07407407407407408,0,0,0.07407407407407408,17.77777777777778,0)" xlink:href="#O"/><use transform="matrix(0.07407407407407408,0,0,0.07407407407407408,38.51851851851851,0)" xlink:href="#K"/></g><path fill="#333" d="M23 0v-37h61v-169l-59 37v-38l62-41h46v211h57V0H23" id="P"/><path fill="#333" d="M24 0v-54h51V0H24" id="Q"/><g id="d"><use transform="matrix(0.07407407407407408,0,0,0.07407407407407408,0,0)" xlink:href="#P"/><use transform="matrix(0.07407407407407408,0,0,0.07407407407407408,14.814814814814817,0)" xlink:href="#Q"/></g><path fill="#333" d="M240-174c0 40-23 61-54 70L253 0h-59l-57-94H76V0H24v-248c93 4 217-23 216 74zM76-134c48-2 112 12 112-38 0-48-66-32-112-35v73" id="R"/><path fill="#333" d="M185-48c-13 30-37 53-82 52C43 2 14-33 14-96s30-98 90-98c62 0 83 45 84 108H66c0 31 8 55 39 56 18 0 30-7 34-22zm-45-69c5-46-57-63-70-21-2 6-4 13-4 21h74" id="S"/><path fill="#333" d="M84 4C32 4 15-41 15-95c0-55 18-99 73-99 29 0 47 12 58 34l2-30h48l-1 265h-49V-32C136-9 114 4 84 4zm21-34c32 0 41-29 41-66 0-36-9-64-40-64-33 0-39 30-40 65 0 43 13 65 39 65" id="T"/><path fill="#333" d="M85 4C-2 5 27-109 22-190h50c7 57-23 150 33 157 60-5 35-97 40-157h50l1 190h-47c-2-12 1-28-3-38-12 25-28 42-61 42" id="U"/><path fill="#333" d="M137-138c1-29-70-34-71-4 15 46 118 7 119 86 1 83-164 76-172 9l43-7c4 19 20 25 44 25 33 8 57-30 24-41C81-84 22-81 20-136c-2-80 154-74 161-7" id="V"/><path fill="#333" d="M115-3C79 11 28 4 28-45v-112H4v-33h27l15-45h31v45h36v33H77v99c-1 23 16 31 38 25v30" id="W"/><g id="e"><use transform="matrix(0.07407407407407408,0,0,0.07407407407407408,0,0)" xlink:href="#R"/><use transform="matrix(0.07407407407407408,0,0,0.07407407407407408,19.185185185185187,0)" xlink:href="#S"/><use transform="matrix(0.07407407407407408,0,0,0.07407407407407408,34,0)" xlink:href="#T"/><use transform="matrix(0.07407407407407408,0,0,0.07407407407407408,50.22222222222223,0)" xlink:href="#U"/><use transform="matrix(0.07407407407407408,0,0,0.07407407407407408,66.44444444444446,0)" xlink:href="#S"/><use transform="matrix(0.07407407407407408,0,0,0.07407407407407408,81.25925925925927,0)" xlink:href="#V"/><use transform="matrix(0.07407407407407408,0,0,0.07407407407407408,96.07407407407408,0)" xlink:href="#W"/></g><path fill="#3a414a" d="M240-174c0 40-23 61-54 70L253 0h-59l-57-94H76V0H24v-248c93 4 217-23 216 74zM76-134c48-2 112 12 112-38 0-48-66-32-112-35v73" id="X"/><g id="f"><use transform="matrix(0.07407407407407408,0,0,0.07407407407407408,0,0)" xlink:href="#H"/><use transform="matrix(0.07407407407407408,0,0,0.07407407407407408,22.148148148148152,0)" xlink:href="#X"/><use transform="matrix(0.07407407407407408,0,0,0.07407407407407408,41.333333333333336,0)" xlink:href="#H"/></g><path fill="#3a414a" d="M67-125c0 53 21 87 73 88 37 1 54-22 65-47l45 17C233-25 199 4 140 4 58 4 20-42 15-125 8-235 124-281 211-232c18 10 29 29 36 50l-46 12c-8-25-30-41-62-41-52 0-71 34-72 86" id="Y"/><path fill="#3a414a" d="M135-150c-39-12-60 13-60 57V0H25l-1-190h47c2 13-1 29 3 40 6-28 27-53 61-41v41" id="Z"/><path fill="#3a414a" d="M185-48c-13 30-37 53-82 52C43 2 14-33 14-96s30-98 90-98c62 0 83 45 84 108H66c0 31 8 55 39 56 18 0 30-7 34-22zm-45-69c5-46-57-63-70-21-2 6-4 13-4 21h74" id="aa"/><path fill="#3a414a" d="M133-34C117-15 103 5 69 4 32 3 11-16 11-54c-1-60 55-63 116-61 1-26-3-47-28-47-18 1-26 9-28 27l-52-2c7-38 36-58 82-57s74 22 75 68l1 82c-1 14 12 18 25 15v27c-30 8-71 5-69-32zm-48 3c29 0 43-24 42-57-32 0-66-3-65 30 0 17 8 27 23 27" id="ab"/><path fill="#3a414a" d="M115-3C79 11 28 4 28-45v-112H4v-33h27l15-45h31v45h36v33H77v99c-1 23 16 31 38 25v30" id="ac"/><path fill="#3a414a" d="M25-224v-37h50v37H25zM25 0v-190h50V0H25" id="ad"/><path fill="#3a414a" d="M128 0H69L1-190h53L99-40l48-150h52" id="ae"/><g id="g"><use transform="matrix(0.07407407407407408,0,0,0.07407407407407408,0,0)" xlink:href="#Y"/><use transform="matrix(0.07407407407407408,0,0,0.07407407407407408,19.185185185185187,0)" xlink:href="#Z"/><use transform="matrix(0.07407407407407408,0,0,0.07407407407407408,29.555555555555554,0)" xlink:href="#aa"/><use transform="matrix(0.07407407407407408,0,0,0.07407407407407408,44.370370370370374,0)" xlink:href="#ab"/><use transform="matrix(0.07407407407407408,0,0,0.07407407407407408,59.18518518518519,0)" xlink:href="#ac"/><use transform="matrix(0.07407407407407408,0,0,0.07407407407407408,68,0)" xlink:href="#ad"/><use transform="matrix(0.07407407407407408,0,0,0.07407407407407408,75.4074074074074,0)" xlink:href="#ae"/><use transform="matrix(0.07407407407407408,0,0,0.07407407407407408,90.22222222222223,0)" xlink:href="#aa"/></g><path fill="#3a414a" d="M190-63c-7 42-38 67-86 67-59 0-84-38-90-98-12-110 154-137 174-36l-49 2c-2-19-15-32-35-32-30 0-35 28-38 64-6 74 65 87 74 30" id="af"/><path fill="#3a414a" d="M114-157C55-157 80-60 75 0H25v-261h50l-1 109c12-26 28-41 61-42 86-1 58 113 63 194h-50c-7-57 23-157-34-157" id="ag"/><path fill="#3a414a" d="M147 0L96-86 75-71V0H25v-261h50v150l67-79h53l-66 74L201 0h-54" id="ah"/><path fill="#3a414a" d="M137-138c1-29-70-34-71-4 15 46 118 7 119 86 1 83-164 76-172 9l43-7c4 19 20 25 44 25 33 8 57-30 24-41C81-84 22-81 20-136c-2-80 154-74 161-7" id="ai"/><g id="h"><use transform="matrix(0.07407407407407408,0,0,0.07407407407407408,0,0)" xlink:href="#af"/><use transform="matrix(0.07407407407407408,0,0,0.07407407407407408,14.814814814814817,0)" xlink:href="#ag"/><use transform="matrix(0.07407407407407408,0,0,0.07407407407407408,31.03703703703704,0)" xlink:href="#aa"/><use transform="matrix(0.07407407407407408,0,0,0.07407407407407408,45.851851851851855,0)" xlink:href="#af"/><use transform="matrix(0.07407407407407408,0,0,0.07407407407407408,60.66666666666667,0)" xlink:href="#ah"/><use transform="matrix(0.07407407407407408,0,0,0.07407407407407408,75.4814814814815,0)" xlink:href="#ai"/></g><path fill="#333" d="M182-182c0 78-84 86-111 141h115V0H12c-6-101 99-100 120-180 1-22-12-31-33-32-23 0-32 14-35 34l-49-3c5-45 32-70 84-70 51 0 83 22 83 69" id="aj"/><use transform="matrix(0.07407407407407408,0,0,0.07407407407407408,0,0)" xlink:href="#aj" id="i"/><path fill="#3a414a" d="M199 0l-22-63H83L61 0H9l90-248h61L250 0h-51zm-33-102l-36-108c-10 38-24 72-36 108h72" id="ak"/><path fill="#3a414a" d="M88-194c31-1 46 15 58 34l-1-101h50l1 261h-48c-2-10 0-23-3-31C134-8 116 4 84 4 32 4 16-41 15-95c0-56 19-97 73-99zm17 164c33 0 40-30 41-66 1-37-9-64-41-64s-38 30-39 65c0 43 13 65 39 65" id="al"/><path fill="#3a414a" d="M110-194c64 0 96 36 96 99 0 64-35 99-97 99-61 0-95-36-95-99 0-62 34-99 96-99zm-1 164c35 0 45-28 45-65 0-40-10-65-43-65-34 0-45 26-45 65 0 36 10 65 43 65" id="am"/><g id="j"><use transform="matrix(0.07407407407407408,0,0,0.07407407407407408,0,0)" xlink:href="#ak"/><use transform="matrix(0.07407407407407408,0,0,0.07407407407407408,19.185185185185187,0)" xlink:href="#al"/><use transform="matrix(0.07407407407407408,0,0,0.07407407407407408,35.40740740740741,0)" xlink:href="#ai"/><use transform="matrix(0.07407407407407408,0,0,0.07407407407407408,50.22222222222223,0)" xlink:href="#ac"/><use transform="matrix(0.07407407407407408,0,0,0.07407407407407408,59.037037037037045,0)" xlink:href="#am"/><use transform="matrix(0.07407407407407408,0,0,0.07407407407407408,75.25925925925927,0)" xlink:href="#Z"/></g><path fill="#333" d="M128-127c34 4 56 21 59 58 7 91-148 94-172 28-4-9-6-17-7-26l51-5c1 24 16 35 40 36 23 0 39-12 38-36-1-31-31-36-65-34v-40c32 2 59-3 59-33 0-20-13-33-34-33s-33 13-35 32l-50-3c6-44 37-68 86-68 50 0 83 20 83 66 0 35-22 52-53 58" id="an"/><use transform="matrix(0.07407407407407408,0,0,0.07407407407407408,0,0)" xlink:href="#an" id="k"/><path fill="#3a414a" d="M12 0v-35l95-120H19v-35h142v35L67-36h103V0H12" id="ao"/><path fill="#3a414a" d="M135-194c87-1 58 113 63 194h-50c-7-57 23-157-34-157-59 0-34 97-39 157H25l-1-190h47c2 12-1 28 3 38 12-26 28-41 61-42" id="ap"/><g id="l"><use transform="matrix(0.07407407407407408,0,0,0.07407407407407408,0,0)" xlink:href="#I"/><use transform="matrix(0.07407407407407408,0,0,0.07407407407407408,16.296296296296298,0)" xlink:href="#aa"/><use transform="matrix(0.07407407407407408,0,0,0.07407407407407408,31.111111111111114,0)" xlink:href="#Z"/><use transform="matrix(0.07407407407407408,0,0,0.07407407407407408,41.48148148148149,0)" xlink:href="#ad"/><use transform="matrix(0.07407407407407408,0,0,0.07407407407407408,48.88888888888891,0)" xlink:href="#ao"/><use transform="matrix(0.07407407407407408,0,0,0.07407407407407408,62.222222222222236,0)" xlink:href="#am"/><use transform="matrix(0.07407407407407408,0,0,0.07407407407407408,78.44444444444446,0)" xlink:href="#ap"/></g><path fill="#3a414a" d="M175 0L67-191c6 58 2 128 3 191H24v-248h59L193-55c-6-58-2-129-3-193h46V0h-61" id="aq"/><g id="m"><use transform="matrix(0.07407407407407408,0,0,0.07407407407407408,0,0)" xlink:href="#Y"/><use transform="matrix(0.07407407407407408,0,0,0.07407407407407408,19.185185185185187,0)" xlink:href="#K"/><use transform="matrix(0.07407407407407408,0,0,0.07407407407407408,38.370370370370374,0)" xlink:href="#aq"/></g><path fill="#3a414a" d="M165-50V0h-47v-50H5v-38l105-160h55v161h33v37h-33zm-47-37l2-116L46-87h72" id="ar"/><path fill="#3a414a" d="M24 0v-54h51V0H24" id="as"/><g id="n"><use transform="matrix(0.07407407407407408,0,0,0.07407407407407408,0,0)" xlink:href="#ar"/><use transform="matrix(0.07407407407407408,0,0,0.07407407407407408,14.814814814814817,0)" xlink:href="#as"/></g><g id="o"><use transform="matrix(0.07407407407407408,0,0,0.07407407407407408,0,0)" xlink:href="#M"/><use transform="matrix(0.07407407407407408,0,0,0.07407407407407408,14.740740740740744,0)" xlink:href="#Z"/><use transform="matrix(0.07407407407407408,0,0,0.07407407407407408,25.111111111111114,0)" xlink:href="#ab"/><use transform="matrix(0.07407407407407408,0,0,0.07407407407407408,39.92592592592593,0)" xlink:href="#ap"/><use transform="matrix(0.07407407407407408,0,0,0.07407407407407408,56.14814814814815,0)" xlink:href="#ai"/><use transform="matrix(0.07407407407407408,0,0,0.07407407407407408,70.96296296296296,0)" xlink:href="#af"/><use transform="matrix(0.07407407407407408,0,0,0.07407407407407408,85.77777777777777,0)" xlink:href="#am"/><use transform="matrix(0.07407407407407408,0,0,0.07407407407407408,102,0)" xlink:href="#al"/><use transform="matrix(0.07407407407407408,0,0,0.07407407407407408,118.22222222222221,0)" xlink:href="#aa"/><use transform="matrix(0.07407407407407408,0,0,0.07407407407407408,133.03703703703704,0)" xlink:href="#al"/></g><g id="p"><use transform="matrix(0.07407407407407408,0,0,0.07407407407407408,0,0)" xlink:href="#af"/><use transform="matrix(0.07407407407407408,0,0,0.07407407407407408,14.814814814814817,0)" xlink:href="#Z"/><use transform="matrix(0.07407407407407408,0,0,0.07407407407407408,25.185185185185187,0)" xlink:href="#aa"/><use transform="matrix(0.07407407407407408,0,0,0.07407407407407408,40.00000000000001,0)" xlink:href="#ab"/><use transform="matrix(0.07407407407407408,0,0,0.07407407407407408,54.814814814814824,0)" xlink:href="#ac"/><use transform="matrix(0.07407407407407408,0,0,0.07407407407407408,63.62962962962964,0)" xlink:href="#ad"/><use transform="matrix(0.07407407407407408,0,0,0.07407407407407408,71.03703703703705,0)" xlink:href="#ae"/><use transform="matrix(0.07407407407407408,0,0,0.07407407407407408,85.85185185185188,0)" xlink:href="#aa"/></g><path fill="#333" d="M147 0H94L2-248h55l64 206c17-72 42-137 63-206h54" id="at"/><path fill="#333" d="M140-251c80 0 125 45 125 126S219 4 139 4C58 4 15-44 15-125s44-126 125-126zm-1 214c52 0 73-35 73-88 0-50-21-86-72-86-52 0-73 35-73 86s22 88 72 88" id="au"/><path fill="#333" d="M24-248c120-7 223 5 221 122C244-46 201 0 124 0H24v-248zM76-40c74 7 117-18 117-86 0-67-45-88-117-82v168" id="av"/><path fill="#333" d="M35-132v-50h50v50H35zM35 0v-49h50V0H35" id="aw"/><path fill="#333" d="M4 7l51-268h42L46 7H4" id="ax"/><g id="q"><use transform="matrix(0.07407407407407408,0,0,0.07407407407407408,0,0)" xlink:href="#at"/><use transform="matrix(0.07407407407407408,0,0,0.07407407407407408,17.77777777777778,0)" xlink:href="#au"/><use transform="matrix(0.07407407407407408,0,0,0.07407407407407408,38.51851851851851,0)" xlink:href="#av"/><use transform="matrix(0.07407407407407408,0,0,0.07407407407407408,57.70370370370371,0)" xlink:href="#aw"/><use transform="matrix(0.07407407407407408,0,0,0.07407407407407408,66.51851851851853,0)" xlink:href="#ax"/><use transform="matrix(0.07407407407407408,0,0,0.07407407407407408,73.92592592592594,0)" xlink:href="#ax"/></g><path fill="#333" d="M238-95c0 69-44 99-111 99C63 4 22-25 22-93v-155h51v151c-1 38 19 59 55 60 90 1 49-130 58-211h52v153" id="ay"/><path fill="#333" d="M24 0v-248h52V0H24" id="az"/><g id="r"><use transform="matrix(0.07407407407407408,0,0,0.07407407407407408,0,0)" xlink:href="#ay"/><use transform="matrix(0.07407407407407408,0,0,0.07407407407407408,19.185185185185187,0)" xlink:href="#R"/><use transform="matrix(0.07407407407407408,0,0,0.07407407407407408,38.370370370370374,0)" xlink:href="#az"/></g><path fill="#3a414a" d="M25 0v-261h50V0H25" id="aA"/><path fill="#3a414a" d="M195-6C206 82 75 100 31 46c-4-6-6-13-8-21l49-6c3 16 16 24 34 25 40 0 42-37 40-79-11 22-30 35-61 35-53 0-70-43-70-97 0-56 18-96 73-97 30 0 46 14 59 34l2-30h47zm-90-29c32 0 41-27 41-63 0-35-9-62-40-62-32 0-39 29-40 63 0 36 9 62 39 62" id="aB"/><g id="s"><use transform="matrix(0.07407407407407408,0,0,0.07407407407407408,0,0)" xlink:href="#Y"/><use transform="matrix(0.07407407407407408,0,0,0.07407407407407408,19.185185185185187,0)" xlink:href="#aA"/><use transform="matrix(0.07407407407407408,0,0,0.07407407407407408,26.592592592592595,0)" xlink:href="#aa"/><use transform="matrix(0.07407407407407408,0,0,0.07407407407407408,41.40740740740741,0)" xlink:href="#ab"/><use transform="matrix(0.07407407407407408,0,0,0.07407407407407408,56.22222222222223,0)" xlink:href="#Z"/><use transform="matrix(0.07407407407407408,0,0,0.07407407407407408,66.5925925925926,0)" xlink:href="#ad"/><use transform="matrix(0.07407407407407408,0,0,0.07407407407407408,74,0)" xlink:href="#ap"/><use transform="matrix(0.07407407407407408,0,0,0.07407407407407408,90.22222222222223,0)" xlink:href="#aB"/></g><path fill="#3a414a" d="M186 0v-106H76V0H24v-248h52v99h110v-99h50V0h-50" id="aC"/><path fill="#3a414a" d="M85 4C-2 5 27-109 22-190h50c7 57-23 150 33 157 60-5 35-97 40-157h50l1 190h-47c-2-12 1-28-3-38-12 25-28 42-61 42" id="aD"/><g id="t"><use transform="matrix(0.07407407407407408,0,0,0.07407407407407408,0,0)" xlink:href="#aC"/><use transform="matrix(0.07407407407407408,0,0,0.07407407407407408,19.185185185185187,0)" xlink:href="#am"/><use transform="matrix(0.07407407407407408,0,0,0.07407407407407408,35.40740740740741,0)" xlink:href="#aD"/><use transform="matrix(0.07407407407407408,0,0,0.07407407407407408,51.62962962962963,0)" xlink:href="#ai"/><use transform="matrix(0.07407407407407408,0,0,0.07407407407407408,66.44444444444446,0)" xlink:href="#aa"/></g><path fill="#3a414a" d="M67-93c0 74 22 123 53 168H70C40 30 18-18 18-93s22-123 52-168h50c-32 44-53 94-53 168" id="aE"/><path fill="#3a414a" d="M102-93c0 74-22 123-52 168H0C30 29 54-18 53-93c0-74-22-123-53-168h50c30 45 52 94 52 168" id="aF"/><g id="u"><use transform="matrix(0.07407407407407408,0,0,0.07407407407407408,0,0)" xlink:href="#aE"/><use transform="matrix(0.07407407407407408,0,0,0.07407407407407408,8.814814814814817,0)" xlink:href="#H"/><use transform="matrix(0.07407407407407408,0,0,0.07407407407407408,30.962962962962965,0)" xlink:href="#X"/><use transform="matrix(0.07407407407407408,0,0,0.07407407407407408,50.14814814814815,0)" xlink:href="#H"/><use transform="matrix(0.07407407407407408,0,0,0.07407407407407408,72.2962962962963,0)" xlink:href="#aF"/></g><path fill="#333" d="M139-81c0-46-55-55-73-27H18l9-140h149v37H72l-4 63c44-38 133-4 122 66C201 21 21 35 11-62l49-4c5 18 15 30 39 30 26 0 40-18 40-45" id="aG"/><g id="v"><use transform="matrix(0.07407407407407408,0,0,0.07407407407407408,0,0)" xlink:href="#aG"/><use transform="matrix(0.07407407407407408,0,0,0.07407407407407408,14.814814814814817,0)" xlink:href="#Q"/></g><path fill="#333" d="M67-125c0 53 21 87 73 88 37 1 54-22 65-47l45 17C233-25 199 4 140 4 58 4 20-42 15-125 8-235 124-281 211-232c18 10 29 29 36 50l-46 12c-8-25-30-41-62-41-52 0-71 34-72 86" id="aH"/><path fill="#333" d="M135-150c-39-12-60 13-60 57V0H25l-1-190h47c2 13-1 29 3 40 6-28 27-53 61-41v41" id="aI"/><path fill="#333" d="M133-34C117-15 103 5 69 4 32 3 11-16 11-54c-1-60 55-63 116-61 1-26-3-47-28-47-18 1-26 9-28 27l-52-2c7-38 36-58 82-57s74 22 75 68l1 82c-1 14 12 18 25 15v27c-30 8-71 5-69-32zm-48 3c29 0 43-24 42-57-32 0-66-3-65 30 0 17 8 27 23 27" id="aJ"/><path fill="#333" d="M25-224v-37h50v37H25zM25 0v-190h50V0H25" id="aK"/><path fill="#333" d="M128 0H69L1-190h53L99-40l48-150h52" id="aL"/><g id="w"><use transform="matrix(0.07407407407407408,0,0,0.07407407407407408,0,0)" xlink:href="#aH"/><use transform="matrix(0.07407407407407408,0,0,0.07407407407407408,19.185185185185187,0)" xlink:href="#aI"/><use transform="matrix(0.07407407407407408,0,0,0.07407407407407408,29.555555555555554,0)" xlink:href="#S"/><use transform="matrix(0.07407407407407408,0,0,0.07407407407407408,44.370370370370374,0)" xlink:href="#aJ"/><use transform="matrix(0.07407407407407408,0,0,0.07407407407407408,59.18518518518519,0)" xlink:href="#W"/><use transform="matrix(0.07407407407407408,0,0,0.07407407407407408,68,0)" xlink:href="#aK"/><use transform="matrix(0.07407407407407408,0,0,0.07407407407407408,75.4074074074074,0)" xlink:href="#aL"/><use transform="matrix(0.07407407407407408,0,0,0.07407407407407408,90.22222222222223,0)" xlink:href="#S"/></g><path fill="#333" d="M135-194c87-1 58 113 63 194h-50c-7-57 23-157-34-157-59 0-34 97-39 157H25l-1-190h47c2 12-1 28 3 38 12-26 28-41 61-42" id="aM"/><path fill="#333" d="M88-194c31-1 46 15 58 34l-1-101h50l1 261h-48c-2-10 0-23-3-31C134-8 116 4 84 4 32 4 16-41 15-95c0-56 19-97 73-99zm17 164c33 0 40-30 41-66 1-37-9-64-41-64s-38 30-39 65c0 43 13 65 39 65" id="aN"/><path fill="#333" d="M110-194c64 0 96 36 96 99 0 64-35 99-97 99-61 0-95-36-95-99 0-62 34-99 96-99zm-1 164c35 0 45-28 45-65 0-40-10-65-43-65-34 0-45 26-45 65 0 36 10 65 43 65" id="aO"/><g id="x"><use transform="matrix(0.07407407407407408,0,0,0.07407407407407408,0,0)" xlink:href="#aI"/><use transform="matrix(0.07407407407407408,0,0,0.07407407407407408,10.370370370370372,0)" xlink:href="#S"/><use transform="matrix(0.07407407407407408,0,0,0.07407407407407408,25.185185185185187,0)" xlink:href="#aM"/><use transform="matrix(0.07407407407407408,0,0,0.07407407407407408,41.40740740740742,0)" xlink:href="#aN"/><use transform="matrix(0.07407407407407408,0,0,0.07407407407407408,57.62962962962965,0)" xlink:href="#aK"/><use transform="matrix(0.07407407407407408,0,0,0.07407407407407408,65.03703703703705,0)" xlink:href="#W"/><use transform="matrix(0.07407407407407408,0,0,0.07407407407407408,73.85185185185188,0)" xlink:href="#aK"/><use transform="matrix(0.07407407407407408,0,0,0.07407407407407408,81.25925925925928,0)" xlink:href="#aO"/><use transform="matrix(0.07407407407407408,0,0,0.07407407407407408,97.48148148148151,0)" xlink:href="#aM"/></g><g id="y"><use transform="matrix(0.07407407407407408,0,0,0.07407407407407408,0,0)" xlink:href="#V"/><use transform="matrix(0.07407407407407408,0,0,0.07407407407407408,14.814814814814817,0)" xlink:href="#S"/><use transform="matrix(0.07407407407407408,0,0,0.07407407407407408,29.629629629629633,0)" xlink:href="#aM"/><use transform="matrix(0.07407407407407408,0,0,0.07407407407407408,45.851851851851855,0)" xlink:href="#W"/></g><g id="z"><use transform="matrix(0.07407407407407408,0,0,0.07407407407407408,0,0)" xlink:href="#W"/><use transform="matrix(0.07407407407407408,0,0,0.07407407407407408,8.814814814814817,0)" xlink:href="#aO"/></g><path fill="#333" d="M186 0v-106H76V0H24v-248h52v99h110v-99h50V0h-50" id="aP"/><g id="A"><use transform="matrix(0.07407407407407408,0,0,0.07407407407407408,0,0)" xlink:href="#aH"/><use transform="matrix(0.07407407407407408,0,0,0.07407407407407408,19.185185185185187,0)" xlink:href="#aH"/><use transform="matrix(0.07407407407407408,0,0,0.07407407407407408,38.370370370370374,0)" xlink:href="#aP"/></g><path fill="#333" d="M115-159c48 0 72 30 72 78 0 54-30 85-83 85-64 0-91-50-91-122 0-98 58-163 141-120 15 8 21 24 27 44l-47 6c-5-31-48-31-61-4-7 14-11 33-11 60 9-17 28-27 53-27zM102-35c24 0 36-20 36-45s-11-43-37-43c-23 0-36 14-36 38 0 27 11 50 37 50" id="aQ"/><g id="B"><use transform="matrix(0.07407407407407408,0,0,0.07407407407407408,0,0)" xlink:href="#aQ"/><use transform="matrix(0.07407407407407408,0,0,0.07407407407407408,14.814814814814817,0)" xlink:href="#Q"/></g><path fill="#333" d="M25 0v-261h50V0H25" id="aR"/><g id="C"><use transform="matrix(0.07407407407407408,0,0,0.07407407407407408,0,0)" xlink:href="#at"/><use transform="matrix(0.07407407407407408,0,0,0.07407407407407408,17.25925925925926,0)" xlink:href="#aK"/><use transform="matrix(0.07407407407407408,0,0,0.07407407407407408,24.66666666666667,0)" xlink:href="#aI"/><use transform="matrix(0.07407407407407408,0,0,0.07407407407407408,35.03703703703704,0)" xlink:href="#W"/><use transform="matrix(0.07407407407407408,0,0,0.07407407407407408,43.851851851851855,0)" xlink:href="#U"/><use transform="matrix(0.07407407407407408,0,0,0.07407407407407408,60.074074074074076,0)" xlink:href="#aJ"/><use transform="matrix(0.07407407407407408,0,0,0.07407407407407408,74.88888888888889,0)" xlink:href="#aR"/></g><g id="D"><use transform="matrix(0.07407407407407408,0,0,0.07407407407407408,0,0)" xlink:href="#aI"/><use transform="matrix(0.07407407407407408,0,0,0.07407407407407408,10.370370370370372,0)" xlink:href="#S"/><use transform="matrix(0.07407407407407408,0,0,0.07407407407407408,25.185185185185187,0)" xlink:href="#aM"/><use transform="matrix(0.07407407407407408,0,0,0.07407407407407408,41.40740740740742,0)" xlink:href="#aN"/><use transform="matrix(0.07407407407407408,0,0,0.07407407407407408,57.62962962962965,0)" xlink:href="#aK"/><use transform="matrix(0.07407407407407408,0,0,0.07407407407407408,65.03703703703705,0)" xlink:href="#W"/><use transform="matrix(0.07407407407407408,0,0,0.07407407407407408,73.85185185185188,0)" xlink:href="#aK"/><use transform="matrix(0.07407407407407408,0,0,0.07407407407407408,81.25925925925928,0)" xlink:href="#aO"/><use transform="matrix(0.07407407407407408,0,0,0.07407407407407408,97.48148148148151,0)" xlink:href="#aM"/></g><path fill="#333" d="M121-226c-27-7-43 5-38 36h38v33H83V0H34v-157H6v-33h28c-9-59 32-81 87-68v32" id="aS"/><path fill="#333" d="M190-63c-7 42-38 67-86 67-59 0-84-38-90-98-12-110 154-137 174-36l-49 2c-2-19-15-32-35-32-30 0-35 28-38 64-6 74 65 87 74 30" id="aT"/><g id="E"><use transform="matrix(0.07407407407407408,0,0,0.07407407407407408,0,0)" xlink:href="#R"/><use transform="matrix(0.07407407407407408,0,0,0.07407407407407408,19.185185185185187,0)" xlink:href="#S"/><use transform="matrix(0.07407407407407408,0,0,0.07407407407407408,34,0)" xlink:href="#aS"/><use transform="matrix(0.07407407407407408,0,0,0.07407407407407408,42.814814814814824,0)" xlink:href="#S"/><use transform="matrix(0.07407407407407408,0,0,0.07407407407407408,57.62962962962964,0)" xlink:href="#aI"/><use transform="matrix(0.07407407407407408,0,0,0.07407407407407408,68,0)" xlink:href="#S"/><use transform="matrix(0.07407407407407408,0,0,0.07407407407407408,82.81481481481481,0)" xlink:href="#aM"/><use transform="matrix(0.07407407407407408,0,0,0.07407407407407408,99.03703703703704,0)" xlink:href="#aT"/><use transform="matrix(0.07407407407407408,0,0,0.07407407407407408,113.85185185185185,0)" xlink:href="#S"/><use transform="matrix(0.07407407407407408,0,0,0.07407407407407408,128.66666666666666,0)" xlink:href="#aN"/></g><path fill="#333" d="M52 0c1-96 47-148 87-207H15v-41h169v40c-36 62-79 113-81 208H52" id="aU"/><g id="F"><use transform="matrix(0.07407407407407408,0,0,0.07407407407407408,0,0)" xlink:href="#aU"/><use transform="matrix(0.07407407407407408,0,0,0.07407407407407408,14.814814814814817,0)" xlink:href="#Q"/></g><path fill="#333" d="M135-194c53 0 70 44 70 98 0 56-19 98-73 100-31 1-45-17-59-34 3 33 2 69 2 105H25l-1-265h48c2 10 0 23 3 31 11-24 29-35 60-35zM114-30c33 0 39-31 40-66 0-38-9-64-40-64-56 0-55 130 0 130" id="aV"/><g id="G"><use transform="matrix(0.07407407407407408,0,0,0.07407407407407408,0,0)" xlink:href="#R"/><use transform="matrix(0.07407407407407408,0,0,0.07407407407407408,19.185185185185187,0)" xlink:href="#S"/><use transform="matrix(0.07407407407407408,0,0,0.07407407407407408,34,0)" xlink:href="#V"/><use transform="matrix(0.07407407407407408,0,0,0.07407407407407408,48.81481481481481,0)" xlink:href="#aV"/><use transform="matrix(0.07407407407407408,0,0,0.07407407407407408,65.03703703703704,0)" xlink:href="#aO"/><use transform="matrix(0.07407407407407408,0,0,0.07407407407407408,81.25925925925927,0)" xlink:href="#aM"/><use transform="matrix(0.07407407407407408,0,0,0.07407407407407408,97.4814814814815,0)" xlink:href="#V"/><use transform="matrix(0.07407407407407408,0,0,0.07407407407407408,112.2962962962963,0)" xlink:href="#S"/></g></defs></g></svg>